<?xml version="1.0" encoding="UTF-8"?>
<!DOCTYPE svg PUBLIC "-//W3C//DTD SVG 1.1//EN" "http://www.w3.org/Graphics/SVG/1.1/DTD/svg11.dtd">
<svg xmlns="http://www.w3.org/2000/svg" xml:space="preserve" width="4.2774mm" height="4.207mm" version="1.1" style="shape-rendering:geometricPrecision; text-rendering:geometricPrecision; image-rendering:optimizeQuality; fill-rule:evenodd; clip-rule:evenodd"
viewBox="0 0 427.74 420.7"
 xmlns:xlink="http://www.w3.org/1999/xlink">
 <defs>
  <style type="text/css">
   <![CDATA[
    .fil0 {fill:#4E5058}
    .fil1 {fill:#5F6168}
   ]]>
  </style>
 </defs>
 <g>
  <metadata/>
  <path class="fil0" d="M421.48 212.17c0,21.79 -34.22,38.06 -40.63,57.64 -6.42,19.59 11.76,55.16 0,71.43 -11.76,16.27 -49.19,9.66 -65.77,22.07 -16.58,12.41 -21.11,50.74 -41.17,57.64 -20.06,6.9 -44.65,-22.07 -66.03,-22.07 -21.38,0 -46.78,27.58 -66.02,22.07 -19.25,-5.51 -24.6,-45.23 -41.18,-57.64 -16.58,-12.41 -53.47,-4.96 -65.76,-22.07 -12.3,-17.1 6.15,-50.74 0,-71.43 -6.16,-20.69 -41.18,-35.85 -41.18,-57.64 0,-21.78 34.23,-38.06 40.64,-57.64 6.42,-19.59 -11.76,-55.16 0,-71.43 11.76,-16.27 49.46,-9.65 66.3,-22.07 16.85,-12.41 20.86,-50.74 40.9,-58.46 20.05,-7.73 44.65,22.89 66.03,22.89 21.38,0 46.78,-27.58 66.03,-22.07 19.25,5.51 24.33,45.23 40.9,57.64 16.57,12.42 53.47,4.96 65.76,22.07 12.3,17.1 -6.15,50.74 0,71.43 6.16,20.69 41.17,35.86 41.17,57.64l0.01 0z"/>
  <path class="fil1" d="M220.93 71.91c-3.58,-3.42 -8.31,-5.27 -13.3,-5.27 -4.98,0 -9.71,1.85 -13.42,5.27l-62.64 52.74c-8.56,8.44 -13.42,20.04 -13.42,32.31 0,0.66 0,1.31 0,1.97l0 105.48c0,14.11 5.11,27.16 13.42,34.28l62.64 52.74c8.31,6.99 18.54,6.99 26.85,0l62.64 -52.74c8.56,-8.43 13.42,-20.04 13.42,-32.3 0,-0.66 0,-1.32 0,-1.98l-0.13 -105.48c0,-14.1 -5.11,-27.16 -13.42,-34.28l-62.64 -52.74zm-13.42 22.68l-59.83 50.5c-0.89,0.79 -4.09,5.27 -4.09,13.84l0 105.48c0,8.57 3.2,13.19 4.09,13.85l59.83 50.5 59.82 -50.5c0.9,-0.79 4.1,-5.28 4.1,-13.85l0 -105.48c0,-8.57 -3.2,-13.18 -4.1,-13.84l-59.82 -50.5z"/>
 </g>
</svg>
