<?xml version="1.0" encoding="UTF-8"?>
<!DOCTYPE svg PUBLIC "-//W3C//DTD SVG 1.1//EN" "http://www.w3.org/Graphics/SVG/1.1/DTD/svg11.dtd">
<svg xmlns="http://www.w3.org/2000/svg" xml:space="preserve" width="4.2774mm" height="4.207mm" version="1.1" style="shape-rendering:geometricPrecision; text-rendering:geometricPrecision; image-rendering:optimizeQuality; fill-rule:evenodd; clip-rule:evenodd"
viewBox="0 0 427.74 420.7"
 xmlns:xlink="http://www.w3.org/1999/xlink"
 aria-hidden="true"
 role="img">
 <defs>
  <style type="text/css">
   <![CDATA[
    .fil0 {fill:#060607}
    .fil1 {fill:#FF73FA;fill-rule:nonzero}
   ]]>
  </style>
 </defs>
 <g>
  <path class="fil0" d="M421.48 212.17c0,21.79 -34.22,38.06 -40.63,57.64 -6.42,19.59 11.76,55.16 0,71.43 -11.76,16.27 -49.19,9.66 -65.77,22.07 -16.58,12.41 -21.11,50.74 -41.17,57.64 -20.06,6.9 -44.65,-22.07 -66.03,-22.07 -21.38,0 -46.78,27.58 -66.02,22.07 -19.25,-5.51 -24.6,-45.23 -41.18,-57.64 -16.58,-12.41 -53.47,-4.96 -65.76,-22.07 -12.3,-17.1 6.15,-50.74 0,-71.43 -6.16,-20.69 -41.18,-35.85 -41.18,-57.64 0,-21.78 34.23,-38.06 40.64,-57.64 6.42,-19.59 -11.76,-55.16 0,-71.43 11.76,-16.27 49.46,-9.65 66.3,-22.07 16.85,-12.41 20.86,-50.74 40.9,-58.46 20.05,-7.73 44.65,22.89 66.03,22.89 21.38,0 46.78,-27.58 66.03,-22.07 19.25,5.51 24.33,45.23 40.9,57.64 16.57,12.42 53.47,4.96 65.76,22.07 12.3,17.1 -6.15,50.74 0,71.43 6.16,20.69 41.17,35.86 41.17,57.64l0.01 0z"/>
  <path class="fil1" d="M311.7 63.95c-2.2,-6.36 -8.03,-10.61 -14.58,-10.61 -6.54,0 -12.37,4.25 -14.57,10.61l-6.39 18.07c-2.61,7.23 -8.18,12.92 -15.21,15.56l-17.64 6.72c-6.17,2.27 -10.29,8.29 -10.29,15.04 0,6.75 4.12,12.77 10.28,15.04l17.64 6.59c7.02,2.69 12.54,8.44 15.09,15.69l6.52 18.2c1.66,4.48 4.73,7.51 8.31,9.23 7.68,3.16 17.39,0.13 20.84,-9.23l6.4 -18.2c2.6,-7.23 8.17,-12.92 15.21,-15.56l17.64 -6.72c6.16,-2.27 10.28,-8.29 10.28,-15.04 0,-6.75 -4.12,-12.77 -10.28,-15.03l-17.64 -6.6c-7.01,-2.69 -12.53,-8.44 -15.09,-15.69l-6.52 -18.2 0 0.13z"/>
  <path class="fil1" d="M223.62 73.97c3.83,3.17 2.94,9.23 -0.77,12.27 -9.66,8.06 -15.28,20.2 -15.28,33.01 0,17.73 10.68,33.59 26.78,39.79l14.96 5.67c1.79,0.66 3.19,2.11 3.84,3.95l5.5 15.3c4.96,14.5 17.33,24.97 32.08,27.17 3.45,0.53 6.39,3.43 6.39,7.12l0 46.17c0,14.11 -5.11,27.16 -13.42,34.29l-62.64 52.75c-8.32,6.99 -18.54,6.99 -26.85,0l-62.65 -52.75c-8.58,-8.4 -13.45,-20.08 -13.45,-32.29 0,-0.67 0.01,-1.35 0.04,-2.01l-0.01 -105.5c0,-14.12 5.11,-27.17 13.42,-34.29l62.65 -52.76c3.71,-3.36 8.48,-5.22 13.42,-5.22 4.95,0 9.71,1.86 13.43,5.22l2.55 2.11 0.01 0z"/>
 </g>
</svg>
