<?xml version="1.0" encoding="UTF-8"?>
<!DOCTYPE svg PUBLIC "-//W3C//DTD SVG 1.1//EN" "http://www.w3.org/Graphics/SVG/1.1/DTD/svg11.dtd">
<svg xmlns="http://www.w3.org/2000/svg" xml:space="preserve" width="4.2774mm" height="4.207mm" version="1.1" style="shape-rendering:geometricPrecision; text-rendering:geometricPrecision; image-rendering:optimizeQuality; fill-rule:evenodd; clip-rule:evenodd"
viewBox="0 0 427.74 420.7"
 xmlns:xlink="http://www.w3.org/1999/xlink">
 <defs>
  <style type="text/css">
   <![CDATA[
    .fil1 {fill:#949BA4}
    .fil0 {fill:white}
   ]]>
  </style>
 </defs>
 <g>
  <metadata/>
  <path class="fil0" d="M421.48 212.17c0,21.79 -34.22,38.06 -40.63,57.64 -6.42,19.59 11.76,55.16 0,71.43 -11.76,16.27 -49.19,9.66 -65.77,22.07 -16.58,12.41 -21.11,50.74 -41.17,57.64 -20.06,6.9 -44.65,-22.07 -66.03,-22.07 -21.38,0 -46.78,27.58 -66.02,22.07 -19.25,-5.51 -24.6,-45.23 -41.18,-57.64 -16.58,-12.41 -53.47,-4.96 -65.76,-22.07 -12.3,-17.1 6.15,-50.74 0,-71.43 -6.16,-20.69 -41.18,-35.85 -41.18,-57.64 0,-21.78 34.23,-38.06 40.64,-57.64 6.42,-19.59 -11.76,-55.16 0,-71.43 11.76,-16.27 49.46,-9.65 66.3,-22.07 16.85,-12.41 20.86,-50.74 40.9,-58.46 20.05,-7.73 44.65,22.89 66.03,22.89 21.38,0 46.78,-27.58 66.03,-22.07 19.25,5.51 24.33,45.23 40.9,57.64 16.57,12.42 53.47,4.96 65.76,22.07 12.3,17.1 -6.15,50.74 0,71.43 6.16,20.69 41.17,35.86 41.17,57.64l0.01 0z"/>
  <path class="fil1" d="M193.22 66.46c3.98,-3.5 9.09,-5.43 14.39,-5.43 5.3,0 10.41,1.93 14.38,5.43l67.12 54.79c9.21,8.71 14.43,20.85 14.43,33.53 0,0.69 -0.01,1.4 -0.04,2.09l0 109.58c0,14.66 -5.48,28.22 -14.39,35.62l-67.12 54.79c-8.9,7.25 -19.86,7.25 -28.76,0l-67.12 -54.79c-9.21,-8.72 -14.43,-20.85 -14.43,-33.53 0,-0.7 0.01,-1.4 0.04,-2.09l0 -109.58c0,-14.66 5.48,-28.22 14.38,-35.62l67.12 -54.79 0 0z"/>
 </g>
</svg>
