<?xml version="1.0" encoding="UTF-8"?>
<!DOCTYPE svg PUBLIC "-//W3C//DTD SVG 1.1//EN" "http://www.w3.org/Graphics/SVG/1.1/DTD/svg11.dtd">
<svg xmlns="http://www.w3.org/2000/svg" xml:space="preserve" width="5.1648mm" height="5.08mm" version="1.1" style="shape-rendering:geometricPrecision; text-rendering:geometricPrecision; image-rendering:optimizeQuality; fill-rule:evenodd; clip-rule:evenodd"
viewBox="0 0 516.48 508"
 xmlns:xlink="http://www.w3.org/1999/xlink">
 <defs>
  <style type="text/css">
   <![CDATA[
    .fil1 {fill:#4E5058}
    .fil0 {fill:white}
   ]]>
  </style>
 </defs>
 <g>
  <g id="_1943987413504">
   <path class="fil0" d="M486.44 294.49c12.77,-12.43 25.81,-25.1 25.81,-39.89 0,-14.39 -12.7,-26.39 -25.39,-38.42 -10.49,-9.91 -20.97,-19.87 -24.33,-31.15 -3.31,-11.14 -0.72,-25.33 1.83,-39.53 3.21,-17.66 6.41,-35.28 -1.83,-46.73 -8.19,-11.41 -25.46,-13.77 -42.62,-16.13 -13.95,-1.92 -27.83,-3.81 -36.79,-10.54 -8.92,-6.65 -15.09,-19.9 -21.23,-33.11 -7.66,-16.4 -15.28,-32.77 -28.17,-36.47 -12.54,-3.57 -27.22,4.45 -42.16,12.59 -12.73,7 -25.66,14.05 -37.55,14.05 -11.52,0 -23.83,-7.36 -36.07,-14.68 -15.17,-9.08 -30.26,-18.13 -43.64,-12.98 -13.31,5.16 -20.74,21.4 -28.14,37.49 -6.06,13.25 -12.08,26.39 -21.27,33.12 -9.18,6.8 -23.56,8.89 -37.85,10.93 -17.27,2.52 -34.43,4.95 -42.2,15.73 -7.78,10.78 -4.69,28.6 -1.57,46.41 2.52,14.6 5.07,29.19 1.57,39.85 -3.4,10.38 -13.27,19.98 -23.26,29.7 -12.77,12.46 -25.81,25.13 -25.81,39.88 0,14.43 12.7,26.43 25.39,38.47 10.49,9.91 20.97,19.86 24.33,31.15 3.31,11.09 0.72,25.33 -1.83,39.48 -3.21,17.7 -6.41,35.28 1.83,46.77 8.19,11.41 25.46,13.77 42.62,16.13 13.95,1.89 27.83,3.81 36.79,10.5 8.92,6.68 15.13,19.9 21.34,33.08 7.74,16.44 15.48,32.84 28.36,36.54 12.55,3.57 27.22,-4.45 42.17,-12.63 12.77,-6.96 25.65,-14.04 37.55,-14.04 11.62,0 24.01,7.08 36.33,14.08 15.09,8.61 30.08,17.15 43.42,12.58 13.46,-4.64 21.12,-21 28.71,-37.16 6.06,-12.95 12.12,-25.81 21,-32.45 9.07,-6.81 23.29,-8.86 37.47,-10.94 17.12,-2.48 34.16,-4.95 41.94,-15.69 7.78,-10.82 4.69,-28.64 1.56,-46.41 -2.51,-14.63 -5.07,-29.19 -1.56,-39.85 3.39,-10.38 13.26,-19.98 23.25,-29.73l0 0z"/>
   <path class="fil1" d="M99.09 199.74l135.23 -104.22c5.63,-4.36 12.56,-6.7 19.69,-6.7 7.13,0 14.07,2.34 19.69,6.7l135.4 104.07c7.92,6.1 12.59,15.56 12.59,25.59 0,15.17 -10.53,28.28 -25.35,31.53l-5.15 1.15 -13.27 132.31c-1.62,16.48 -15.53,29.04 -32.08,29.04 0,0 0,0 0,0l-27.3 0c-8.91,0 -16.12,-7.21 -16.12,-16.12l0 -80.7c0,-26.74 -21.66,-48.41 -48.4,-48.41 -26.74,0 -48.41,21.67 -48.41,48.41l0 80.7c0,8.91 -7.25,16.12 -16.16,16.12l-27.25 0c0,0 0,0 0,0 -16.56,0 -30.46,-12.56 -32.13,-29.04l-13.23 -132.31 -5.15 -1.15c-14.81,-3.25 -25.39,-16.36 -25.39,-31.53 0,-10.02 4.68,-19.49 12.64,-25.59l0.16 0.15 -0.01 0z"/>
  </g>
 </g>
</svg>
