<svg width="54" height="51" viewBox="0 0 54 51" fill="none" xmlns="http://www.w3.org/2000/svg">
    <path d="M9.70918 40.75C9.03509 40.75 8.3886 41.0178 7.91195 41.4944C7.43529 41.9711 7.16751 42.6176 7.16751 43.2916C7.16751 45.3139 7.97086 47.2534 9.40082 48.6833C10.8308 50.1133 12.7702 50.9166 14.7925 50.9166H40.2092C42.2315 50.9166 44.1709 50.1133 45.6009 48.6833C47.0308 47.2534 47.8342 45.3139 47.8342 43.2916C47.8342 42.6176 47.5664 41.9711 47.0897 41.4944C46.6131 41.0178 45.9666 40.75 45.2925 40.75H9.70918ZM4.72751 14.7233C4.28695 14.4119 3.75871 14.2487 3.21927 14.2575C2.67982 14.2662 2.15715 14.4464 1.7269 14.7719C1.29664 15.0974 0.981137 15.5514 0.826039 16.0681C0.670941 16.5849 0.684299 17.1376 0.864179 17.6462L6.58293 33.9637C6.75631 34.4597 7.07914 34.8898 7.50699 35.1947C7.93484 35.4997 8.44669 35.6646 8.9721 35.6666H45.9533C46.4957 35.6628 47.0226 35.4856 47.457 35.1609C47.8915 34.8363 48.2107 34.3811 48.3679 33.8621L53.2988 17.4683C53.4574 16.9566 53.4504 16.4079 53.2786 15.9004C53.1067 15.393 52.779 14.9528 52.3421 14.6428C51.9052 14.3327 51.3815 14.1687 50.8458 14.174C50.3101 14.1793 49.7898 14.3538 49.3592 14.6725L38.9129 22.2975L29.89 8.7504L31.9742 6.66623C32.1724 6.47005 32.3298 6.23651 32.4373 5.97911C32.5447 5.72171 32.6 5.44556 32.6 5.16665C32.6 4.88773 32.5447 4.61158 32.4373 4.35418C32.3298 4.09678 32.1724 3.86324 31.9742 3.66706L29.0004 0.693312C28.8043 0.495047 28.5707 0.337651 28.3133 0.230233C28.0559 0.122814 27.7798 0.0675049 27.5008 0.0675049C27.2219 0.0675049 26.9458 0.122814 26.6884 0.230233C26.431 0.337651 26.1974 0.495047 26.0013 0.693312L23.0275 3.66706C22.8292 3.86324 22.6719 4.09678 22.5644 4.35418C22.457 4.61158 22.4017 4.88773 22.4017 5.16665C22.4017 5.44556 22.457 5.72171 22.5644 5.97911C22.6719 6.23651 22.8292 6.47005 23.0275 6.66623L25.1117 8.7504L15.9363 22.5262L4.72751 14.7233Z" fill="#F0B132"/>
    </svg>
    