<svg width="57" height="54" viewBox="0 0 57 54" fill="none" xmlns="http://www.w3.org/2000/svg">
    <path d="M27.3578 31.6C28.0694 32.0321 28.9336 32.0321 29.6453 31.6C33.7119 29.16 47.1319 20.2642 47.1319 9.81792C47.1319 7.23614 46.1063 4.76012 44.2807 2.93453C42.4551 1.10894 39.9791 0.0833332 37.3973 0.0833332C33.4323 0.0833332 30.8398 1.60833 28.5015 3.89583C27.3707 2.66983 25.9938 1.69648 24.4608 1.03948C22.9278 0.382479 21.2733 0.0566543 19.6057 0.0833332C17.0239 0.0833332 14.5479 1.10894 12.7223 2.93453C10.8967 4.76012 9.87109 7.23614 9.87109 9.81792C9.87109 20.2387 23.3165 29.16 27.3578 31.6Z" fill="#2DC770"/>
    <path d="M5.90098 32.7692C5.54636 32.8187 5.20621 32.9426 4.90281 33.1328C4.59941 33.3229 4.33961 33.575 4.14044 33.8726C3.94127 34.1701 3.80722 34.5064 3.74706 34.8594C3.68691 35.2124 3.70202 35.5741 3.7914 35.9208L4.37598 38.1829C5.29978 41.7249 7.46677 44.8164 10.4812 46.8929C13.4957 48.9695 17.1565 49.8924 20.7952 49.4933L25.9547 48.9342V50.9167C25.9547 51.5907 26.2225 52.2372 26.6992 52.7139C27.1758 53.1905 27.8223 53.4583 28.4964 53.4583C29.1705 53.4583 29.817 53.1905 30.2936 52.7139C30.7703 52.2372 31.0381 51.5907 31.0381 50.9167V48.9342L36.1977 49.4933C39.8369 49.9001 43.5011 48.9837 46.5205 46.9117C49.5398 44.8397 51.7128 41.7504 52.6422 38.2083L53.2268 35.9462C53.3162 35.5995 53.3313 35.2378 53.2712 34.8848C53.211 34.5318 53.077 34.1956 52.8778 33.898C52.6786 33.6004 52.4188 33.3483 52.1154 33.1582C51.812 32.968 51.4719 32.8441 51.1172 32.7946L45.9068 32.0575C42.8357 31.6274 39.7064 32.1439 36.9363 33.538C34.1663 34.9322 31.8871 37.1377 30.4027 39.8604L28.4964 43.2917L26.6156 39.835C25.1312 37.1122 22.8519 34.9067 20.0819 33.5126C17.3118 32.1185 14.1825 31.602 11.1114 32.0321L5.90098 32.7692ZM5.44348 18.8917C5.54377 18.5865 5.73781 18.3209 5.99796 18.1326C6.25811 17.9442 6.57107 17.8428 6.89223 17.8428C7.2134 17.8428 7.52636 17.9442 7.78651 18.1326C8.04665 18.3209 8.2407 18.5865 8.34098 18.8917L8.59515 19.5271C8.84653 20.2182 9.24487 20.8465 9.76266 21.3686C10.2805 21.8908 10.9054 22.2944 11.5943 22.5517L12.2297 22.8058C12.5259 22.9117 12.782 23.1065 12.9632 23.3635C13.1443 23.6206 13.2415 23.9274 13.2415 24.2419C13.2415 24.5563 13.1443 24.8631 12.9632 25.1202C12.782 25.3773 12.5259 25.5721 12.2297 25.6779L11.5943 25.9321C10.9032 26.1835 10.2749 26.5818 9.75274 27.0996C9.23056 27.6174 8.82694 28.2423 8.56973 28.9312L8.31557 29.5667C8.20973 29.8628 8.01494 30.119 7.75786 30.3001C7.50078 30.4812 7.194 30.5784 6.87953 30.5784C6.56505 30.5784 6.25827 30.4812 6.00119 30.3001C5.74412 30.119 5.54932 29.8628 5.44348 29.5667L5.18932 28.9312C4.93793 28.2402 4.5396 27.6118 4.02181 27.0897C3.50401 26.5675 2.87909 26.1639 2.19015 25.9067L1.55473 25.6525C1.2586 25.5467 1.00244 25.3519 0.821312 25.0948C0.640188 24.8377 0.542969 24.5309 0.542969 24.2164C0.542969 23.902 0.640188 23.5952 0.821312 23.3381C1.00244 23.081 1.2586 22.8862 1.55473 22.7804L2.19015 22.5262C2.88123 22.2749 3.50954 21.8765 4.03173 21.3587C4.55391 20.8409 4.95753 20.216 5.21473 19.5271L5.4689 18.8917H5.44348ZM52.5406 19.9592C52.4527 19.7198 52.2935 19.5131 52.0844 19.3671C51.8753 19.2211 51.6264 19.1428 51.3714 19.1428C51.1164 19.1428 50.8675 19.2211 50.6584 19.3671C50.4493 19.5131 50.2901 19.7198 50.2022 19.9592V20.0354C49.945 20.7243 49.5414 21.3493 49.0192 21.8671C48.497 22.3849 47.8687 22.7832 47.1777 23.0346L47.1014 23.06C46.862 23.1478 46.6553 23.3071 46.5093 23.5162C46.3634 23.7253 46.2851 23.9741 46.2851 24.2292C46.2851 24.4842 46.3634 24.733 46.5093 24.9421C46.6553 25.1512 46.862 25.3105 47.1014 25.3983H47.1777C47.8666 25.6555 48.4915 26.0591 49.0093 26.5813C49.5271 27.1035 49.9254 27.7318 50.1768 28.4229L50.2022 28.4992C50.6089 29.5921 52.1339 29.5921 52.5406 28.4992V28.4229C52.7978 27.734 53.2014 27.109 53.7236 26.5912C54.2458 26.0735 54.8741 25.6751 55.5652 25.4237L55.6414 25.3983C55.8808 25.3105 56.0875 25.1512 56.2335 24.9421C56.3795 24.733 56.4577 24.4842 56.4577 24.2292C56.4577 23.9741 56.3795 23.7253 56.2335 23.5162C56.0875 23.3071 55.8808 23.1478 55.6414 23.06H55.5652C54.8762 22.8028 54.2513 22.3992 53.7335 21.877C53.2157 21.3548 52.8174 20.7265 52.566 20.0354L52.5406 19.9592Z" fill="#2DC770"/>
    </svg>
    