<?xml version="1.0" encoding="UTF-8"?>
<svg xmlns="http://www.w3.org/2000/svg" version="1.1" viewBox="0 0 18.88 18">
  <defs>
    <style>
      .st0 {
        fill: #fff;
      }

      .st1 {
        fill: #a8b1c9;
        fill-rule: evenodd;
      }
    </style>
  </defs>
  <path class="st1" d="M18.88,9.02c0,.93-1.51,1.63-1.79,2.47s.52,2.36,0,3.06-2.17.41-2.9.94-.93,2.17-1.82,2.47-1.97-.94-2.91-.94-2.06,1.18-2.91.94-1.09-1.94-1.82-2.47-2.36-.21-2.9-.94.27-2.17,0-3.06-1.82-1.53-1.82-2.47,1.51-1.63,1.79-2.47-.52-2.36,0-3.06,2.18-.41,2.93-.94S5.64.38,6.53.05s1.97.98,2.91.98S11.5-.15,12.35.09s1.07,1.94,1.81,2.47c.73.53,2.36.21,2.9.94s-.27,2.17,0,3.06,1.82,1.53,1.82,2.47Z"/>
  <path class="st0" d="M4.42,13.47v-.6c0-.13.06-.26.15-.35l1.2-1.21c.09-.09.22-.15.36-.14h.3l4.5-4.5-.43-.42s-.09-.11-.11-.17l-.74-1.87c-.05-.13.01-.27.14-.32.06-.02.13-.02.19,0l1.86.75c.06.02.12.06.17.11l.32.32c.19-.2.51-.2.71,0,0,0,0,0,0,0l.5.5c.2.19.2.51,0,.71,0,0,0,0,0,0l.79.79c.2.19.2.51,0,.71,0,0,0,0,0,0l-.79.79c-.19.2-.51.2-.71,0,0,0,0,0,0,0l-.89-.89-4.5,4.5v.3c0,.13-.06.26-.15.35l-1.2,1.21c-.09.09-.22.15-.36.15h-.59c-.13,0-.26-.06-.35-.15l-.21-.2c-.09-.09-.15-.22-.14-.35h0Z"/>
  <path class="st0" d="M7.54,8.29c.1.1.26.1.35,0l.65-.65c.1-.1.1-.25,0-.35l-1.86-1.86.15-.15c.19-.19.19-.51,0-.7l-.25-.25c-.1-.1-.22-.15-.35-.11-.21.07-.59.25-1.05.71-.32.29-.56.65-.71,1.05-.04.12.01.25.11.35l.25.25c.19.2.51.2.71,0,0,0,0,0,0,0l.14-.15s1.87,1.87,1.86,1.87ZM10.31,10.7c-.1.1-.1.25,0,.35l.86.87.72,1.2s.05.07.07.1l.86.86c.05.05.13.05.18,0l1.32-1.32c.05-.05.05-.13,0-.18l-.86-.86s-.06-.05-.1-.07l-1.2-.73-.86-.86c-.1-.1-.25-.1-.35,0l-.65.65h0Z"/>
</svg>