<svg width="61" height="60" viewBox="0 0 61 60" fill="none" xmlns="http://www.w3.org/2000/svg"><g clip-path="url(#a)"><path fill-rule="evenodd" clip-rule="evenodd" d="M60.057 30.348c0 3.107-4.876 5.43-5.795 8.223-.914 2.792 1.68 7.865 0 10.187-1.676 2.319-7.011 1.375-9.38 3.145-2.363 1.77-3.008 7.238-5.872 8.223-2.858.985-6.367-3.15-9.415-3.15s-6.668 3.935-9.415 3.15c-2.743-.79-3.508-6.453-5.872-8.223s-7.623-.705-9.38-3.145c-1.75-2.44.88-7.238 0-10.187-.877-2.95-5.871-5.116-5.871-8.223 0-3.103 4.881-5.426 5.796-8.218.917-2.793-1.675-7.87 0-10.189 1.68-2.323 7.055-1.375 9.455-3.144 2.404-1.774 2.977-7.238 5.836-8.34 2.854-1.1 6.367 3.262 9.415 3.262 3.049 0 6.669-3.93 9.416-3.145 2.742.784 3.467 6.449 5.832 8.223 2.363 1.769 7.627.706 9.38 3.144 1.75 2.439-.88 7.238 0 10.189.877 2.95 5.87 5.115 5.87 8.218" fill="#4E5058"/><path d="M10.541 47.13v-2.256c.004-.504.212-.982.567-1.332l4.557-4.593c.36-.356.838-.554 1.343-.554h.008l1.12.004 17.09-17.093-1.612-1.613a1.9 1.9 0 0 1-.438-.647l-2.832-7.084a.95.95 0 0 1 1.234-1.234l7.084 2.851c.242.094.463.234.648.419l1.215 1.211a1.905 1.905 0 0 1 2.698 0l1.895 1.9a1.9 1.9 0 0 1 0 2.697l2.999 2.999a1.9 1.9 0 0 1 .004 2.697l-3.003 3a1.9 1.9 0 0 1-1.346.563c-.51 0-.99-.203-1.351-.563l-3.4-3.378-17.088 17.089v1.121c-.004.5-.212.978-.567 1.329L16.81 49.26c-.356.352-.837.55-1.338.55h-2.274a1.9 1.9 0 0 1-1.328-.573l-.797-.756a1.9 1.9 0 0 1-.549-1.337v-.014z" fill="#fff"/><path d="M22.275 27.53c.387.386.98.386 1.347 0l2.49-2.491a.956.956 0 0 0 0-1.341l-7.152-7.152.577-.576c.352-.36.546-.842.546-1.342a1.9 1.9 0 0 0-.546-1.341l-.96-.96c-.382-.383-.863-.577-1.34-.423-.824.27-2.244.941-4.026 2.724a10.3 10.3 0 0 0-2.725 4.026c-.153.477.06.958.402 1.342l.958.959a1.917 1.917 0 0 0 2.725 0l.553-.576 7.155 7.15zm10.622 9.26a.97.97 0 0 0 0 1.343l3.319 3.337 2.76 4.597c.081.136.18.257.288.364l3.319 3.32a.483.483 0 0 0 .689 0l5.06-5.06a.48.48 0 0 0 0-.69l-3.295-3.297a2 2 0 0 0-.383-.292l-4.602-2.778-3.32-3.315a.96.96 0 0 0-.669-.274.98.98 0 0 0-.671.27l-2.495 2.495z" fill="#fff"/></g><defs><clipPath id="a"><path fill="#fff" d="M0 0h61v60H0z"/></clipPath></defs></svg>