<svg width="61" height="61" viewBox="0 0 61 61" fill="none" xmlns="http://www.w3.org/2000/svg">
  <path fill-rule="evenodd" clip-rule="evenodd" d="M61 31.052c0 3.012-4.88 5.26-5.795 7.968-.915 2.707 1.678 7.625 0 9.874s-7.015 1.335-9.379 3.05c-2.364 1.716-3.012 7.015-5.871 7.968s-6.367-3.05-9.417-3.05-6.672 3.813-9.417 3.05c-2.745-.762-3.507-6.252-5.871-7.968-2.364-1.715-7.625-.686-9.379-3.05s.877-7.015 0-9.874S0 34.064 0 31.052s4.88-5.262 5.795-7.968-1.678-7.625 0-9.875 7.053-1.334 9.455-3.05 2.974-7.015 5.833-8.082S27.45 5.24 30.5 5.24s6.672-3.812 9.417-3.05c2.745.763 3.47 6.253 5.833 7.968 2.364 1.716 7.625.686 9.379 3.05s-.877 7.015 0 9.875S61 28.04 61 31.052" fill="#43A25A"/>
  <path fill-rule="evenodd" clip-rule="evenodd" d="M44.499 20.611a2.065 2.065 0 0 1 0 2.891L27.978 40.023a2.065 2.065 0 0 1-2.891 0l-8.26-8.26a2.067 2.067 0 0 1 .516-3.587 2.06 2.06 0 0 1 2.374.696l6.815 6.794L41.608 20.59a2.065 2.065 0 0 1 2.891 0z" fill="#fff"/>
</svg>
