<svg xmlns:xlink="http://www.w3.org/1999/xlink" width="140" height="101.81818181818181" viewBox="0 0 275 200" fill="none" xmlns="http://www.w3.org/2000/svg">
<g clip-path="url(#clip0_1_3)">
<path d="M18.7 50H12.5C9.18479 50 6.00537 51.317 3.66117 53.6612C1.31696 56.0054 0 59.1848 0 62.5C0 65.8152 1.31696 68.9946 3.66117 71.3388C6.00537 73.683 9.18479 75 12.5 75H18.7C22.0152 75 25.1946 73.683 27.5388 71.3388C29.883 68.9946 31.2 65.8152 31.2 62.5C31.2 59.1848 29.883 56.0054 27.5388 53.6612C25.1946 51.317 22.0152 50 18.7 50ZM175 75C170.055 75 165.222 76.4662 161.111 79.2133C157 81.9603 153.795 85.8648 151.903 90.4329C150.011 95.0011 149.516 100.028 150.48 104.877C151.445 109.727 153.826 114.181 157.322 117.678C160.819 121.174 165.273 123.555 170.123 124.52C174.972 125.484 179.999 124.989 184.567 123.097C189.135 121.205 193.04 118 195.787 113.889C198.534 109.778 200 104.945 200 100C200 93.3696 197.366 87.0107 192.678 82.3223C187.989 77.6339 181.63 75 175 75ZM175 3.02271e-06H75C71.6848 3.02271e-06 68.5054 1.31696 66.1612 3.66117C63.817 6.00537 62.5 9.1848 62.5 12.5C62.5 15.8152 63.817 18.9946 66.1612 21.3388C68.5054 23.683 71.6848 25 75 25H112.5C115.815 25 118.995 26.317 121.339 28.6612C123.683 31.0054 125 34.1848 125 37.5C125 40.8152 123.683 43.9946 121.339 46.3388C118.995 48.683 115.815 50 112.5 50H56.3C52.9848 50 49.8054 51.317 47.4612 53.6612C45.117 56.0054 43.8 59.1848 43.8 62.5C43.8 65.8152 45.117 68.9946 47.4612 71.3388C49.8054 73.683 52.9848 75 56.3 75H87.5C90.8152 75 93.9946 76.317 96.3388 78.6612C98.683 81.0054 100 84.1848 100 87.5C100 90.8152 98.683 93.9946 96.3388 96.3388C93.9946 98.683 90.8152 100 87.5 100H62.5C59.1848 100 56.0054 101.317 53.6612 103.661C51.317 106.005 50 109.185 50 112.5C50 115.815 51.317 118.995 53.6612 121.339C56.0054 123.683 59.1848 125 62.5 125H78.2C82.8761 143.11 92.5378 159.546 106.087 172.441C119.637 185.335 136.531 194.171 154.851 197.944C173.171 201.717 192.182 200.277 209.724 193.787C227.266 187.296 242.637 176.016 254.089 161.228C265.541 146.439 272.616 128.735 274.51 110.127C276.405 91.5184 273.042 72.7519 264.804 55.9592C256.567 39.1664 243.785 25.0205 227.91 15.1287C212.035 5.23677 193.704 -0.00459506 175 3.02271e-06ZM175 150C165.111 150 155.444 147.068 147.221 141.573C138.999 136.079 132.59 128.27 128.806 119.134C125.022 109.998 124.031 99.9445 125.961 90.2455C127.89 80.5464 132.652 71.6373 139.645 64.6447C146.637 57.652 155.546 52.89 165.245 50.9607C174.945 49.0315 184.998 50.0216 194.134 53.806C203.27 57.5904 211.079 63.999 216.573 72.2215C222.068 80.4439 225 90.1109 225 100C225 113.261 219.732 125.979 210.355 135.355C200.979 144.732 188.261 150 175 150ZM175 75C170.055 75 165.222 76.4662 161.111 79.2133C157 81.9603 153.795 85.8648 151.903 90.4329C150.011 95.0011 149.516 100.028 150.48 104.877C151.445 109.727 153.826 114.181 157.322 117.678C160.819 121.174 165.273 123.555 170.123 124.52C174.972 125.484 179.999 124.989 184.567 123.097C189.135 121.205 193.04 118 195.787 113.889C198.534 109.778 200 104.945 200 100C200 93.3696 197.366 87.0107 192.678 82.3223C187.989 77.6339 181.63 75 175 75ZM175 75C170.055 75 165.222 76.4662 161.111 79.2133C157 81.9603 153.795 85.8648 151.903 90.4329C150.011 95.0011 149.516 100.028 150.48 104.877C151.445 109.727 153.826 114.181 157.322 117.678C160.819 121.174 165.273 123.555 170.123 124.52C174.972 125.484 179.999 124.989 184.567 123.097C189.135 121.205 193.04 118 195.787 113.889C198.534 109.778 200 104.945 200 100C200 93.3696 197.366 87.0107 192.678 82.3223C187.989 77.6339 181.63 75 175 75Z" fill="url(#paint0_linear_1_3)"/>
<path d="M175 36.1C162.362 36.1 150.007 39.8477 139.499 46.8691C128.991 53.8905 120.801 63.8703 115.964 75.5465C111.128 87.2227 109.862 100.071 112.328 112.466C114.793 124.862 120.879 136.248 129.816 145.184C138.752 154.121 150.138 160.207 162.534 162.672C174.929 165.138 187.777 163.872 199.453 159.036C211.13 154.199 221.109 146.009 228.131 135.501C235.152 124.993 238.9 112.638 238.9 100C238.9 83.0527 232.168 66.7995 220.184 54.8159C208.201 42.8323 191.947 36.1 175 36.1ZM175 150C165.111 150 155.444 147.068 147.221 141.573C138.999 136.079 132.59 128.27 128.806 119.134C125.022 109.998 124.031 99.9445 125.961 90.2455C127.89 80.5464 132.652 71.6373 139.645 64.6447C146.637 57.652 155.546 52.89 165.245 50.9607C174.945 49.0315 184.998 50.0216 194.134 53.806C203.27 57.5904 211.079 63.999 216.573 72.2215C222.068 80.444 225 90.1109 225 100C225 113.261 219.732 125.979 210.355 135.355C200.979 144.732 188.261 150 175 150Z" fill="url(#paint1_linear_1_3)"/>
<path d="M175 125C188.807 125 200 113.807 200 100C200 86.1929 188.807 75 175 75C161.193 75 150 86.1929 150 100C150 113.807 161.193 125 175 125Z" fill="url(#paint2_linear_1_3)"/>
<path d="M225 100C225 113.261 219.732 125.979 210.355 135.355C200.979 144.732 188.261 150 175 150V163.9C191.947 163.9 208.201 157.168 220.184 145.184C232.168 133.201 238.9 116.947 238.9 100H225Z" fill="url(#paint3_linear_1_3)"/>
</g>
<defs>
<linearGradient id="paint0_linear_1_3" x1="137.5" y1="187.31" x2="137.5" y2="26.68" gradientUnits="userSpaceOnUse">
<stop stop-color="#B5422F"/>
<stop offset="0.22" stop-color="#DC6A27"/>
<stop offset="0.34" stop-color="#F58422"/>
<stop offset="0.37" stop-color="#EA7A1F"/>
<stop offset="0.47" stop-color="#C05315"/>
<stop offset="0.55" stop-color="#A63B0E"/>
<stop offset="0.59" stop-color="#9C320C"/>
<stop offset="0.81" stop-color="#FF9C4D"/>
<stop offset="0.85" stop-color="#FA9346"/>
<stop offset="0.92" stop-color="#ED7B33"/>
<stop offset="1" stop-color="#DB5918"/>
</linearGradient>
<linearGradient id="paint1_linear_1_3" x1="134.37" y1="59.37" x2="218.62" y2="143.62" gradientUnits="userSpaceOnUse">
<stop offset="0.18" stop-color="#802200"/>
<stop offset="0.49" stop-color="#B14D19"/>
<stop offset="1" stop-color="#FF9430"/>
</linearGradient>
<linearGradient id="paint2_linear_1_3" x1="188.56" y1="113.56" x2="160.83" y2="85.83" gradientUnits="userSpaceOnUse">
<stop stop-color="#852C0B"/>
<stop offset="1" stop-color="#E66C2E"/>
</linearGradient>
<linearGradient id="paint3_linear_1_3" x1="185.5" y1="159.68" x2="233.52" y2="111.66" gradientUnits="userSpaceOnUse">
<stop stop-color="#E57D27"/>
<stop offset="0.51" stop-color="#FFD694"/>
<stop offset="1" stop-color="#E37B28"/>
</linearGradient>
<clipPath id="clip0_1_3">
<rect width="275" height="200" fill="white"/>
</clipPath>
</defs>
</svg>