<svg xmlns:xlink="http://www.w3.org/1999/xlink" width="140" height="101.81818181818181" viewBox="0 0 275 200" fill="none" xmlns="http://www.w3.org/2000/svg">
  <g clip-path="url(#clip0_1_248)">
  <path d="M18.7 50H12.5C9.18479 50 6.00537 51.317 3.66117 53.6612C1.31696 56.0054 0 59.1848 0 62.5C0 65.8152 1.31696 68.9946 3.66117 71.3388C6.00537 73.683 9.18479 75 12.5 75H18.7C22.0152 75 25.1946 73.683 27.5388 71.3388C29.883 68.9946 31.2 65.8152 31.2 62.5C31.2 59.1848 29.883 56.0054 27.5388 53.6612C25.1946 51.317 22.0152 50 18.7 50ZM175 75C170.055 75 165.222 76.4662 161.111 79.2133C157 81.9603 153.795 85.8648 151.903 90.4329C150.011 95.0011 149.516 100.028 150.48 104.877C151.445 109.727 153.826 114.181 157.322 117.678C160.819 121.174 165.273 123.555 170.123 124.52C174.972 125.484 179.999 124.989 184.567 123.097C189.135 121.205 193.04 118 195.787 113.889C198.534 109.778 200 104.945 200 100C200 93.3696 197.366 87.0107 192.678 82.3223C187.989 77.6339 181.63 75 175 75ZM175 3.02271e-06H75C71.6848 3.02271e-06 68.5054 1.31696 66.1612 3.66117C63.817 6.00537 62.5 9.1848 62.5 12.5C62.5 15.8152 63.817 18.9946 66.1612 21.3388C68.5054 23.683 71.6848 25 75 25H112.5C115.815 25 118.995 26.317 121.339 28.6612C123.683 31.0054 125 34.1848 125 37.5C125 40.8152 123.683 43.9946 121.339 46.3388C118.995 48.683 115.815 50 112.5 50H56.3C52.9848 50 49.8054 51.317 47.4612 53.6612C45.117 56.0054 43.8 59.1848 43.8 62.5C43.8 65.8152 45.117 68.9946 47.4612 71.3388C49.8054 73.683 52.9848 75 56.3 75H87.5C90.8152 75 93.9946 76.317 96.3388 78.6612C98.683 81.0054 100 84.1848 100 87.5C100 90.8152 98.683 93.9946 96.3388 96.3388C93.9946 98.683 90.8152 100 87.5 100H62.5C59.1848 100 56.0054 101.317 53.6612 103.661C51.317 106.005 50 109.185 50 112.5C50 115.815 51.317 118.995 53.6612 121.339C56.0054 123.683 59.1848 125 62.5 125H78.2C82.8761 143.11 92.5378 159.546 106.087 172.441C119.637 185.335 136.531 194.171 154.851 197.944C173.171 201.717 192.182 200.277 209.724 193.787C227.266 187.296 242.637 176.016 254.089 161.228C265.541 146.439 272.616 128.735 274.51 110.127C276.405 91.5184 273.042 72.7519 264.804 55.9592C256.567 39.1664 243.785 25.0205 227.91 15.1287C212.035 5.23677 193.704 -0.00459506 175 3.02271e-06ZM175 150C165.111 150 155.444 147.068 147.221 141.573C138.999 136.079 132.59 128.27 128.806 119.134C125.022 109.998 124.031 99.9445 125.961 90.2455C127.89 80.5464 132.652 71.6373 139.645 64.6447C146.637 57.652 155.546 52.89 165.245 50.9607C174.945 49.0315 184.998 50.0216 194.134 53.806C203.27 57.5904 211.079 63.999 216.573 72.2215C222.068 80.4439 225 90.1109 225 100C225 113.261 219.732 125.979 210.355 135.355C200.979 144.732 188.261 150 175 150ZM175 75C170.055 75 165.222 76.4662 161.111 79.2133C157 81.9603 153.795 85.8648 151.903 90.4329C150.011 95.0011 149.516 100.028 150.48 104.877C151.445 109.727 153.826 114.181 157.322 117.678C160.819 121.174 165.273 123.555 170.123 124.52C174.972 125.484 179.999 124.989 184.567 123.097C189.135 121.205 193.04 118 195.787 113.889C198.534 109.778 200 104.945 200 100C200 93.3696 197.366 87.0107 192.678 82.3223C187.989 77.6339 181.63 75 175 75ZM175 75C170.055 75 165.222 76.4662 161.111 79.2133C157 81.9603 153.795 85.8648 151.903 90.4329C150.011 95.0011 149.516 100.028 150.48 104.877C151.445 109.727 153.826 114.181 157.322 117.678C160.819 121.174 165.273 123.555 170.123 124.52C174.972 125.484 179.999 124.989 184.567 123.097C189.135 121.205 193.04 118 195.787 113.889C198.534 109.778 200 104.945 200 100C200 93.3696 197.366 87.0107 192.678 82.3223C187.989 77.6339 181.63 75 175 75Z" fill="url(#paint0_linear_1_248)"></path>
  <path d="M141.8 161.9L128.1 182.6C127.969 182.812 127.796 182.994 127.591 183.135C127.386 183.276 127.154 183.373 126.91 183.42C126.665 183.467 126.414 183.463 126.171 183.408C125.929 183.353 125.7 183.248 125.5 183.1C107.3 170.8 92.8 154.6 85 136.2L113.8 123.9C114.534 123.613 115.349 123.608 116.087 123.885C116.825 124.162 117.435 124.701 117.8 125.4C121.1 132 127.3 141.9 140 151.8C145.4 156 145.4 156 141.8 161.9Z" fill="url(#paint1_linear_1_248)"></path>
  <path d="M200.2 8.39999L191 50.7C198.601 52.3905 205.613 56.0815 211.31 61.3911C217.006 66.7007 221.18 73.4359 223.4 80.9L265 68.8C260.608 53.8466 252.275 40.3497 240.874 29.7232C229.473 19.0967 215.425 11.7318 200.2 8.39999Z" fill="url(#paint2_linear_1_248)"></path>
  <path d="M175 33.7C161.887 33.7 149.069 37.5884 138.166 44.8736C127.263 52.1587 118.765 62.5133 113.747 74.6281C108.729 86.7428 107.416 100.074 109.974 112.934C112.532 125.795 118.847 137.609 128.119 146.881C137.391 156.153 149.205 162.468 162.065 165.026C174.926 167.584 188.257 166.271 200.372 161.253C212.487 156.235 222.841 147.737 230.126 136.834C237.412 125.931 241.3 113.113 241.3 100C241.3 91.2934 239.585 82.672 236.253 74.6281C232.921 66.5842 228.038 59.2753 221.881 53.1188C215.725 46.9623 208.416 42.0787 200.372 38.7468C192.328 35.4149 183.707 33.7 175 33.7ZM175 151.9C164.735 151.9 154.701 148.856 146.166 143.153C137.631 137.45 130.979 129.345 127.051 119.861C123.122 110.378 122.095 99.9424 124.097 89.8748C126.1 79.8072 131.043 70.5595 138.301 63.3012C145.559 56.0428 154.807 51.0998 164.875 49.0972C174.942 47.0947 185.378 48.1225 194.861 52.0506C204.345 55.9788 212.45 62.631 218.153 71.1659C223.856 79.7008 226.9 89.7351 226.9 100C226.9 106.816 225.558 113.564 222.949 119.861C220.341 126.158 216.518 131.879 211.699 136.699C206.879 141.518 201.158 145.341 194.861 147.949C188.564 150.558 181.816 151.9 175 151.9Z" fill="url(#paint3_linear_1_248)"></path>
  <path d="M203.5 159.9L197.3 146.9C189.746 150.49 181.437 152.201 173.079 151.887C164.722 151.574 156.564 149.245 149.3 145.1L142.2 157.7C151.493 162.953 161.913 165.894 172.582 166.277C183.25 166.66 193.854 164.473 203.5 159.9Z" fill="url(#paint4_linear_1_248)"></path>
  <path d="M223.5 54.8L213 64.6C218.671 70.7377 222.791 78.1426 225.018 86.1968C227.245 94.2511 227.513 102.721 225.8 110.9L239.9 113.9C242.102 103.456 241.762 92.6351 238.908 82.3498C236.054 72.0645 230.77 62.6159 223.5 54.8Z" fill="url(#paint5_linear_1_248)"></path>
  <path d="M175 36.1C162.362 36.1 150.007 39.8477 139.499 46.8691C128.991 53.8905 120.801 63.8703 115.964 75.5465C111.128 87.2227 109.862 100.071 112.328 112.466C114.793 124.862 120.879 136.248 129.816 145.184C138.752 154.121 150.138 160.207 162.534 162.672C174.929 165.138 187.777 163.872 199.453 159.036C211.13 154.199 221.109 146.009 228.131 135.501C235.152 124.993 238.9 112.638 238.9 100C238.9 83.0527 232.168 66.7995 220.184 54.8159C208.201 42.8323 191.947 36.1 175 36.1ZM175 150C165.111 150 155.444 147.068 147.221 141.573C138.999 136.079 132.59 128.27 128.806 119.134C125.022 109.998 124.031 99.9445 125.961 90.2455C127.89 80.5464 132.652 71.6373 139.645 64.6447C146.637 57.652 155.546 52.89 165.245 50.9607C174.945 49.0315 184.998 50.0216 194.134 53.806C203.27 57.5904 211.079 63.999 216.573 72.2215C222.068 80.444 225 90.1109 225 100C225 113.261 219.732 125.979 210.355 135.355C200.979 144.732 188.261 150 175 150Z" fill="url(#paint6_linear_1_248)"></path>
  <path d="M175 125C188.807 125 200 113.807 200 100C200 86.1929 188.807 75 175 75C161.193 75 150 86.1929 150 100C150 113.807 161.193 125 175 125Z" fill="url(#paint7_linear_1_248)"></path>
  <path d="M225 100C225 113.261 219.732 125.979 210.355 135.355C200.979 144.732 188.261 150 175 150V163.9C191.947 163.9 208.201 157.168 220.184 145.184C232.168 133.201 238.9 116.947 238.9 100H225Z" fill="url(#paint8_linear_1_248)"></path>
  <path d="M177.5 81.3C181.2 85.1 174.8 88 169 93.8C163.2 99.6 160.3 106 156.5 102.3C152.7 98.6 154.4 90.8 160.2 85C166 79.2 173.7 77.6 177.5 81.3Z" fill="url(#paint9_linear_1_248)"></path>
  <path d="M171.4 120.3C167.5 116 174.6 112.7 181 106.2C187.4 99.7 190.8 92.7 195.1 96.6C199.4 100.5 198 109.5 191.1 116.3C184.2 123.1 175.4 124.8 171.4 120.3Z" fill="url(#paint10_linear_1_248)"></path>
  <path d="M121.6 64.9L133.2 72.5C139.755 62.556 149.651 55.2847 161.1 52L157.3 38.6C142.67 42.8801 130.024 52.1959 121.6 64.9Z" fill="url(#paint11_linear_1_248)"></path>
  <path d="M220.8 119.9L218.2 146.3L220.8 172.7L223.4 146.3L220.8 119.9Z" fill="url(#paint12_linear_1_248)"></path>
  <path d="M242.3 146.3L220.8 144.3L199.3 146.3L220.8 148.4L242.3 146.3Z" fill="url(#paint13_linear_1_248)"></path>
  <path d="M141.7 2.5L139.4 26.2L141.7 50L144.1 26.2L141.7 2.5Z" fill="url(#paint14_linear_1_248)"></path>
  <path d="M161.1 26.2L141.7 24.3L122.4 26.2L141.7 28.1L161.1 26.2Z" fill="url(#paint15_linear_1_248)"></path>
  <path d="M100.1 104L97.8 127.2L100.1 150.5L102.3 127.2L100.1 104Z" fill="url(#paint16_linear_1_248)"></path>
  <path d="M119 127.2L100.1 125.4L81.1 127.2L100.1 129.1L119 127.2Z" fill="url(#paint17_linear_1_248)"></path>
  </g>
  <defs>
  <linearGradient id="paint0_linear_1_248" x1="137.5" y1="198.13" x2="137.5" y2="16.37" gradientUnits="userSpaceOnUse">
  <stop stop-color="#157F94"></stop>
  <stop offset="0.04" stop-color="#1B8197"></stop>
  <stop offset="0.1" stop-color="#2B859E"></stop>
  <stop offset="0.16" stop-color="#468CAB"></stop>
  <stop offset="0.2" stop-color="#5B92B5"></stop>
  <stop offset="0.34" stop-color="#A3DEFF"></stop>
  <stop offset="0.4" stop-color="#7EB0D1"></stop>
  <stop offset="0.48" stop-color="#486C8D"></stop>
  <stop offset="0.54" stop-color="#264162"></stop>
  <stop offset="0.57" stop-color="#193152"></stop>
  <stop offset="0.6" stop-color="#304E6D"></stop>
  <stop offset="0.81" stop-color="#AEE9FF"></stop>
  <stop offset="0.98" stop-color="#5DACC2"></stop>
  </linearGradient>
  <linearGradient id="paint1_linear_1_248" x1="134.16" y1="168.36" x2="99.28" y2="133.47" gradientUnits="userSpaceOnUse">
  <stop stop-color="#3C6D93" stop-opacity="0"></stop>
  <stop offset="0.1" stop-color="#336386" stop-opacity="0.33"></stop>
  <stop offset="0.23" stop-color="#295977" stop-opacity="0.69"></stop>
  <stop offset="0.33" stop-color="#23526E" stop-opacity="0.92"></stop>
  <stop offset="0.39" stop-color="#21506B"></stop>
  <stop offset="0.49" stop-color="#265873" stop-opacity="0.94"></stop>
  <stop offset="0.63" stop-color="#346E89" stop-opacity="0.76"></stop>
  <stop offset="0.79" stop-color="#4B93AD" stop-opacity="0.46"></stop>
  <stop offset="0.98" stop-color="#6AC6DF" stop-opacity="0.06"></stop>
  <stop offset="1" stop-color="#6FCDE6" stop-opacity="0"></stop>
  </linearGradient>
  <linearGradient id="paint2_linear_1_248" x1="198.769" y1="26.9169" x2="247.567" y2="68.5938" gradientUnits="userSpaceOnUse">
  <stop stop-color="#5BA9BD" stop-opacity="0"></stop>
  <stop offset="0.02" stop-color="#65AFC2" stop-opacity="0.08"></stop>
  <stop offset="0.1" stop-color="#8AC6D4" stop-opacity="0.35"></stop>
  <stop offset="0.18" stop-color="#A9D9E4" stop-opacity="0.58"></stop>
  <stop offset="0.25" stop-color="#C1E8EF" stop-opacity="0.76"></stop>
  <stop offset="0.31" stop-color="#D2F2F8" stop-opacity="0.89"></stop>
  <stop offset="0.36" stop-color="#DCF9FD" stop-opacity="0.97"></stop>
  <stop offset="0.39" stop-color="#E0FBFF"></stop>
  <stop offset="0.45" stop-color="#DEFAFE" stop-opacity="0.98"></stop>
  <stop offset="0.52" stop-color="#D7F7FD" stop-opacity="0.92"></stop>
  <stop offset="0.6" stop-color="#CCF3FB" stop-opacity="0.82"></stop>
  <stop offset="0.68" stop-color="#BCECF7" stop-opacity="0.68"></stop>
  <stop offset="0.76" stop-color="#A8E4F3" stop-opacity="0.51"></stop>
  <stop offset="0.85" stop-color="#90DAED" stop-opacity="0.29"></stop>
  <stop offset="0.94" stop-color="#74CFE7" stop-opacity="0.04"></stop>
  <stop offset="0.96" stop-color="#6FCDE6" stop-opacity="0"></stop>
  </linearGradient>
  <linearGradient id="paint3_linear_1_248" x1="218.22" y1="143.22" x2="134.9" y2="59.9" gradientUnits="userSpaceOnUse">
  <stop offset="0.08" stop-color="#22476E"></stop>
  <stop offset="0.16" stop-color="#264D73"></stop>
  <stop offset="0.27" stop-color="#315E82"></stop>
  <stop offset="0.39" stop-color="#44799B"></stop>
  <stop offset="0.52" stop-color="#5EA0BD"></stop>
  <stop offset="0.66" stop-color="#7FD1E8"></stop>
  <stop offset="1" stop-color="#E0FFF3"></stop>
  </linearGradient>
  <linearGradient id="paint4_linear_1_248" x1="145.434" y1="153.789" x2="198.798" y2="157.536" gradientUnits="userSpaceOnUse">
  <stop stop-color="#437799"></stop>
  <stop offset="0.1" stop-color="#5D91B1"></stop>
  <stop offset="0.29" stop-color="#8ABFDB"></stop>
  <stop offset="0.44" stop-color="#A6DBF5"></stop>
  <stop offset="0.53" stop-color="#B0E6FF"></stop>
  <stop offset="1" stop-color="#22476E"></stop>
  </linearGradient>
  <linearGradient id="paint5_linear_1_248" x1="235.028" y1="112.169" x2="222.563" y2="60.1535" gradientUnits="userSpaceOnUse">
  <stop stop-color="#22476E"></stop>
  <stop offset="0.1" stop-color="#4E6F8F"></stop>
  <stop offset="0.25" stop-color="#8EA9BF"></stop>
  <stop offset="0.37" stop-color="#BCD3E2"></stop>
  <stop offset="0.47" stop-color="#D8ECF7"></stop>
  <stop offset="0.53" stop-color="#E3F6FF"></stop>
  <stop offset="1" stop-color="#5C9DB9"></stop>
  </linearGradient>
  <linearGradient id="paint6_linear_1_248" x1="134.37" y1="59.37" x2="218.62" y2="143.62" gradientUnits="userSpaceOnUse">
  <stop stop-color="#23476E"></stop>
  <stop offset="0.11" stop-color="#254970"></stop>
  <stop offset="0.17" stop-color="#2D5177"></stop>
  <stop offset="0.22" stop-color="#3A5F83"></stop>
  <stop offset="0.27" stop-color="#4D7294"></stop>
  <stop offset="0.3" stop-color="#658BAB"></stop>
  <stop offset="0.34" stop-color="#82AAC6"></stop>
  <stop offset="0.37" stop-color="#A5CEE6"></stop>
  <stop offset="0.38" stop-color="#B7E1F7"></stop>
  <stop offset="0.49" stop-color="#6DB1DE"></stop>
  <stop offset="0.52" stop-color="#71B3DF"></stop>
  <stop offset="0.54" stop-color="#7CB9E1"></stop>
  <stop offset="0.57" stop-color="#8EC3E6"></stop>
  <stop offset="0.59" stop-color="#A8D1EB"></stop>
  <stop offset="0.62" stop-color="#CAE3F3"></stop>
  <stop offset="0.64" stop-color="#F3F8FC"></stop>
  <stop offset="0.65" stop-color="white"></stop>
  <stop offset="0.73" stop-color="#9DDAF6"></stop>
  <stop offset="1" stop-color="#AFE9FF"></stop>
  </linearGradient>
  <linearGradient id="paint7_linear_1_248" x1="188.56" y1="113.56" x2="160.83" y2="85.83" gradientUnits="userSpaceOnUse">
  <stop stop-color="#3D77A1"></stop>
  <stop offset="0.08" stop-color="#326694"></stop>
  <stop offset="0.17" stop-color="#2B5B8C"></stop>
  <stop offset="0.28" stop-color="#29588A"></stop>
  <stop offset="0.43" stop-color="#376E9D"></stop>
  <stop offset="0.74" stop-color="#5BA6CF"></stop>
  <stop offset="1" stop-color="#7CDBFE"></stop>
  </linearGradient>
  <linearGradient id="paint8_linear_1_248" x1="185.5" y1="159.68" x2="233.52" y2="111.66" gradientUnits="userSpaceOnUse">
  <stop stop-color="#A3DFF9"></stop>
  <stop offset="0.13" stop-color="#A5E0F9"></stop>
  <stop offset="0.21" stop-color="#AEE3F9"></stop>
  <stop offset="0.27" stop-color="#BBE7FA"></stop>
  <stop offset="0.32" stop-color="#CFEEFB"></stop>
  <stop offset="0.37" stop-color="#E9F6FC"></stop>
  <stop offset="0.4" stop-color="#FDFDFD"></stop>
  <stop offset="0.42" stop-color="#E8F5FA"></stop>
  <stop offset="0.45" stop-color="#CEEBF7"></stop>
  <stop offset="0.49" stop-color="#B9E4F4"></stop>
  <stop offset="0.53" stop-color="#AADEF2"></stop>
  <stop offset="0.58" stop-color="#A2DBF1"></stop>
  <stop offset="0.66" stop-color="#9FDAF1"></stop>
  <stop offset="0.67" stop-color="#ACDFF3"></stop>
  <stop offset="0.68" stop-color="#CAEBF7"></stop>
  <stop offset="0.7" stop-color="#E1F4FB"></stop>
  <stop offset="0.71" stop-color="#F2FAFD"></stop>
  <stop offset="0.73" stop-color="#FCFEFF"></stop>
  <stop offset="0.75" stop-color="white"></stop>
  <stop offset="0.76" stop-color="#E2F4FB"></stop>
  <stop offset="0.77" stop-color="#C9EBF7"></stop>
  <stop offset="0.78" stop-color="#B5E3F4"></stop>
  <stop offset="0.79" stop-color="#A7DEF2"></stop>
  <stop offset="0.8" stop-color="#9FDBF1"></stop>
  <stop offset="0.82" stop-color="#9DDAF1"></stop>
  <stop offset="0.84" stop-color="#9DDAF1"></stop>
  <stop offset="1" stop-color="#9DDAF1"></stop>
  </linearGradient>
  <linearGradient id="paint9_linear_1_248" x1="160.65" y1="85.48" x2="167.95" y2="92.78" gradientUnits="userSpaceOnUse">
  <stop stop-color="white"></stop>
  <stop offset="0.17" stop-color="#FDFEFE" stop-opacity="0.99"></stop>
  <stop offset="0.3" stop-color="#F7FBFC" stop-opacity="0.95"></stop>
  <stop offset="0.42" stop-color="#EEF6F9" stop-opacity="0.89"></stop>
  <stop offset="0.53" stop-color="#E0EFF4" stop-opacity="0.8"></stop>
  <stop offset="0.64" stop-color="#CEE7ED" stop-opacity="0.68"></stop>
  <stop offset="0.74" stop-color="#B8DCE5" stop-opacity="0.53"></stop>
  <stop offset="0.84" stop-color="#9ECFDB" stop-opacity="0.36"></stop>
  <stop offset="0.93" stop-color="#81C0D1" stop-opacity="0.17"></stop>
  <stop offset="1" stop-color="#67B3C7" stop-opacity="0"></stop>
  </linearGradient>
  <linearGradient id="paint10_linear_1_248" x1="189.701" y1="115.08" x2="181.332" y2="106.71" gradientUnits="userSpaceOnUse">
  <stop stop-color="#7CDBFE"></stop>
  <stop offset="0.03" stop-color="#79D5F8" stop-opacity="0.95"></stop>
  <stop offset="0.19" stop-color="#68B8DD" stop-opacity="0.7"></stop>
  <stop offset="0.34" stop-color="#5AA0C5" stop-opacity="0.49"></stop>
  <stop offset="0.49" stop-color="#4E8BB2" stop-opacity="0.31"></stop>
  <stop offset="0.64" stop-color="#457CA3" stop-opacity="0.18"></stop>
  <stop offset="0.77" stop-color="#3E7098" stop-opacity="0.08"></stop>
  <stop offset="0.9" stop-color="#3A6991" stop-opacity="0.02"></stop>
  <stop offset="1" stop-color="#39678F" stop-opacity="0"></stop>
  </linearGradient>
  <linearGradient id="paint11_linear_1_248" x1="129.67" y1="66.11" x2="153.95" y2="46.27" gradientUnits="userSpaceOnUse">
  <stop stop-color="#22476E"></stop>
  <stop offset="0.38" stop-color="#07101A"></stop>
  <stop offset="0.5" stop-color="#091420"></stop>
  <stop offset="0.65" stop-color="#0F1F31"></stop>
  <stop offset="0.83" stop-color="#19324E"></stop>
  <stop offset="1" stop-color="#24476E"></stop>
  </linearGradient>
  <linearGradient id="paint12_linear_1_248" x1="220.81" y1="172.75" x2="220.81" y2="119.94" gradientUnits="userSpaceOnUse">
  <stop stop-color="white" stop-opacity="0"></stop>
  <stop offset="0.06" stop-color="white" stop-opacity="0.02"></stop>
  <stop offset="0.12" stop-color="white" stop-opacity="0.07"></stop>
  <stop offset="0.19" stop-color="white" stop-opacity="0.15"></stop>
  <stop offset="0.25" stop-color="white" stop-opacity="0.26"></stop>
  <stop offset="0.32" stop-color="white" stop-opacity="0.41"></stop>
  <stop offset="0.38" stop-color="white" stop-opacity="0.59"></stop>
  <stop offset="0.44" stop-color="white" stop-opacity="0.8"></stop>
  <stop offset="0.5" stop-color="white"></stop>
  <stop offset="0.56" stop-color="white" stop-opacity="0.8"></stop>
  <stop offset="0.62" stop-color="white" stop-opacity="0.59"></stop>
  <stop offset="0.68" stop-color="white" stop-opacity="0.41"></stop>
  <stop offset="0.75" stop-color="white" stop-opacity="0.26"></stop>
  <stop offset="0.81" stop-color="white" stop-opacity="0.15"></stop>
  <stop offset="0.88" stop-color="white" stop-opacity="0.07"></stop>
  <stop offset="0.94" stop-color="white" stop-opacity="0.02"></stop>
  <stop offset="1" stop-color="white" stop-opacity="0"></stop>
  </linearGradient>
  <linearGradient id="paint13_linear_1_248" x1="199.29" y1="146.35" x2="242.33" y2="146.35" gradientUnits="userSpaceOnUse">
  <stop stop-color="white" stop-opacity="0"></stop>
  <stop offset="0.04" stop-color="white" stop-opacity="0.04"></stop>
  <stop offset="0.11" stop-color="white" stop-opacity="0.13"></stop>
  <stop offset="0.2" stop-color="white" stop-opacity="0.29"></stop>
  <stop offset="0.3" stop-color="white" stop-opacity="0.5"></stop>
  <stop offset="0.41" stop-color="white" stop-opacity="0.78"></stop>
  <stop offset="0.5" stop-color="white"></stop>
  <stop offset="0.51" stop-color="white" stop-opacity="0.93"></stop>
  <stop offset="0.55" stop-color="white" stop-opacity="0.74"></stop>
  <stop offset="0.59" stop-color="white" stop-opacity="0.56"></stop>
  <stop offset="0.63" stop-color="white" stop-opacity="0.41"></stop>
  <stop offset="0.67" stop-color="white" stop-opacity="0.28"></stop>
  <stop offset="0.71" stop-color="white" stop-opacity="0.18"></stop>
  <stop offset="0.76" stop-color="white" stop-opacity="0.1"></stop>
  <stop offset="0.82" stop-color="white" stop-opacity="0.04"></stop>
  <stop offset="0.89" stop-color="white" stop-opacity="0.01"></stop>
  <stop offset="1" stop-color="white" stop-opacity="0"></stop>
  </linearGradient>
  <linearGradient id="paint14_linear_1_248" x1="141.74" y1="49.96" x2="141.74" y2="2.47" gradientUnits="userSpaceOnUse">
  <stop stop-color="white" stop-opacity="0"></stop>
  <stop offset="0.06" stop-color="white" stop-opacity="0.02"></stop>
  <stop offset="0.12" stop-color="white" stop-opacity="0.07"></stop>
  <stop offset="0.19" stop-color="white" stop-opacity="0.15"></stop>
  <stop offset="0.25" stop-color="white" stop-opacity="0.26"></stop>
  <stop offset="0.32" stop-color="white" stop-opacity="0.41"></stop>
  <stop offset="0.38" stop-color="white" stop-opacity="0.59"></stop>
  <stop offset="0.44" stop-color="white" stop-opacity="0.8"></stop>
  <stop offset="0.5" stop-color="white"></stop>
  <stop offset="0.56" stop-color="white" stop-opacity="0.8"></stop>
  <stop offset="0.62" stop-color="white" stop-opacity="0.59"></stop>
  <stop offset="0.68" stop-color="white" stop-opacity="0.41"></stop>
  <stop offset="0.75" stop-color="white" stop-opacity="0.26"></stop>
  <stop offset="0.81" stop-color="white" stop-opacity="0.15"></stop>
  <stop offset="0.88" stop-color="white" stop-opacity="0.07"></stop>
  <stop offset="0.94" stop-color="white" stop-opacity="0.02"></stop>
  <stop offset="1" stop-color="white" stop-opacity="0"></stop>
  </linearGradient>
  <linearGradient id="paint15_linear_1_248" x1="122.39" y1="26.22" x2="161.1" y2="26.22" gradientUnits="userSpaceOnUse">
  <stop stop-color="white" stop-opacity="0"></stop>
  <stop offset="0.04" stop-color="white" stop-opacity="0.04"></stop>
  <stop offset="0.11" stop-color="white" stop-opacity="0.13"></stop>
  <stop offset="0.2" stop-color="white" stop-opacity="0.29"></stop>
  <stop offset="0.3" stop-color="white" stop-opacity="0.5"></stop>
  <stop offset="0.41" stop-color="white" stop-opacity="0.78"></stop>
  <stop offset="0.5" stop-color="white"></stop>
  <stop offset="0.51" stop-color="white" stop-opacity="0.93"></stop>
  <stop offset="0.55" stop-color="white" stop-opacity="0.74"></stop>
  <stop offset="0.59" stop-color="white" stop-opacity="0.56"></stop>
  <stop offset="0.63" stop-color="white" stop-opacity="0.41"></stop>
  <stop offset="0.67" stop-color="white" stop-opacity="0.28"></stop>
  <stop offset="0.71" stop-color="white" stop-opacity="0.18"></stop>
  <stop offset="0.76" stop-color="white" stop-opacity="0.1"></stop>
  <stop offset="0.82" stop-color="white" stop-opacity="0.04"></stop>
  <stop offset="0.89" stop-color="white" stop-opacity="0.01"></stop>
  <stop offset="1" stop-color="white" stop-opacity="0"></stop>
  </linearGradient>
  <linearGradient id="paint16_linear_1_248" x1="100.05" y1="150.49" x2="100.05" y2="103.98" gradientUnits="userSpaceOnUse">
  <stop stop-color="white" stop-opacity="0"></stop>
  <stop offset="0.06" stop-color="white" stop-opacity="0.02"></stop>
  <stop offset="0.12" stop-color="white" stop-opacity="0.07"></stop>
  <stop offset="0.19" stop-color="white" stop-opacity="0.15"></stop>
  <stop offset="0.25" stop-color="white" stop-opacity="0.26"></stop>
  <stop offset="0.32" stop-color="white" stop-opacity="0.41"></stop>
  <stop offset="0.38" stop-color="white" stop-opacity="0.59"></stop>
  <stop offset="0.44" stop-color="white" stop-opacity="0.8"></stop>
  <stop offset="0.5" stop-color="white"></stop>
  <stop offset="0.56" stop-color="white" stop-opacity="0.8"></stop>
  <stop offset="0.62" stop-color="white" stop-opacity="0.59"></stop>
  <stop offset="0.68" stop-color="white" stop-opacity="0.41"></stop>
  <stop offset="0.75" stop-color="white" stop-opacity="0.26"></stop>
  <stop offset="0.81" stop-color="white" stop-opacity="0.15"></stop>
  <stop offset="0.88" stop-color="white" stop-opacity="0.07"></stop>
  <stop offset="0.94" stop-color="white" stop-opacity="0.02"></stop>
  <stop offset="1" stop-color="white" stop-opacity="0"></stop>
  </linearGradient>
  <linearGradient id="paint17_linear_1_248" x1="81.1" y1="127.23" x2="119.01" y2="127.23" gradientUnits="userSpaceOnUse">
  <stop stop-color="white" stop-opacity="0"></stop>
  <stop offset="0.04" stop-color="white" stop-opacity="0.04"></stop>
  <stop offset="0.11" stop-color="white" stop-opacity="0.13"></stop>
  <stop offset="0.2" stop-color="white" stop-opacity="0.29"></stop>
  <stop offset="0.3" stop-color="white" stop-opacity="0.5"></stop>
  <stop offset="0.41" stop-color="white" stop-opacity="0.78"></stop>
  <stop offset="0.5" stop-color="white"></stop>
  <stop offset="0.51" stop-color="white" stop-opacity="0.93"></stop>
  <stop offset="0.55" stop-color="white" stop-opacity="0.74"></stop>
  <stop offset="0.59" stop-color="white" stop-opacity="0.56"></stop>
  <stop offset="0.63" stop-color="white" stop-opacity="0.41"></stop>
  <stop offset="0.67" stop-color="white" stop-opacity="0.28"></stop>
  <stop offset="0.71" stop-color="white" stop-opacity="0.18"></stop>
  <stop offset="0.76" stop-color="white" stop-opacity="0.1"></stop>
  <stop offset="0.82" stop-color="white" stop-opacity="0.04"></stop>
  <stop offset="0.89" stop-color="white" stop-opacity="0.01"></stop>
  <stop offset="1" stop-color="white" stop-opacity="0"></stop>
  </linearGradient>
  <clipPath id="clip0_1_248">
  <rect width="275" height="200" fill="white"></rect>
  </clipPath>
  </defs>
  </svg>
