<svg xmlns:xlink="http://www.w3.org/1999/xlink" width="60" height="61" viewBox="0 0 60 61" fill="none" xmlns="http://www.w3.org/2000/svg">
<path d="M30.0059 60.0845C46.5742 60.0845 60.0055 46.6532 60.0055 30.0848C60.0055 13.5165 46.5742 0.0852051 30.0059 0.0852051C13.4375 0.0852051 0.0062561 13.5165 0.0062561 30.0848C0.0062561 46.6532 13.4375 60.0845 30.0059 60.0845Z" fill="#F06000"/>
<path d="M30.0055 30.0846L18.5253 2.36841C10.8717 5.53882 5.22763 11.5111 2.28934 18.6043L30.0055 30.0846Z" fill="#FFAE4E"/>
<path d="M8.79276 8.87237L30.0055 30.0852H30.0078L12.0342 6.06079C10.8883 6.91988 9.80514 7.85944 8.79276 8.87237Z" fill="#FFEF8F"/>
<path d="M2.29117 18.6023L30.0055 30.0841L8.79273 8.87134C6.00669 11.6562 3.79543 14.9617 2.28482 18.5997L2.29117 18.6023Z" fill="#FFD58F"/>
<path d="M30.0055 30.0842V60.0842C46.5741 60.0842 60.0055 46.6528 60.0055 30.0842H30.0055Z" fill="#F06000"/>
<path d="M57.7217 41.5649L30.0055 30.0842L51.2183 51.297C54.0044 48.5123 56.2155 45.2067 57.7259 41.5686L57.7217 41.5649Z" fill="#DB4D00"/>
<path d="M57.7225 18.606L30.0055 30.0856H60.0048C60.0063 26.146 59.2328 22.2447 57.7285 18.6038L57.7225 18.606Z" fill="#DB4D00"/>
<path d="M8.79496 51.2984L30.0055 30.0852L2.29041 41.5677C3.79731 45.2072 6.00529 48.5147 8.7886 51.3021L8.79496 51.2984Z" fill="#D93500"/>
<path d="M0.00739136 30.0853H30.0055L2.28932 18.6057C0.781073 22.2446 0.00317742 26.1447 -9.15527e-05 30.0838L0.00739136 30.0853Z" fill="#F79B52"/>
<path d="M30.0055 30.0842V60.0842C38.29 60.0842 45.7899 56.7262 51.2187 51.2974L30.0055 30.0842Z" fill="#A92600"/>
<path d="M30.0059 56.0296C44.3349 56.0296 55.9508 44.4137 55.9508 30.0848C55.9508 15.7558 44.3349 4.13989 30.0059 4.13989C15.6769 4.13989 4.06104 15.7558 4.06104 30.0848C4.06104 44.4137 15.6769 56.0296 30.0059 56.0296Z" fill="#A62900"/>
<path d="M4.06107 30.0842C4.06107 44.4135 15.6771 56.0295 30.0059 56.0295C44.3348 56.0295 55.9512 44.4135 55.9512 30.0842H4.06107Z" fill="#FFA645"/>
<path d="M30.0055 30.0842V56.0295C44.3348 56.0295 55.9508 44.4135 55.9508 30.0842H30.0055Z" fill="#FFE1AE"/>
<path d="M30.0059 54.1956C43.3217 54.1956 54.1162 43.401 54.1162 30.0852C54.1162 16.7694 43.3217 5.97485 30.0059 5.97485C16.6901 5.97485 5.89554 16.7694 5.89554 30.0852C5.89554 43.401 16.6901 54.1956 30.0059 54.1956Z" fill="black"/>
<path d="M30.0059 53.6686C43.0308 53.6686 53.5896 43.1098 53.5896 30.0849C53.5896 17.06 43.0308 6.50122 30.0059 6.50122C16.981 6.50122 6.42224 17.06 6.42224 30.0849C6.42224 43.1098 16.981 53.6686 30.0059 53.6686Z" fill="url(#paint0_linear_2_3)"/>
<path d="M45.2102 32.4171C45.2166 34.2202 44.8599 36.0063 44.1613 37.6687C43.4629 39.331 42.4368 40.8356 41.1442 42.0927C38.5277 44.6509 35.0306 46.0612 31.2954 46.0612C25.0851 46.0612 19.7083 42.1129 17.9567 36.3679H15.1511L14.981 35.58L13.7061 29.6791L13.4444 28.4669H18.0274C18.2363 27.8532 18.4852 27.2539 18.7727 26.6728H13.0691L12.8991 25.8856L11.623 19.9858L11.3614 18.7737H30.9101C34.8722 18.7737 38.5105 20.1813 41.1517 22.7358C43.77 25.2663 45.2102 28.7043 45.2102 32.4171Z" fill="black"/>
<path d="M44.8867 31.5911C44.8867 35.1932 43.4704 38.5662 40.9 41.0851C38.3347 43.5943 34.903 44.9751 31.237 44.9751C27.7578 44.9751 24.5463 43.7128 22.1119 41.5804C20.2474 39.9524 18.876 37.8349 18.1532 35.4676H15.3992L13.7254 27.718H18.2219C18.4259 27.1156 18.6702 26.5275 18.953 25.9579H13.3587L11.6823 18.2083H30.8629C38.8569 18.2064 44.8867 23.9611 44.8867 31.5911Z" fill="#AC350E"/>
<path d="M36.5716 23.218L38.4779 20.2277C36.3099 18.9408 33.7133 18.2063 30.8636 18.2063H11.683L17.9027 23.2183L36.5716 23.218Z" fill="#B94C01"/>
<path d="M42.5027 39.1899L39.3682 37.0754L31.2389 40.8633L18.9022 34.4836H16.1935L15.401 35.4652H18.155C18.8779 37.8325 20.2492 39.9501 22.1138 41.578C24.5486 43.7086 27.7597 44.9727 31.2389 44.9727C34.9049 44.9727 38.3366 43.5919 40.9018 41.0827C41.4926 40.5025 42.0286 39.8688 42.5027 39.1899Z" fill="#8C2E0E"/>
<path d="M31.2366 39.4219C35.5618 39.4219 39.0681 35.9157 39.0681 31.5905C39.0681 27.2653 35.5618 23.759 31.2366 23.759C26.9114 23.759 23.4052 27.2653 23.4052 31.5905C23.4052 35.9157 26.9114 39.4219 31.2366 39.4219Z" fill="#581601"/>
<path d="M33.8523 24.2095C33.0122 23.9118 32.1272 23.7601 31.2359 23.761C26.9105 23.761 23.4044 27.2674 23.4044 31.5924C23.4044 31.6807 23.4082 31.7681 23.4112 31.8541L31.2359 31.5924L33.8523 24.2095Z" fill="#3B0E00"/>
<path d="M39.0617 31.3264L31.237 31.5881L28.6224 38.9732C29.4626 39.2708 30.3475 39.4225 31.2389 39.4218C35.5639 39.4218 39.0703 35.9157 39.0703 31.5903C39.0684 31.5013 39.0647 31.4139 39.0617 31.3264Z" fill="#8A2100"/>
<path d="M36.4474 35.6471L31.2388 31.5901L33.5334 37.7829L34.6413 38.6456C35.5024 38.2285 36.2799 37.6576 36.9356 36.9609L36.4474 35.6471Z" fill="#A12800"/>
<path d="M34.3629 31.5901C34.3629 33.3678 33.0293 34.6925 31.237 34.6925C29.4447 34.6925 28.1111 33.3693 28.1111 31.5901C28.1111 29.8109 29.4447 28.4877 31.237 28.4877C33.0293 28.4877 34.3629 29.8124 34.3629 31.5901ZM43.9071 31.5901C43.9071 35.3533 42.2355 38.6986 39.5742 40.9641C37.3528 42.8551 34.4414 43.9917 31.2389 43.9917C27.9149 43.9917 24.919 42.7788 22.6737 40.772C20.8073 39.107 19.4919 36.9134 18.9023 34.4828H16.1935L14.942 28.6948H18.9415C19.3134 27.3729 19.8899 26.1174 20.65 24.9738H14.1485L12.8982 19.1858H30.861C38.4472 19.1869 43.9071 24.6856 43.9071 31.5901ZM37.9052 31.5901C37.9052 27.9102 34.946 24.9742 31.237 24.9742C27.528 24.9742 24.5684 27.9095 24.5684 31.5901C24.5684 35.2707 27.5276 38.206 31.237 38.206C34.9464 38.206 37.9052 35.2696 37.9052 31.5901Z" fill="#D66B1F"/>
<path d="M13.7254 27.7161L14.9409 28.6954L16.1912 34.4837L15.3992 35.4657L13.7254 27.7161Z" fill="#A92600"/>
<path d="M13.7254 27.7161H18.2216L18.9419 28.6954H14.9409L13.7254 27.7161Z" fill="#B94C01"/>
<path d="M13.3583 25.9557L14.1489 24.9749H20.6508L18.9527 25.9557H13.3583Z" fill="#8C2E0E"/>
<path d="M13.3583 25.9559L14.1489 24.9751L12.8986 19.1867L11.6823 18.2063L13.3583 25.9559Z" fill="#A92600"/>
<path d="M32.3677 19.2629L13.9362 23.989L14.1493 24.9751H20.6508C19.8904 26.1182 19.3137 27.3734 18.9415 28.6949H14.942L15.3532 30.6012L25.646 27.9619C26.8313 26.1566 28.8822 24.9717 31.237 24.9717C32.322 24.969 33.3916 25.2286 34.3547 25.7282L41.2753 23.9535C39.2266 21.3845 36.1081 19.6349 32.3677 19.2629Z" fill="#E78A34"/>
<path d="M43.8771 32.4133L37.4279 34.0669C36.4479 36.5025 34.0605 38.2047 31.237 38.2047C29.7062 38.2108 28.2196 37.6918 27.0252 36.7342L20.6026 38.3811C21.1872 39.2637 21.8826 40.0677 22.6718 40.7733C23.5687 41.5727 24.5757 42.2393 25.662 42.7525L41.6875 38.6431C42.9765 36.8074 43.7342 34.6518 43.8771 32.4133Z" fill="#CB5C0C"/>
<defs>
<linearGradient id="paint0_linear_2_3" x1="30.0059" y1="6.76885" x2="30.0059" y2="52.9588" gradientUnits="userSpaceOnUse">
<stop stop-color="#7A1E00"/>
<stop offset="1" stop-color="#260800"/>
</linearGradient>
</defs>
</svg>