<svg xmlns:xlink="http://www.w3.org/1999/xlink" width="78" height="69" viewBox="0 0 78 69" fill="none" xmlns="http://www.w3.org/2000/svg">
<path d="M74.4443 23.2971L57.0111 35.3003L63.8831 45.3435L73.1925 40.9287C78.0804 37.1311 74.4443 23.2971 74.4443 23.2971Z" fill="#35005E"/>
<path d="M77.7709 32.5441C77.4188 26.7131 74.4443 23.2971 74.4443 23.2971L75.0887 26.9146C75.486 30.0872 75.6591 34.7288 74.0443 38.3011L76.8739 39.6878L77.4076 39.9416C77.4076 39.9416 78.1257 38.3553 77.7623 32.5261L77.7709 32.5441Z" fill="#7E1CC7"/>
<path d="M74.0557 38.3101L63.8832 45.3439L65.3783 45.6344L77.4186 39.9499L74.0545 38.3L74.0557 38.3101Z" fill="#51008F"/>
<path d="M4.18708 23.2971C4.18708 23.2971 0.55132 37.1311 5.43589 40.9298L14.7486 45.3435L21.6202 35.2992L4.18708 23.2971Z" fill="#35005E"/>
<path d="M4.57584 38.31C2.96372 34.7288 3.13417 30.0693 3.53449 26.8963L4.17851 23.2971C4.17851 23.2971 1.21256 26.715 0.86046 32.5441C0.508359 38.3732 1.21256 39.9599 1.21256 39.9599L1.73585 39.7057L4.57397 38.319L4.57584 38.31Z" fill="#7E1CC7"/>
<path d="M4.57582 38.3101L14.7486 45.3439L13.2535 45.6344L1.21329 39.9499L4.57731 38.3L4.57582 38.3101Z" fill="#51008F"/>
<path d="M39.3196 64.0628C55.8882 64.0628 69.3196 50.6313 69.3196 34.0628C69.3196 17.4942 55.8882 4.06274 39.3196 4.06274C22.7511 4.06274 9.31958 17.4942 9.31958 34.0628C9.31958 50.6313 22.7511 64.0628 39.3196 64.0628Z" fill="#381DB5"/>
<path d="M39.3199 34.0631L27.8377 6.34692C20.1842 9.51733 14.5401 15.4896 11.6022 22.5828L39.3199 34.0631Z" fill="#5523CC"/>
<path d="M18.1064 12.8499L39.32 34.0627H39.3222L21.3482 10.0383C20.2023 10.8974 19.1189 11.837 18.1064 12.8499Z" fill="#603DEB"/>
<path d="M11.6053 22.581L39.32 34.0617L18.1072 12.8489C15.3212 15.6337 13.1099 18.9392 11.5993 22.5773L11.6053 22.581Z" fill="#5523CC"/>
<path d="M39.32 34.0627V64.0628C55.8882 64.0628 69.3196 50.6313 69.3196 34.0627H39.32Z" fill="#351299"/>
<path d="M67.0358 45.5438L39.3207 34.0627L60.5335 55.2755C63.3197 52.4908 65.5309 49.1853 67.0414 45.5472L67.0358 45.5438Z" fill="#351299"/>
<path d="M67.0362 22.5835L39.3203 34.0631H69.32C69.3209 30.1235 68.547 26.2223 67.0425 22.5813L67.0362 22.5835Z" fill="#351299"/>
<path d="M18.1087 55.2769L39.3203 34.0637L11.6053 45.5463C13.1122 49.1858 15.3202 52.4934 18.1034 55.281L18.1087 55.2769Z" fill="#351299"/>
<path d="M9.32145 34.0628H39.3203L11.6041 22.5833C10.0958 26.2222 9.31805 30.1222 9.31509 34.0613L9.32145 34.0628Z" fill="#381DB5"/>
<path d="M39.32 34.0627V64.0628C47.6041 64.0628 55.104 60.7047 60.5328 55.2759L39.32 34.0627Z" fill="#351299"/>
<path d="M39.32 34.0627V64.0628C31.0355 64.0628 23.5356 60.7047 18.1068 55.2759L39.32 34.0627Z" fill="#351299"/>
<path d="M39.3195 60.0081C53.6485 60.0081 65.2644 48.3922 65.2644 34.0633C65.2644 19.7343 53.6485 8.11841 39.3195 8.11841C24.9906 8.11841 13.3747 19.7343 13.3747 34.0633C13.3747 48.3922 24.9906 60.0081 39.3195 60.0081Z" fill="#230054"/>
<path d="M13.3747 34.0627C13.3747 48.392 24.9907 60.008 39.32 60.008C53.6492 60.008 65.2648 48.392 65.2648 34.0627H13.3747Z" fill="#603DEB"/>
<path d="M39.32 34.0627V60.008C53.6489 60.008 65.2648 48.392 65.2648 34.0627H39.32Z" fill="#8259E3"/>
<path d="M39.3196 58.1731C52.6354 58.1731 63.43 47.3785 63.43 34.0627C63.43 20.747 52.6354 9.95239 39.3196 9.95239C26.0038 9.95239 15.2093 20.747 15.2093 34.0627C15.2093 47.3785 26.0038 58.1731 39.3196 58.1731Z" fill="black"/>
<path d="M39.3197 57.6471C52.3446 57.6471 62.9034 47.0883 62.9034 34.0634C62.9034 21.0385 52.3446 10.4797 39.3197 10.4797C26.2948 10.4797 15.736 21.0385 15.736 34.0634C15.736 47.0883 26.2948 57.6471 39.3197 57.6471Z" fill="#381DB5"/>
<path d="M39.3263 57.6475C52.3532 57.6475 62.9137 47.0871 62.9137 34.0601C62.9137 21.0331 52.3532 10.4727 39.3263 10.4727C26.2993 10.4727 15.7388 21.0331 15.7388 34.0601C15.7388 47.0871 26.2993 57.6475 39.3263 57.6475Z" fill="#4129D9"/>
<path d="M39.3262 57.6479L32.5821 47.918H46.0707L39.3262 57.6479Z" fill="#09047D"/>
<path d="M39.3262 10.4727L34.3516 15.1195L39.3262 18.553L44.3012 15.1195L39.3262 10.4727Z" fill="#6F19CC"/>
<path d="M46.0707 47.918L39.3266 57.6478C42.6071 57.6515 45.852 56.9687 48.8528 55.6433L46.0707 47.918Z" fill="#010059"/>
<path d="M46.0707 47.918L48.8528 55.6433C51.2344 54.5894 53.4253 53.1488 55.3368 51.3799L46.0707 47.918Z" fill="#010070"/>
<path d="M55.3382 51.3805L58.8095 41.6719L46.0707 47.9178L55.3382 51.3805Z" fill="#180699"/>
<path d="M55.3394 51.3775C58.1363 48.7928 60.2665 45.5698 61.5482 41.9836L58.8099 41.6719L55.3394 51.3775Z" fill="#05007A"/>
<path d="M58.8099 41.6718L61.5483 41.9836C62.3971 39.6007 62.856 37.0964 62.9073 34.5674L58.8099 41.6718Z" fill="#200E94"/>
<path d="M53.0589 36.8662L58.8095 41.6719L46.0707 47.9178L53.0589 36.8662Z" fill="#3418A3"/>
<path d="M53.059 36.8661L57.1556 25.8896L62.9084 34.5651L53.059 36.8661Z" fill="#4814AA"/>
<path d="M53.0589 36.8665L57.1555 25.89L48.35 22.7305L53.0589 36.8665Z" fill="#5E19AF"/>
<path d="M54.2882 15.8242L57.1555 25.8894L48.35 22.7298L54.2882 15.8242Z" fill="#490DC2"/>
<path d="M54.2884 15.825L44.3081 15.1152L39.3263 18.5536L48.3501 22.7306L54.2884 15.825Z" fill="#4C19C9"/>
<path d="M54.2887 15.8252L57.1556 25.8892L61.746 26.7146C60.3453 22.45 57.7585 18.6728 54.2887 15.8252Z" fill="#5B1CC1"/>
<path d="M61.746 26.715L57.1556 25.8896L62.9073 34.564C62.9111 34.3965 62.9137 34.2276 62.9137 34.0605C62.9157 31.5656 62.5216 29.0862 61.746 26.715Z" fill="#641CA1"/>
<path d="M53.059 36.8654L58.8096 41.6711L62.9084 34.5645L53.059 36.8654Z" fill="#23038A"/>
<path d="M53.059 36.8665L46.3246 30.4479L48.3501 22.7305L53.059 36.8665Z" fill="#5F13A3"/>
<path d="M39.3263 29.734L48.3501 22.7305L46.3246 30.4479L39.3263 29.734Z" fill="#6B1EAD"/>
<path d="M39.3263 29.7344L44.1174 38.4547L53.059 36.8669L46.3246 30.4483L39.3263 29.7344Z" fill="#3E12A9"/>
<path d="M44.1173 38.4536L53.0589 36.8658L46.3245 30.4473L44.1173 38.4536Z" fill="#3104A3"/>
<path d="M44.1174 38.454L46.0708 47.9178L53.059 36.8662L44.1174 38.454Z" fill="#3C17AD"/>
<path d="M46.0708 47.9172L39.3263 43.1855L32.5822 47.9172H46.0708Z" fill="#2B14AE"/>
<path d="M46.0707 47.9179L39.3262 43.1862L44.1173 38.4541L46.0707 47.9179Z" fill="#2203A3"/>
<path d="M39.3199 10.4773L44.3013 15.1193L54.2872 15.8242C50.0746 12.3573 44.7865 10.4649 39.3307 10.4717L39.3199 10.4773Z" fill="#7629D3"/>
<path d="M32.5687 47.918L39.3128 57.6478C36.0324 57.6515 32.7876 56.9687 29.787 55.6433L32.5687 47.918Z" fill="#010059"/>
<path d="M32.5687 47.918L29.787 55.6433C27.4054 54.5895 25.2145 53.1489 23.303 51.3799L32.5687 47.918Z" fill="#010070"/>
<path d="M23.3011 51.3805L19.8298 41.6719L32.5686 47.9178L23.3011 51.3805Z" fill="#180699"/>
<path d="M23.3 51.3775C20.503 48.7928 18.3728 45.5698 17.0911 41.9836L19.8298 41.6719L23.3 51.3775Z" fill="#05007A"/>
<path d="M19.8298 41.6718L17.0911 41.9836C16.2425 39.6006 15.7835 37.0964 15.7321 34.5674L19.8298 41.6718Z" fill="#200E94"/>
<path d="M25.5801 36.8662L19.8298 41.6719L32.5686 47.9178L25.5801 36.8662Z" fill="#3418A3"/>
<path d="M25.5801 36.8661L21.4838 25.8896L15.731 34.5651L25.5801 36.8661Z" fill="#4814AA"/>
<path d="M25.58 36.8665L21.4838 25.89L30.2893 22.7305L25.58 36.8665Z" fill="#5E19AF"/>
<path d="M24.351 15.8242L21.4838 25.8894L30.2893 22.7298L24.351 15.8242Z" fill="#490DC2"/>
<path d="M24.3512 15.825L34.3315 15.1152L39.3133 18.5536L30.2895 22.7306L24.3512 15.825Z" fill="#4C19C9"/>
<path d="M24.3511 15.8252L21.4835 25.8892L16.8934 26.7146C18.2942 22.4499 20.8811 18.6727 24.3511 15.8252Z" fill="#5B1CC1"/>
<path d="M16.8938 26.715L21.4838 25.8896L15.7321 34.564C15.7287 34.3965 15.7257 34.2276 15.7257 34.0605C15.7238 31.5656 16.1181 29.0862 16.8938 26.715Z" fill="#641CA1"/>
<path d="M25.5801 36.8654L19.8298 41.6711L15.731 34.5645L25.5801 36.8654Z" fill="#23038A"/>
<path d="M25.5801 36.8665L32.3148 30.4479L30.2893 22.7305L25.5801 36.8665Z" fill="#5F13A3"/>
<path d="M39.3132 29.734L30.2894 22.7305L32.3149 30.4479L39.3132 29.734Z" fill="#6B1EAD"/>
<path d="M39.3132 29.7344L34.522 38.4547L25.5801 36.8669L32.3148 30.4483L39.3132 29.7344Z" fill="#3E12A9"/>
<path d="M34.522 38.4536L25.5801 36.8658L32.3148 30.4473L34.522 38.4536Z" fill="#3104A3"/>
<path d="M34.522 38.454L32.5686 47.9178L25.5801 36.8662L34.522 38.454Z" fill="#3C17AD"/>
<path d="M32.5687 47.9179L39.3132 43.1862L34.522 38.4541L32.5687 47.9179Z" fill="#2203A3"/>
<path d="M39.3199 10.4773L34.3382 15.1193L24.3522 15.8242C28.5649 12.3574 33.8529 10.465 39.3087 10.4717L39.3199 10.4773Z" fill="#7629D3"/>
<path d="M39.3265 18.5527L48.35 22.7297L39.3265 29.7333L30.3027 22.7297L39.3265 18.5527Z" fill="#3F03B4"/>
<path d="M39.3266 29.7344L34.5355 38.4547L39.3266 43.1867L44.1174 38.4547L39.3266 29.7344Z" fill="#38039E"/>
<path d="M54.5257 36.3946C54.5322 38.1978 54.1756 39.9838 53.4772 41.6462C52.7786 43.3086 51.7523 44.8133 50.4597 46.0706C47.8432 48.6284 44.3457 50.0387 40.6105 50.0387C34.4002 50.0387 29.0233 46.0905 27.2722 40.3455H24.4666L24.2961 39.5575L23.0216 33.6566L22.7599 32.4445H27.3428C27.5514 31.8307 27.8003 31.2313 28.0878 30.6503H22.3805L22.2104 29.8631L20.9366 23.9634L20.675 22.7512H40.2237C44.1876 22.7512 47.8245 24.1589 50.4671 26.7133C53.0836 29.2438 54.5257 32.6818 54.5257 36.3946Z" fill="black"/>
<path d="M56.918 50.1286L57.3829 55.2621L60.5193 53.0321L58.2105 48.7083L56.918 50.1286Z" fill="#000002"/>
<path d="M38.9723 10.343L43.1617 10.6603L45.164 8.77835L43.3698 4.33373C42.8335 4.26084 42.4556 4.35952 41.902 4.31429L38.9731 10.352L38.9723 10.343Z" fill="#000002"/>
<path d="M21.2328 55.2636L22.3284 56.1607L26.3076 54.4017L24.4911 52.6614L21.2392 55.2633L21.2328 55.2636Z" fill="#000002"/>
<path d="M54.2091 35.5725C54.2091 39.1746 52.7929 42.5476 50.2224 45.0642C47.6571 47.5738 44.2254 48.9546 40.5594 48.9546C37.0802 48.9546 33.8687 47.6923 31.4339 45.5599C29.5696 43.9317 28.1983 41.8142 27.4752 39.4471H24.7216L23.0478 31.6975H27.544C27.7481 31.0951 27.9923 30.5071 28.2751 29.9373H22.6796L21.0036 22.1877H40.1838C48.1793 22.1877 54.2091 27.9425 54.2091 35.5725Z" fill="#3C28F9"/>
<path d="M45.8941 27.2004L47.8004 24.2101C45.6324 22.9232 43.0358 22.1887 40.1857 22.1887H21.0055L27.2249 27.2007L45.8941 27.2004Z" fill="#7E13CF"/>
<path d="M51.8248 43.1714L48.6902 41.0569L40.559 44.8448L28.2243 38.4651H25.5151L24.7231 39.4466H27.4767C28.1998 41.8138 29.5711 43.9313 31.4354 45.5594C33.8706 47.69 37.0817 48.9541 40.5609 48.9541C44.2269 48.9541 47.6586 47.5734 50.2239 45.0638C50.8149 44.4839 51.3508 43.8503 51.8248 43.1714Z" fill="#381DB5"/>
<path d="M40.5591 43.4034C44.8842 43.4034 48.3905 39.8971 48.3905 35.5719C48.3905 31.2467 44.8842 27.7405 40.5591 27.7405C36.2339 27.7405 32.7276 31.2467 32.7276 35.5719C32.7276 39.8971 36.2339 43.4034 40.5591 43.4034Z" fill="#120760"/>
<path d="M43.1748 28.189C42.3346 27.8913 41.4496 27.7396 40.5583 27.7405C36.2333 27.7405 32.7272 31.2469 32.7272 35.5719C32.7272 35.6601 32.731 35.7476 32.7336 35.8336L40.5583 35.5719L43.1748 28.189Z" fill="#150538"/>
<path d="M48.3842 35.3079L40.5591 35.5695L37.9426 42.9521C38.7828 43.2496 39.6677 43.4013 40.5591 43.4006C44.8845 43.4006 48.3905 39.8945 48.3905 35.5691C48.3905 35.4828 48.3868 35.3953 48.3842 35.3079Z" fill="#381078"/>
<path d="M45.7696 39.6293L40.5591 35.5715L42.8537 41.7643L43.9616 42.627C44.8227 42.21 45.6004 41.639 46.2562 40.9424L45.7696 39.6293Z" fill="#6400B0"/>
<path d="M43.6861 35.5718C43.6861 37.3495 42.3525 38.6741 40.5602 38.6741C38.7679 38.6741 37.4346 37.351 37.4346 35.5718C37.4346 33.7926 38.7683 32.4694 40.5602 32.4694C42.3521 32.4694 43.6861 33.7937 43.6861 35.5718ZM53.2302 35.5718C53.2302 39.335 51.5591 42.6803 48.8977 44.9458C46.676 46.8368 43.765 47.9734 40.5602 47.9734C37.2365 47.9734 34.2407 46.7601 31.9954 44.7537C30.1286 43.0894 28.8128 40.8963 28.2228 38.4659H25.5136L24.2633 32.6776H28.2628C28.635 31.3557 29.2116 30.1002 29.9717 28.9566H23.4702L22.2195 23.1682H40.1827C47.7697 23.1682 53.2291 28.6673 53.2291 35.5718H53.2302ZM47.2288 35.5718C47.2288 31.8919 44.2696 28.9558 40.5602 28.9558C36.8508 28.9558 33.8919 31.8911 33.8919 35.5718C33.8919 39.2524 36.8512 42.1877 40.5602 42.1877C44.2692 42.1877 47.2277 39.2509 47.2277 35.5718H47.2288Z" fill="#A172FF"/>
<path d="M23.0479 31.6985L24.2634 32.6778L25.5137 38.4662L24.7213 39.4481L23.0479 31.6985Z" fill="#3131FF"/>
<path d="M23.0479 31.6985H27.5441L28.2643 32.6778H24.2634L23.0479 31.6985Z" fill="#7E13CF"/>
<path d="M22.6807 29.9375L23.4713 28.9563H29.9728L28.2751 29.9375H22.6807Z" fill="#1E0087"/>
<path d="M22.6807 29.9373L23.4713 28.9562L22.221 23.1682L21.0043 22.1877L22.6807 29.9373Z" fill="#3131FF"/>
<path d="M41.6897 23.2444L23.2586 27.9705L23.4716 28.9565H29.9732C29.213 30.1001 28.6364 31.3556 28.2643 32.6775H24.2648L24.676 34.5838L34.9691 31.9445C36.154 30.1391 38.2053 28.9543 40.5598 28.9543C41.6448 28.9515 42.7144 29.211 43.6775 29.7108L50.5984 27.9361C48.549 25.3656 45.4305 23.6163 41.6897 23.2444Z" fill="#D48BFF"/>
<path d="M53.1995 36.3948L46.7511 38.0484C45.7714 40.4839 43.384 42.1861 40.5601 42.1861C39.0294 42.1924 37.5429 41.6734 36.3487 40.7157L29.9257 42.3626C30.5104 43.2452 31.206 44.0491 31.9953 44.7548C32.8921 45.5543 33.8992 46.2208 34.9856 46.7339L51.0107 42.6246C52.2993 40.7888 53.0567 38.6332 53.1995 36.3948Z" fill="#A699FF"/>
<path d="M33.0006 0.115479L32.5894 1.31718C26.8205 2.92182 21.2896 7.51633 17.0401 11.7655C12.7906 16.0146 8.18151 21.5563 6.57426 27.3301L5.37292 27.7412L6.19524 29.0143L11.0245 27.8321C11.0693 27.6282 11.1182 27.4311 11.171 27.2407C13.7572 16.5379 22.3067 8.13718 33.091 5.76554L34.2729 0.936674L33.0006 0.115479Z" fill="#A222F0"/>
<path d="M14.9193 9.64689C9.91474 14.6514 6.6393 20.9235 5.38788 27.7379L10.05 26.5934C11.4091 21.5238 14.0779 16.4265 17.8886 12.614C21.6993 8.80139 26.7902 6.13821 31.8557 4.77839L33.0002 0.115479C26.1895 1.36877 19.9212 4.64308 14.9193 9.64689Z" fill="#EF91FF"/>
<path d="M45.625 0.115479L46.0361 1.31718C51.8047 2.92182 57.3359 7.51633 61.5854 11.7655C65.8349 16.0146 70.444 21.5563 72.049 27.3301L73.2504 27.7412L72.4281 29.0143L67.5992 27.8321C67.5543 27.6282 67.5055 27.4311 67.4527 27.2407C64.8665 16.5379 56.317 8.13718 45.5327 5.76554L44.3519 0.937796L45.625 0.115479Z" fill="#A222F0"/>
<path d="M73.2376 27.7379C71.9862 20.9224 68.7112 14.6503 63.7062 9.64689C58.7013 4.64346 52.4364 1.36877 45.625 0.115479L46.7699 4.77839C51.835 6.13821 56.9288 8.80625 60.7365 12.614C64.5443 16.4217 67.2164 21.5223 68.5751 26.5934" fill="#EF91FF"/>
<path d="M45.625 67.9899L46.0361 66.7882C51.8047 65.1836 57.3359 60.5891 61.5854 56.3399C65.8349 52.0908 70.444 46.5491 72.049 40.7753L73.2503 40.3642L72.428 39.0911L67.5992 40.2733C67.5543 40.4769 67.5055 40.674 67.4526 40.8647C64.8664 51.5675 56.317 59.9682 45.5326 62.3398L44.3504 67.1687L45.625 67.9899Z" fill="#E857FF"/>
<path d="M63.7067 58.4623C68.7112 53.4574 71.9863 47.1854 73.2381 40.3713L68.5755 41.5159C67.2168 46.5851 64.5477 51.6827 60.737 55.4934C56.9263 59.3041 51.8346 61.9669 46.7699 63.3267L45.625 67.9896C52.4364 66.7371 58.7044 63.4628 63.7067 58.4623Z" fill="#AB2DF5"/>
<path d="M33.0005 67.9899L32.5894 66.7882C26.8204 65.1836 21.2896 60.5891 17.0401 56.3399C12.7906 52.0908 8.18148 46.5491 6.57423 40.7753L5.37289 40.3642L6.19521 39.0911L11.0245 40.2733C11.0693 40.4769 11.1182 40.674 11.171 40.8647C13.7572 51.5675 22.3067 59.9682 33.091 62.3398L34.2729 67.1687L33.0005 67.9899Z" fill="#E857FF"/>
<path d="M31.856 63.3274C26.7905 61.9676 21.697 59.2995 17.8889 55.4914C14.0809 51.6834 11.4094 46.5835 10.0504 41.5139L5.38821 40.3694C6.63926 47.1845 9.9147 53.4566 14.9196 58.4604C19.9245 63.4642 26.1899 66.7366 33.0009 67.9892L31.856 63.3274Z" fill="#AB2DF5"/>
<path d="M23.634 61.5167L23.018 61.1803L22.8449 61.0625C17.9056 57.8452 13.8309 53.4655 10.9778 48.3073L10.8499 48.0808C10.7251 47.8449 10.5434 47.5003 10.5434 47.5003L5.90294 46.9202L4.59732 47.6636H4.60554L9.30023 49.0417C12.4438 54.7652 17.005 59.585 22.5466 63.0391L22.9982 63.3198L24.1419 68.0522L24.9198 66.9825L23.634 61.5167Z" fill="#FFD6FE"/>
<path d="M22.8165 62.5867C17.2287 59.1023 12.6524 54.2134 9.54431 48.4078L4.59732 47.6643C8.51291 56.5416 15.4294 63.7566 24.1333 68.0436L22.8165 62.5867Z" fill="#EF91FF"/>
<path d="M72.7144 46.9211L68.0739 47.5013C68.0739 47.5013 67.8922 47.8459 67.7644 48.0817L67.6366 48.3082C64.7837 53.4657 60.7101 57.8452 55.7724 61.0635L55.5993 61.1813L54.9833 61.5177L53.6949 66.9846L54.4754 68.0543L55.6161 63.3312L56.0703 63.0502C61.6111 59.596 66.1715 54.7761 69.3141 49.0528L74.0114 47.6657H74.02L72.7144 46.9211Z" fill="#FFD6FE"/>
<path d="M69.07 48.4078C65.967 54.2141 61.3932 59.1034 55.8064 62.5864L54.4922 68.0436C63.1951 63.7549 70.1112 56.5405 74.0286 47.6643L69.07 48.4078Z" fill="#EF91FF"/>
<path d="M21.236 55.2493L19.2924 53.3052L20.869 49.5629L25.0826 49.4631L24.9832 53.6771L21.236 55.2493Z" fill="#AB2DF5"/>
<path d="M22.0419 51.2856L21.3612 52.9011L21.6423 53.1822L23.2612 52.503L23.2907 51.2561L22.0419 51.2856Z" fill="#FC61FF"/>
<path d="M19.2924 53.3054L21.3613 52.9006L21.6424 53.1817L21.236 55.2495L19.2924 53.3054Z" fill="#A42DED"/>
<path d="M19.2924 53.305L20.869 49.5627L22.0419 51.2847L21.3613 52.9002L19.2924 53.305Z" fill="#CA4DFF"/>
<path d="M21.2361 55.2491L21.6424 53.1814L23.2612 52.5022L24.9832 53.677L21.2361 55.2491Z" fill="#8422D4"/>
<path d="M24.9832 53.6771L23.2612 52.5023L23.2907 51.2554L25.0826 49.4631L24.9832 53.6771Z" fill="#CA4DFF"/>
<path d="M23.2907 51.2554L22.0419 51.2849L20.869 49.5629L25.0826 49.4631L23.2907 51.2554Z" fill="white"/>
<path d="M41.6449 0.117432H36.9693L34.3644 6.51506L39.3125 11.7031L44.261 6.51506L41.6449 0.117432Z" fill="#EF91FF"/>
<path d="M37.8462 5.85451L38.9705 3.09302H39.647L40.777 5.85675L39.3125 7.39187L37.8462 5.85451Z" fill="white"/>
<path d="M36.9693 0.117432L38.9705 3.0931H39.647L41.6449 0.117432H36.9693Z" fill="#FC61FF"/>
<path d="M36.9693 0.117432L34.3644 6.51506L37.8462 5.85459L38.9705 3.0931L36.9693 0.117432Z" fill="#EBA3FF"/>
<path d="M41.6449 0.117432L39.647 3.0931L40.777 5.85683L44.261 6.51506L41.6449 0.117432Z" fill="#CA4DFF"/>
<path d="M44.261 6.51492L40.777 5.85669L39.3125 7.39181V11.703L44.261 6.51492Z" fill="#8422D4"/>
<path d="M39.3125 7.3921L37.8462 5.85474L34.3644 6.51521L39.3125 11.7033V7.3921Z" fill="#FC61FF"/>
<path d="M37.5148 67.0938H41.1195L43.1275 62.1618L39.313 58.1624L35.4982 62.1618L37.5148 67.0938Z" fill="#AB2DF5"/>
<path d="M40.4433 62.6718L39.5766 64.8005H39.0551L38.1842 62.67L39.3131 61.4866L40.4433 62.6718Z" fill="white"/>
<path d="M41.1195 67.0939L39.5765 64.8H39.0551L37.5147 67.0939H41.1195Z" fill="#CA4DFF"/>
<path d="M41.1195 67.0934L43.1275 62.1614L40.4433 62.6708L39.5766 64.7995L41.1195 67.0934Z" fill="#FC61FF"/>
<path d="M37.5148 67.0934L39.0551 64.7995L38.1842 62.669L35.4982 62.1614L37.5148 67.0934Z" fill="#FC61FF"/>
<path d="M35.4982 62.1618L38.1842 62.6694L39.313 61.486V58.1624L35.4982 62.1618Z" fill="#FDC4FF"/>
<path d="M39.313 61.486L40.4433 62.6713L43.1274 62.1618L39.313 58.1624V61.486Z" fill="#CA4DFF"/>
<path d="M57.3892 55.2493L59.3329 53.3052L57.7563 49.5629L53.5426 49.4631L53.6421 53.6771L57.3892 55.2493Z" fill="#AB2DF5"/>
<path d="M56.5834 51.2856L57.2641 52.9011L56.983 53.1822L55.3642 52.503L55.3346 51.2561L56.5834 51.2856Z" fill="#EBA3FF"/>
<path d="M59.3329 53.3054L57.264 52.9006L56.9829 53.1817L57.3892 55.2495L59.3329 53.3054Z" fill="#8422D4"/>
<path d="M59.3329 53.305L57.7563 49.5627L56.5834 51.2847L57.2641 52.9002L59.3329 53.305Z" fill="#CA4DFF"/>
<path d="M57.3892 55.2491L56.9829 53.1814L55.3641 52.5022L53.6421 53.677L57.3892 55.2491Z" fill="#A42DED"/>
<path d="M53.6421 53.6771L55.3641 52.5023L55.3346 51.2554L53.5426 49.4631L53.6421 53.6771Z" fill="#FDC4FF"/>
<path d="M55.3346 51.2554L56.5834 51.2849L57.7563 49.5629L53.5426 49.4631L55.3346 51.2554Z" fill="#FC61FF"/>
</svg>