<svg xmlns:xlink="http://www.w3.org/1999/xlink" width="84" height="69" viewBox="0 0 84 69" fill="none" xmlns="http://www.w3.org/2000/svg">
<path d="M6.05842 22.4807L5.0253 29.4248L22.1318 37.6835L22.5122 32.9787L6.05842 22.4807Z" fill="#00592E"/>
<path d="M6.54947 19.7893L6.9924 23.5245L22.5121 32.9811L22.8486 32.0112L6.54947 19.7893Z" fill="#00C73B"/>
<path d="M0.682654 26.6604C0.682654 26.6604 -0.513443 31.0116 1.73559 36.261C3.98463 41.5103 5.33473 42.5614 5.33473 42.5614L18.8338 43.7575L19.5859 42.5614L0.682654 26.6604Z" fill="#003236"/>
<path d="M17.9169 42.8251L7.67348 39.5706L5.32315 42.5619L18.8223 49.3431L17.9169 42.8251Z" fill="#002909"/>
<path d="M0.682648 26.6604C0.682648 26.6604 2.54183 38.8625 8.68679 39.9139L18.7516 43.6491L22.3959 37.5191L0.682648 26.6604Z" fill="#00592E"/>
<path d="M12.3428 32.5254L0.680817 26.6604C0.680817 26.6604 3.87103 32.1449 10.127 34.6107C10.879 34.9097 11.6057 35.1819 12.3039 35.4357C12.2953 34.4638 12.2953 33.4957 12.3293 32.5254H12.3428Z" fill="#228250"/>
<path d="M12.3312 36.242L2.55875 32.6428C2.55875 32.6428 4.13722 35.8611 9.16943 37.7558C10.1487 38.1273 11.2357 38.4719 12.3597 38.7982L12.3312 36.242Z" fill="#228250"/>
<path d="M6.99247 23.5144L6.54954 19.7795C6.54954 19.7795 3.62022 20.714 3.43034 28.0293L6.22323 29.4163C6.22323 29.4163 5.64985 25.8987 7.00069 23.5054L6.99247 23.5144Z" fill="#40A100"/>
<path d="M77.6867 22.4807L78.7198 29.4248L61.613 37.6835L61.2328 32.9787L77.6867 22.4807Z" fill="#00592E"/>
<path d="M60.8979 32.0092L61.2343 32.9792L76.7544 23.5225L77.1969 19.7874L60.8979 32.0092Z" fill="#00C73B"/>
<path d="M83.0623 26.6604C83.0623 26.6604 84.2584 31.0116 82.0094 36.261C79.7603 41.5103 78.4106 42.5614 78.4106 42.5614L64.9115 43.7575L64.1591 42.5614L83.0623 26.6604Z" fill="#003236"/>
<path d="M65.828 42.8251L76.0714 39.5706L78.4217 42.5619L64.9223 49.3431L65.828 42.8251Z" fill="#002909"/>
<path d="M83.0623 26.6604C83.0623 26.6604 81.2035 38.8625 75.0586 39.9139L64.9938 43.6491L61.349 37.5191L83.0623 26.6604Z" fill="#00592E"/>
<path d="M71.4138 32.5254C71.4478 33.4972 71.4478 34.4657 71.4396 35.4357C72.1378 35.1819 72.8645 34.9101 73.6165 34.6107C79.8721 32.1438 83.0623 26.6604 83.0623 26.6604L71.4026 32.5254H71.4138Z" fill="#228250"/>
<path d="M71.4138 36.242L81.1863 32.6428C81.1863 32.6428 79.6082 35.8611 74.5745 37.7546C73.5952 38.1262 72.5079 38.4708 71.3839 38.7971L71.4138 36.242Z" fill="#228250"/>
<path d="M76.7443 23.5054C78.0955 25.8976 77.5221 29.4163 77.5221 29.4163L80.315 28.0293C80.1248 20.7132 77.1954 19.7795 77.1954 19.7795L76.7529 23.5144L76.7443 23.5054Z" fill="#40A100"/>
<path d="M41.8795 64.0628C58.448 64.0628 71.8795 50.6313 71.8795 34.0628C71.8795 17.4942 58.448 4.06274 41.8795 4.06274C25.3109 4.06274 11.8795 17.4942 11.8795 34.0628C11.8795 50.6313 25.3109 64.0628 41.8795 64.0628Z" fill="#004A37"/>
<path d="M41.8795 34.0631L30.3992 6.34692C22.7456 9.51733 17.1015 15.4896 14.1632 22.5828L41.8795 34.0631Z" fill="#005C4D"/>
<path d="M20.6664 12.8504L41.8796 34.0632H41.8818L23.9082 10.0403C22.7623 10.8989 21.679 11.8379 20.6664 12.8504Z" fill="#006656"/>
<path d="M14.1648 22.5809L41.8799 34.0615L20.6671 12.8499C17.881 15.6346 15.6699 18.9401 14.1596 22.5782L14.1648 22.5809Z" fill="#005C4D"/>
<path d="M41.8795 34.0627V64.0628C58.4481 64.0628 71.8795 50.6313 71.8795 34.0627H41.8795Z" fill="#003236"/>
<path d="M69.5954 45.5438L41.8803 34.0627L63.0931 55.2755C65.8792 52.4909 68.0903 49.1853 69.6006 45.5472L69.5954 45.5438Z" fill="#00292B"/>
<path d="M69.5957 22.5835L41.8803 34.0631H71.8795C71.881 30.1236 71.1075 26.2223 69.6032 22.5813L69.5957 22.5835Z" fill="#003236"/>
<path d="M20.6686 55.2769L41.8799 34.0637L14.1648 45.5463C15.6717 49.1858 17.8795 52.4934 20.6626 55.281L20.6686 55.2769Z" fill="#003236"/>
<path d="M11.881 34.0628H41.8803L14.1641 22.5833C12.6558 26.2222 11.8779 30.1222 11.8747 34.0613L11.881 34.0628Z" fill="#004A37"/>
<path d="M41.8795 34.0627V64.0628C50.164 64.0628 57.6639 60.7047 63.0927 55.2759L41.8795 34.0627Z" fill="#00292B"/>
<path d="M41.8795 34.0627V64.0628C33.5954 64.0628 26.0955 60.7047 20.6664 55.2759L41.8795 34.0627Z" fill="#003236"/>
<path d="M41.8796 60.0081C56.2085 60.0081 67.8244 48.3922 67.8244 34.0633C67.8244 19.7343 56.2085 8.11841 41.8796 8.11841C27.5506 8.11841 15.9347 19.7343 15.9347 34.0633C15.9347 48.3922 27.5506 60.0081 41.8796 60.0081Z" fill="#002408"/>
<path d="M38.93 63.4573L40.4711 61.9797H45.3217L46.144 63.1672L49.7995 61.6082V58.4778L34.7687 60.8928L38.9468 63.4494L38.93 63.4573Z" fill="#000002"/>
<path d="M15.9347 34.0627C15.9347 48.392 27.5507 60.008 41.8795 60.008C56.2084 60.008 67.8248 48.392 67.8248 34.0627H15.9347Z" fill="#1E751B"/>
<path d="M41.8795 34.0627V60.008C56.2088 60.008 67.8248 48.392 67.8248 34.0627H41.8795Z" fill="#1D8802"/>
<path d="M41.8795 58.1731C55.1953 58.1731 65.9899 47.3785 65.9899 34.0627C65.9899 20.747 55.1953 9.95239 41.8795 9.95239C28.5637 9.95239 17.7692 20.747 17.7692 34.0627C17.7692 47.3785 28.5637 58.1731 41.8795 58.1731Z" fill="black"/>
<path d="M41.8795 57.6471C54.9044 57.6471 65.4632 47.0883 65.4632 34.0634C65.4632 21.0385 54.9044 10.4797 41.8795 10.4797C28.8546 10.4797 18.2958 21.0385 18.2958 34.0634C18.2958 47.0883 28.8546 57.6471 41.8795 57.6471Z" fill="#228250"/>
<path d="M41.8781 57.6475C45.9989 57.6543 50.0489 56.5769 53.6216 54.5234L41.8819 47.7061L41.868 57.6486L41.8781 57.6475Z" fill="#00290B"/>
<path d="M41.8777 20.4736L30.0861 27.2817V40.8978L41.8777 47.7058L53.6698 40.8978V27.2817L41.8777 20.4736Z" fill="#00480E"/>
<path d="M30.0861 40.8975H53.6698L41.8777 47.7055L30.0861 40.8975Z" fill="#002E0C"/>
<path d="M53.6698 27.2812V40.8973L65.4603 34.1117L65.4614 34.0893L53.6698 27.2812Z" fill="#013702"/>
<path d="M41.8777 47.7055L30.0861 40.8975V54.5135L41.8777 47.7055Z" fill="#002000"/>
<path d="M21.4569 45.8599C23.5297 49.4404 26.505 52.4149 30.086 54.4868V40.8965L21.4569 45.8599Z" fill="#003301"/>
<path d="M30.0861 13.665V27.2811L41.8777 20.4731L30.0861 13.665Z" fill="#044403"/>
<path d="M30.086 27.2812V40.8973L18.294 34.0893L30.086 27.2812Z" fill="#003801"/>
<path d="M41.8777 47.7055L53.6697 40.8975L53.6215 54.5229L41.8777 47.7055Z" fill="#001D00"/>
<path d="M53.6697 13.665V27.2811L41.8777 20.4731L53.6697 13.665Z" fill="#003401"/>
<path d="M41.8781 10.4795V20.4733L53.6698 13.6652L53.6731 13.6413C50.0892 11.5653 46.0199 10.4744 41.8781 10.4795Z" fill="#004203"/>
<path d="M62.3359 22.3037L53.6698 27.281L65.4461 34.1156L65.4689 34.1066C65.4839 29.9648 64.403 25.8928 62.3359 22.3037Z" fill="#065909"/>
<path d="M62.3018 45.9328L53.6697 40.8965L53.608 54.5122L53.6271 54.5271C57.226 52.4774 60.2188 49.5122 62.3018 45.9324V45.9328Z" fill="#023201"/>
<path d="M41.8642 57.6467L41.878 47.7041L30.0834 54.4927C33.6642 56.5629 37.7281 57.6509 41.8642 57.6467Z" fill="#011906"/>
<path d="M21.4229 45.8793L30.0861 40.8961L18.3056 34.0693L18.2832 34.0783C18.2705 38.2199 19.3538 42.2912 21.4229 45.8789V45.8793Z" fill="#002801"/>
<path d="M21.4315 22.2847L30.086 27.2814V13.6653L30.067 13.6504C26.4776 15.7164 23.4987 18.6953 21.4326 22.2847H21.4315Z" fill="#0A620B"/>
<path d="M53.6697 27.2815L62.3243 22.3102C60.2593 18.7256 57.2907 15.7448 53.7146 13.665H53.6697V27.2815Z" fill="#013D00"/>
<path d="M62.2683 45.9131C64.356 42.3301 65.4575 38.2581 65.4607 34.1113L53.6698 40.8962L62.2683 45.9131Z" fill="#014002"/>
<path d="M30.086 27.2814L21.4427 22.291C19.3759 25.8689 18.2898 29.929 18.2944 34.061L18.3056 34.07L30.086 27.2814Z" fill="#044D04"/>
<path d="M41.8781 10.4795C37.738 10.4745 33.6702 11.5645 30.0872 13.6387V13.6652L41.8792 20.4733L41.8781 10.4795Z" fill="#065C16"/>
<path d="M41.8777 20.4736V34.0897L53.6697 27.2817L41.8777 20.4736Z" fill="#024F18"/>
<path d="M57.0838 36.3946C57.0903 38.1978 56.7336 39.9839 56.035 41.6463C55.3364 43.3087 54.3101 44.8134 53.0175 46.0706C50.401 48.6284 46.9039 50.0387 43.1684 50.0387C36.9584 50.0387 31.5812 46.0905 29.83 40.3455H27.0244L26.8543 39.5575L25.5794 33.6566L25.3177 32.4445H29.9006C30.1092 31.8306 30.3582 31.2313 30.646 30.6503H24.9417L24.7716 29.8631L23.4967 23.9634L23.235 22.7512H42.7837C46.7458 22.7512 50.3842 24.1589 53.0253 26.7133C55.6437 29.2438 57.0838 32.6818 57.0838 36.3946Z" fill="black"/>
<path d="M48.1856 11.1641L51.1878 12.0712L53.2174 10.7204L51.3392 5.58613C49.1011 4.84367 46.783 4.36902 44.4332 4.17212L48.1856 11.1641Z" fill="black"/>
<path d="M56.7688 35.5725C56.7688 39.1746 55.3525 42.5476 52.7821 45.0642C50.2168 47.5738 46.7851 48.9546 43.1194 48.9546C39.6399 48.9546 36.4288 47.6923 33.994 45.5599C32.1294 43.9319 30.7581 41.8144 30.0353 39.4471H27.2812L25.6093 31.6975H30.1059C30.3098 31.095 30.5541 30.507 30.837 29.9373H25.2408L23.5644 22.1877H42.7449C50.739 22.1877 56.7688 27.9425 56.7688 35.5725Z" fill="#005438"/>
<path d="M48.4537 27.1994L50.36 24.2092C48.192 22.9222 45.5954 22.1877 42.7457 22.1877H23.5644L29.7841 27.1998L48.4537 27.1994Z" fill="#008704"/>
<path d="M54.3849 43.1714L51.2507 41.0569L43.1195 44.8448L30.7825 38.4651H28.0737L27.2813 39.4466H30.0353C30.7583 41.8139 32.1296 43.9314 33.994 45.5594C36.4288 47.69 39.6381 48.9541 43.1195 48.9541C46.7852 48.9541 50.2168 47.5734 52.7821 45.0638C53.3739 44.484 53.9104 43.8505 54.3849 43.1714Z" fill="#317000"/>
<path d="M43.1191 43.4034C47.4443 43.4034 50.9505 39.8971 50.9505 35.5719C50.9505 31.2467 47.4443 27.7405 43.1191 27.7405C38.7939 27.7405 35.2876 31.2467 35.2876 35.5719C35.2876 39.8971 38.7939 43.4034 43.1191 43.4034Z" fill="#013E11"/>
<path d="M45.7345 28.189C44.8943 27.8913 44.0094 27.7396 43.118 27.7405C38.7926 27.7405 35.2865 31.2469 35.2865 35.5719C35.2865 35.6601 35.2903 35.7476 35.2933 35.8336L43.118 35.5719L45.7345 28.189Z" fill="#002109"/>
<path d="M50.9439 35.3079L43.1191 35.5695L40.5027 42.9521C41.3429 43.2496 42.2278 43.4013 43.1191 43.4006C47.4442 43.4006 50.9506 39.8945 50.9506 35.5691C50.9517 35.4828 50.9469 35.3953 50.9439 35.3079Z" fill="#00592E"/>
<path d="M48.3296 39.6293L43.1191 35.5715L45.4138 41.7643L46.5217 42.627C47.3827 42.21 48.1602 41.6391 48.8159 40.9424L48.3296 39.6293Z" fill="#007326"/>
<path d="M46.245 35.5708C46.245 37.3485 44.9114 38.6732 43.1191 38.6732C41.3268 38.6732 39.9932 37.35 39.9932 35.5708C39.9932 33.7916 41.3268 32.4684 43.1191 32.4684C44.9114 32.4684 46.245 33.7927 46.245 35.5708ZM55.7891 35.5708C55.7891 39.334 54.1176 42.6793 51.4563 44.9448C49.2349 46.8358 46.3235 47.9725 43.121 47.9725C39.7973 47.9725 36.8011 46.7592 34.5558 44.7527C32.689 43.0883 31.3729 40.8953 30.7825 38.465H28.0737L26.8234 32.6766H30.8228C31.1947 31.3547 31.7712 30.0992 32.5314 28.9556H26.0313L24.781 23.1672H42.7438C50.3293 23.1672 55.7891 28.6663 55.7891 35.5708ZM49.7873 35.5708C49.7873 31.8909 46.8285 28.9549 43.1191 28.9549C39.4097 28.9549 36.4508 31.8902 36.4508 35.5708C36.4508 39.2514 39.4097 42.1867 43.1191 42.1867C46.8285 42.1867 49.7873 39.2499 49.7873 35.5708Z" fill="#49EC12"/>
<path d="M25.6075 31.6975L26.823 32.6768L28.0733 38.4652L27.2813 39.4471L25.6075 31.6975Z" fill="#1EAD02"/>
<path d="M25.6075 31.6975H30.1037L30.824 32.6768H26.823L25.6075 31.6975Z" fill="#008704"/>
<path d="M25.2408 29.9375L26.0314 28.9563H32.5329L30.8352 29.9375H25.2408Z" fill="#003D3A"/>
<path d="M25.2408 29.9373L26.0313 28.9562L24.781 23.1682L23.5644 22.1877L25.2408 29.9373Z" fill="#1EAD02"/>
<path d="M44.2498 23.2444L25.8183 27.9705L26.0314 28.9565H32.5329C31.7727 30.1001 31.1962 31.3556 30.8244 32.6775H26.8249L27.2361 34.5838L37.5293 31.9445C38.7142 30.1391 40.7651 28.9543 43.1199 28.9543C44.2049 28.9515 45.2745 29.2111 46.2376 29.7108L53.157 27.9383C51.1087 25.3656 47.9903 23.6163 44.2498 23.2444Z" fill="#CCFB4B"/>
<path d="M55.7592 36.3948L49.31 38.0484C48.3303 40.4839 45.943 42.1861 43.1191 42.1861C41.5883 42.1922 40.1017 41.6732 38.9073 40.7157L32.4846 42.3626C33.0693 43.2452 33.7647 44.0491 34.5539 44.7548C35.4508 45.5542 36.4578 46.2207 37.5441 46.7339L53.5681 42.6242C54.8577 40.7889 55.6159 38.6333 55.7592 36.3948Z" fill="#4DFF59"/>
<path d="M43.2583 60.5881L45.2334 62.5195L48.976 60.8928L49.0284 56.6575L44.7957 56.8055L43.2583 60.5881Z" fill="#9FFFFC"/>
<path d="M47.2324 59.7339L45.6169 60.4362L45.3313 60.1567L45.9952 58.5225L47.2477 58.4788L47.2324 59.7339Z" fill="#FDFF7D"/>
<path d="M45.2334 62.5205L45.6169 60.4371L45.3313 60.1575L43.2583 60.5892L45.2334 62.5205Z" fill="#00716E"/>
<path d="M45.2334 62.5194L48.9761 60.8927L47.2324 59.7336L45.6169 60.436L45.2334 62.5194Z" fill="#63D84D"/>
<path d="M43.2583 60.5886L45.3313 60.1569L45.9951 58.5227L44.7957 56.8059L43.2583 60.5886Z" fill="#63D84D"/>
<path d="M44.7957 56.8055L45.9951 58.5223L47.2477 58.4785L49.0284 56.6575L44.7957 56.8055Z" fill="white"/>
<path d="M47.2476 58.4785L47.2323 59.7337L48.976 60.8928L49.0283 56.6575L47.2476 58.4785Z" fill="#509B00"/>
<path d="M43.2501 60.5852H40.4879L38.949 56.8055L41.8724 53.7405L44.7957 56.8055L43.2501 60.5852Z" fill="#9FFFFC"/>
<path d="M41.006 57.1966L41.6702 58.8278H42.0698L42.7373 57.1951L41.8724 56.2883L41.006 57.1966Z" fill="white"/>
<path d="M40.4879 60.5853L41.6701 58.8274H42.0697L43.2501 60.5853H40.4879Z" fill="#00716E"/>
<path d="M40.488 60.5856L38.9491 56.8059L41.0061 57.1965L41.6702 58.8277L40.488 60.5856Z" fill="#509B00"/>
<path d="M43.2501 60.5856L42.0697 58.8277L42.7373 57.195L44.7957 56.8059L43.2501 60.5856Z" fill="#509B00"/>
<path d="M44.7957 56.8055L42.7373 57.1946L41.8724 56.2878V53.7405L44.7957 56.8055Z" fill="#00592E"/>
<path d="M41.8724 56.2878L41.006 57.1961L38.949 56.8055L41.8724 53.7405V56.2878Z" fill="#FDFF7D"/>
<path d="M40.4864 60.5881L38.5113 62.5195L34.7687 60.8928L34.716 56.6575L38.949 56.8055L40.4864 60.5881Z" fill="#9FFFFC"/>
<path d="M36.5124 59.7339L38.1279 60.4362L38.4134 60.1567L37.7492 58.5225L36.4967 58.4788L36.5124 59.7339Z" fill="#63D84D"/>
<path d="M38.5113 62.5205L38.1278 60.4371L38.4134 60.1575L40.4864 60.5892L38.5113 62.5205Z" fill="#63D84D"/>
<path d="M38.5114 62.5194L34.7687 60.8927L36.5124 59.7336L38.1279 60.436L38.5114 62.5194Z" fill="#509B00"/>
<path d="M40.4864 60.5886L38.4134 60.1569L37.7492 58.5227L38.949 56.8059L40.4864 60.5886Z" fill="#00592E"/>
<path d="M38.949 56.8055L37.7492 58.5223L36.4967 58.4785L34.716 56.6575L38.949 56.8055Z" fill="white"/>
<path d="M36.4967 58.4785L36.5123 59.7337L34.7687 60.8928L34.716 56.6575L36.4967 58.4785Z" fill="#CFFD59"/>
<path d="M41.8724 7.51501V11.4681L47.2817 13.6704L51.6684 9.48671L47.2817 5.30298L41.8724 7.51501Z" fill="#9FFFFC"/>
<path d="M46.7228 10.7271L44.3882 9.77654V9.20465L46.7251 8.24927L48.0229 9.48723L46.7228 10.7271Z" fill="#FDFF7D"/>
<path d="M41.8724 11.468L44.3883 9.77589V9.20401L41.8724 7.51489V11.468Z" fill="white"/>
<path d="M41.8723 11.4687L47.2817 13.671L46.7229 10.7271L44.3882 9.77661L41.8723 11.4687Z" fill="#00592E"/>
<path d="M41.8724 7.51501L44.3883 9.20413L46.7252 8.24874L47.2817 5.30298L41.8724 7.51501Z" fill="#CFFD59"/>
<path d="M47.2817 5.30298L46.7252 8.24874L48.0229 9.48671H51.6684L47.2817 5.30298Z" fill="#00592E"/>
<path d="M48.0229 9.48657L46.7229 10.7264L47.2817 13.6703L51.6684 9.48657H48.0229Z" fill="#509B00"/>
<path d="M36.463 5.30289L41.8724 0.117432L47.2817 5.30289L41.8724 7.51493L36.463 5.30289Z" fill="#FDFF7D"/>
<path d="M41.8724 0.117432V7.51493L47.2817 5.30289L41.8724 0.117432Z" fill="#509B00"/>
<path d="M41.8723 3.51685L47.2817 5.30277L41.8723 7.5148V3.51685Z" fill="#00592E"/>
<path d="M41.8724 3.51685L36.463 5.30277L41.8724 7.5148V3.51685Z" fill="#63D84D"/>
<path d="M41.8724 7.51501V11.4681L36.463 13.6704L32.0763 9.48671L36.463 5.30298L41.8724 7.51501Z" fill="#9FFFFC"/>
<path d="M37.0215 10.7271L39.3564 9.77654V9.20465L37.0196 8.24927L35.7218 9.48723L37.0215 10.7271Z" fill="#CFFD59"/>
<path d="M41.8724 11.468L39.3564 9.77589V9.20401L41.8724 7.51489V11.468Z" fill="#509B00"/>
<path d="M41.8724 11.4687L36.463 13.671L37.0215 10.7271L39.3564 9.77661L41.8724 11.4687Z" fill="#63D84D"/>
<path d="M41.8724 7.51501L39.3564 9.20413L37.0196 8.24874L36.463 5.30298L41.8724 7.51501Z" fill="#00592E"/>
<path d="M36.463 5.30298L37.0196 8.24874L35.7218 9.48671H32.0763L36.463 5.30298Z" fill="white"/>
<path d="M35.7218 9.48657L37.0214 10.7264L36.463 13.6703L32.0763 9.48657H35.7218Z" fill="#509B00"/>
<path d="M35.5604 0.115479L35.1492 1.31718C29.3807 2.92182 23.8495 7.51633 19.6 11.7655C15.3504 16.0146 10.7413 21.5563 9.13409 27.3301L7.93276 27.7412L8.75508 29.0143L13.584 27.8321C13.6288 27.6282 13.6778 27.4311 13.7308 27.2407C16.317 16.5379 24.8665 8.13718 35.6505 5.76554L36.8335 0.937796L35.5604 0.115479Z" fill="#40A100"/>
<path d="M17.4787 9.64689C12.4742 14.6514 9.19913 20.9235 7.94733 27.7379L12.6095 26.5934C13.9682 21.5238 16.6374 16.4265 20.4481 12.614C24.2587 8.80139 29.3496 6.13821 34.4147 4.77839L35.5604 0.115479C28.749 1.36877 22.481 4.64308 17.4787 9.64689Z" fill="#9FED00"/>
<path d="M48.1856 0.115479L48.5967 1.31718C54.3657 2.92182 59.8965 7.51633 64.146 11.7655C68.3955 16.0146 73.0046 21.5563 74.6119 27.3301L75.8132 27.7412L74.9909 29.0143L70.162 27.8321C70.1174 27.6282 70.0686 27.4311 70.0155 27.2407C67.4293 16.5379 58.8798 8.13718 48.0955 5.76554L46.9117 0.937796L48.1856 0.115479Z" fill="#40A100"/>
<path d="M75.7971 27.7379C74.5461 20.9224 71.2707 14.6503 66.2657 9.64689C61.2608 4.64346 54.9959 1.36877 48.1856 0.115479L49.3301 4.77839C54.3956 6.13821 59.4891 8.80625 63.2972 12.614C67.1052 16.4217 69.7767 21.5223 71.1357 26.5934" fill="#9FED00"/>
<path d="M48.1856 67.9899L48.5967 66.7882C54.3657 65.1836 59.8965 60.5891 64.146 56.3399C68.3955 52.0908 73.0046 46.5491 74.6119 40.7753L75.8132 40.3642L74.9909 39.0911L70.162 40.2733C70.1174 40.4769 70.0686 40.674 70.0155 40.8647C67.4293 51.5675 58.8798 59.9682 48.0955 62.3398L46.9136 67.1687L48.1856 67.9899Z" fill="#9FED00"/>
<path d="M66.2661 58.4623C71.2706 53.4574 74.5461 47.1854 75.7975 40.3713L71.1357 41.5132C69.7766 46.5825 67.1079 51.6801 63.2972 55.4908C59.4865 59.3015 54.3956 61.9669 49.3301 63.3267L48.1856 67.9896C54.9959 66.7371 61.2642 63.4628 66.2661 58.4623Z" fill="#509B00"/>
<path d="M35.5604 67.9899L35.1492 66.7882C29.3807 65.1836 23.8495 60.5891 19.6 56.3399C15.3504 52.0908 10.7414 46.5491 9.1341 40.7753L7.93277 40.3642L8.75509 39.0911L13.584 40.2733C13.6288 40.4769 13.6778 40.674 13.7309 40.8647C16.317 51.5675 24.8665 59.9682 35.6505 62.3398L36.8327 67.1687L35.5604 67.9899Z" fill="#9FED00"/>
<path d="M7.94815 40.3694C9.19919 47.1845 12.4743 53.4566 17.4796 58.4604C22.4849 63.4642 28.7498 66.7366 35.5612 67.9892L34.4163 63.3262C29.3512 61.9664 24.2577 59.2984 20.4496 55.4903C16.6415 51.6822 13.9698 46.582 12.6111 41.5128" fill="#509B00"/>
<path d="M26.1934 61.5169L25.5775 61.1805L25.4044 61.0628C20.465 57.8456 16.3898 53.4662 13.5361 48.3082L13.4086 48.0817C13.2838 47.8459 13.1021 47.5013 13.1021 47.5013L8.46129 46.9211L7.15567 47.6646H7.16427L11.8601 49.0431C15.0035 54.7666 19.5648 59.5865 25.1065 63.0404L25.5576 63.3212L26.7018 68.0536L27.4781 66.9846L26.1934 61.5169Z" fill="#FAFF59"/>
<path d="M25.376 62.5867C19.7881 59.1024 15.2119 54.2134 12.1041 48.4078L7.15677 47.6643C11.0724 56.5417 17.989 63.7569 26.6932 68.0439L25.376 62.5867Z" fill="#D9E000"/>
<path d="M75.2742 46.9211L70.6333 47.5013C70.6333 47.5013 70.4517 47.8459 70.3238 48.0817L70.1964 48.3082C67.3434 53.4657 63.2697 57.8452 58.3318 61.0635L58.1588 61.1813L57.5428 61.5177L56.2544 66.9846L57.0348 68.0543L58.176 63.3312L58.6301 63.0502C64.1709 59.5961 68.7312 54.7762 71.8735 49.0528L76.5712 47.6657H76.5798L75.2742 46.9211Z" fill="#FAFF59"/>
<path d="M71.6295 48.4078C68.5265 54.214 63.9529 59.1034 58.3662 62.5864L57.052 68.0436C65.7548 63.7549 72.6708 56.5404 76.5881 47.6643L71.6295 48.4078Z" fill="#D9E000"/>
</svg>