<svg xmlns:xlink="http://www.w3.org/1999/xlink" width="140" height="101.81818181818181" viewBox="0 0 275 200" fill="none" xmlns="http://www.w3.org/2000/svg">
  <g clip-path="url(#clip0_1_176)">
  <path d="M18.7 50H12.5C9.18479 50 6.00537 51.317 3.66117 53.6612C1.31696 56.0054 0 59.1848 0 62.5C0 65.8152 1.31696 68.9946 3.66117 71.3388C6.00537 73.683 9.18479 75 12.5 75H18.7C22.0152 75 25.1946 73.683 27.5388 71.3388C29.883 68.9946 31.2 65.8152 31.2 62.5C31.2 59.1848 29.883 56.0054 27.5388 53.6612C25.1946 51.317 22.0152 50 18.7 50ZM175 75C170.055 75 165.222 76.4662 161.111 79.2133C157 81.9603 153.795 85.8648 151.903 90.4329C150.011 95.0011 149.516 100.028 150.48 104.877C151.445 109.727 153.826 114.181 157.322 117.678C160.819 121.174 165.273 123.555 170.123 124.52C174.972 125.484 179.999 124.989 184.567 123.097C189.135 121.205 193.04 118 195.787 113.889C198.534 109.778 200 104.945 200 100C200 93.3696 197.366 87.0107 192.678 82.3223C187.989 77.6339 181.63 75 175 75ZM175 3.02271e-06H75C71.6848 3.02271e-06 68.5054 1.31696 66.1612 3.66117C63.817 6.00537 62.5 9.1848 62.5 12.5C62.5 15.8152 63.817 18.9946 66.1612 21.3388C68.5054 23.683 71.6848 25 75 25H112.5C115.815 25 118.995 26.317 121.339 28.6612C123.683 31.0054 125 34.1848 125 37.5C125 40.8152 123.683 43.9946 121.339 46.3388C118.995 48.683 115.815 50 112.5 50H56.3C52.9848 50 49.8054 51.317 47.4612 53.6612C45.117 56.0054 43.8 59.1848 43.8 62.5C43.8 65.8152 45.117 68.9946 47.4612 71.3388C49.8054 73.683 52.9848 75 56.3 75H87.5C90.8152 75 93.9946 76.317 96.3388 78.6612C98.683 81.0054 100 84.1848 100 87.5C100 90.8152 98.683 93.9946 96.3388 96.3388C93.9946 98.683 90.8152 100 87.5 100H62.5C59.1848 100 56.0054 101.317 53.6612 103.661C51.317 106.005 50 109.185 50 112.5C50 115.815 51.317 118.995 53.6612 121.339C56.0054 123.683 59.1848 125 62.5 125H78.2C82.8761 143.11 92.5378 159.546 106.087 172.441C119.637 185.335 136.531 194.171 154.851 197.944C173.171 201.717 192.182 200.277 209.724 193.787C227.266 187.296 242.637 176.016 254.089 161.228C265.541 146.439 272.616 128.735 274.51 110.127C276.405 91.5184 273.042 72.7519 264.804 55.9592C256.567 39.1664 243.785 25.0205 227.91 15.1287C212.035 5.23677 193.704 -0.00459506 175 3.02271e-06ZM175 154.5C164.221 154.5 153.684 151.304 144.721 145.315C135.759 139.327 128.774 130.815 124.649 120.856C120.524 110.898 119.444 99.9395 121.547 89.3676C123.65 78.7956 128.841 69.0846 136.463 61.4627C144.085 53.8407 153.796 48.6501 164.368 46.5472C174.94 44.4443 185.898 45.5236 195.856 49.6486C205.815 53.7735 214.327 60.7589 220.315 69.7214C226.304 78.6839 229.5 89.2209 229.5 100C229.5 114.454 223.758 128.317 213.537 138.537C203.317 148.758 189.454 154.5 175 154.5ZM175 75C170.055 75 165.222 76.4662 161.111 79.2133C157 81.9603 153.795 85.8648 151.903 90.4329C150.011 95.0011 149.516 100.028 150.48 104.877C151.445 109.727 153.826 114.181 157.322 117.678C160.819 121.174 165.273 123.555 170.123 124.52C174.972 125.484 179.999 124.989 184.567 123.097C189.135 121.205 193.04 118 195.787 113.889C198.534 109.778 200 104.945 200 100C200 93.3696 197.366 87.0107 192.678 82.3223C187.989 77.6339 181.63 75 175 75ZM175 75C170.055 75 165.222 76.4662 161.111 79.2133C157 81.9603 153.795 85.8648 151.903 90.4329C150.011 95.0011 149.516 100.028 150.48 104.877C151.445 109.727 153.826 114.181 157.322 117.678C160.819 121.174 165.273 123.555 170.123 124.52C174.972 125.484 179.999 124.989 184.567 123.097C189.135 121.205 193.04 118 195.787 113.889C198.534 109.778 200 104.945 200 100C200 93.3696 197.366 87.0107 192.678 82.3223C187.989 77.6339 181.63 75 175 75Z" fill="url(#paint0_radial_1_176)"></path>
  <path d="M110.8 23.4L110.6 25H112.5C115.815 25 118.995 26.317 121.339 28.6612C123.683 31.0054 125 34.1848 125 37.5C125 40.8152 123.683 43.9946 121.339 46.3388C118.995 48.683 115.815 50 112.5 50H107.4L106.1 60.1L86.5 75H87.5C90.8152 74.9602 94.0104 76.239 96.3828 78.5551C98.7551 80.8712 100.11 84.0348 100.15 87.35C100.19 90.6652 98.911 93.8604 96.5949 96.2328C94.2788 98.6051 91.1152 99.9602 87.8 100L96.6 113.7L88.5 149.8L123.8 160.8L140.8 193.7L175 179.5L209.1 193.7L226.2 160.8L261.5 149.8L253.4 113.7L273.3 82.5L243.9 60.1L239.2 23.4L202.2 25.1L175 0L147.8 25.1L110.8 23.4ZM175 45.5C185.779 45.5 196.316 48.6964 205.279 54.6849C214.241 60.6734 221.226 69.1852 225.351 79.1438C229.476 89.1023 230.556 100.06 228.453 110.632C226.35 121.204 221.159 130.915 213.537 138.537C205.915 146.159 196.204 151.35 185.632 153.453C175.06 155.556 164.102 154.476 154.144 150.351C144.185 146.226 135.673 139.241 129.685 130.279C123.696 121.316 120.5 110.779 120.5 100C120.5 85.5457 126.242 71.6834 136.463 61.4627C146.683 51.2419 160.546 45.5 175 45.5Z" fill="url(#paint1_radial_1_176)"></path>
  <path d="M256.9 53.9L267.5 62C264.295 54.2634 260.165 46.9434 255.2 40.2L256.9 53.9Z" fill="#FF980F"></path>
  <path d="M75 25H96.8L98.7 10.3L142.6 12.3L156 0H75C71.6848 0 68.5054 1.31696 66.1612 3.66117C63.817 6.00537 62.5 9.18479 62.5 12.5C62.5 15.8152 63.817 18.9946 66.1612 21.3388C68.5054 23.683 71.6848 25 75 25Z" fill="#FF980F"></path>
  <path d="M268.2 117.7L270.7 129C272.847 122.009 274.189 114.796 274.7 107.5L268.2 117.7Z" fill="#FF980F"></path>
  <path d="M235.8 173.7L231.1 182.8C236.373 179.205 241.295 175.121 245.8 170.6L235.8 173.7Z" fill="#FF980F"></path>
  <path d="M207.4 12.3L221.9 11.7C213.896 7.43496 205.352 4.27292 196.5 2.3L207.4 12.3Z" fill="#FF980F"></path>
  <path d="M114.2 173.7L104.2 170.6C108.693 175.064 113.58 179.114 118.8 182.7L114.2 173.7Z" fill="#FF980F"></path>
  <path d="M79.3 128.9L81.8 117.7L70.5 100H62.5C59.1848 100 56.0054 101.317 53.6612 103.661C51.317 106.005 50 109.185 50 112.5C50 115.815 51.317 118.995 53.6612 121.339C56.0054 123.683 59.1848 125 62.5 125H78.2C78.5 126.3 78.9 127.6 79.3 128.9Z" fill="#FF980F"></path>
  <path d="M175 195.9L166 199.6C169 199.9 172 200 175 200C177.972 200.019 180.942 199.885 183.9 199.6L175 195.9Z" fill="#FF980F"></path>
  <path d="M65.5 75L93 53.9L93.6 50H56.3C52.9848 50 49.8054 51.317 47.4612 53.6612C45.117 56.0054 43.8 59.1848 43.8 62.5C43.8 65.8152 45.117 68.9946 47.4612 71.3388C49.8054 73.683 52.9848 75 56.3 75H65.5Z" fill="#FF980F"></path>
  <path d="M18.7 50H12.5C9.18479 50 6.00537 51.317 3.66117 53.6612C1.31696 56.0054 0 59.1848 0 62.5C0 65.8152 1.31696 68.9946 3.66117 71.3388C6.00537 73.683 9.18479 75 12.5 75H18.7C22.0152 75 25.1946 73.683 27.5388 71.3388C29.883 68.9946 31.2 65.8152 31.2 62.5C31.2 59.1848 29.883 56.0054 27.5388 53.6612C25.1946 51.317 22.0152 50 18.7 50Z" fill="#FF980F"></path>
  <path d="M181.5 93.5L175 77.1L168.5 93.5L152.1 100L168.5 106.5L175 122.9L181.5 106.5L197.9 100L181.5 93.5Z" fill="url(#paint2_radial_1_176)"></path>
  <path d="M266.5 75C267.5 75.3 267.7 83.5 267.7 84.4C267.7 85.3 264.8 91.8 263.8 92.7C262.8 93.6 261.6 91.7 261.6 90.7C261.6 89.7 262.3 85.9 262.4 85C262.5 84.1 263.9 79.9 263.9 78.6C263.9 77.3 264.5 74.3 266.5 75Z" fill="#FFCE1F"></path>
  <path d="M266.3 101.7C267 100.9 269.7 96.1 270.3 96.2C270.9 96.3 271.7 96.1 270.3 99.8C268.9 103.5 267.3 107.2 266.3 106.9C265.3 106.6 264.5 104 266.3 101.7Z" fill="#E6001B"></path>
  <path d="M155 15.1C158.4 13.3 164 10 169.6 9.7C175.2 9.4 171.9 6.9 170.9 6.7C169.9 6.5 161.5 6.6 158 7.7C154.5 8.8 154.4 10.3 153.7 11.7C153 13.1 152.3 16.5 155 15.1Z" fill="#BF0016"></path>
  <path d="M146.3 8C147.8 7.4 155.2 5.2 156.2 4.9C157.2 4.6 155.8 3.4 153.9 3.4C152 3.4 148.2 3.8 146.3 5.3C144.4 6.8 143.2 9.3 146.3 8Z" fill="#FFD38C"></path>
  <path d="M68.7 63.7L78.2 67.8C79.3 68.3 81.7 67.5 80.3 66.3C77.8669 64.3157 74.9182 63.0669 71.8 62.7C69 62.4 66.3 62.9 68.7 63.7Z" fill="#FFCE1F"></path>
  <path d="M86.6 57.3L90.4 58.3C90.9 58.4 91.7 57.1 91.1 56.4C90.7001 55.9112 90.1562 55.5611 89.5457 55.3995C88.9352 55.2379 88.2893 55.2731 87.7 55.5C86.7 56.1 85.7 57.2 86.6 57.3Z" fill="#FFCE1F"></path>
  <path d="M109.1 138.2C109.088 138.672 109.18 139.141 109.37 139.573C109.56 140.005 109.844 140.39 110.2 140.7C110.502 140.951 110.868 141.112 111.257 141.165C111.646 141.218 112.042 141.161 112.4 141C112.5 140.7 111.2 140.1 110.8 139.3C110.4 138.5 109.5 137.5 109.1 138.2Z" fill="#E02900"></path>
  <path d="M72.3 111C74.8218 110.784 77.3619 111.021 79.8 111.7C82.9 112.5 87.7 116.1 84.4 118.2C81.1 120.3 77.6 116 75 115C72.4 114 70.1 111.3 72.3 111Z" fill="#F2001D"></path>
  <path d="M10.2 65.1C11.1 64.5 13.2 63.8 14.7 65.1C16.2 66.4 18.1 68.1 17.8 68.8C17.5 69.5 12.9 67.8 11 67.4C9.09999 67 9.09999 65.8 10.2 65.1Z" fill="#FF5A00"></path>
  <path d="M258.2 117.6C260.3 116.8 262.6 119.6 262.6 123C262.6 126.4 258.7 130.6 256.9 132.6C255.1 134.6 253.4 134 255.2 129.8C257 125.6 255.1 118.6 258.2 117.6Z" fill="#FF9340"></path>
  <path d="M75.2 18.1C77 17.9 79.6 19 82.2 19.6C84.8 20.2 84.9 21.9 81 22.5C77.1 23.1 66.5 18.8 75.2 18.1Z" fill="#FFCE1F"></path>
  <path d="M178.5 112.5C180 111.5 182.7 111.2 185.3 110.3C187.9 109.4 188.7 111.1 185.6 113.6C182.5 116.1 171.3 117.5 178.5 112.5Z" fill="#E84600"></path>
  <path d="M55 52.3C56.1 52.2 57.7 52.8 59.3 53.2C60.9 53.6 60.9 54.6 58.5 55C56.1 55.4 49.6 52.7 55 52.3Z" fill="#FF5A00"></path>
  <path d="M241.6 112L258.5 85.5L233.5 66.4L229.5 35.2L198.1 36.7L175 15.4L151.9 36.7L124.8 35.4C124.916 36.0944 124.983 36.7962 125 37.5C124.991 39.683 124.414 41.8262 123.327 43.7195C122.241 45.6128 120.68 47.1912 118.8 48.3L116.4 66.4L97.9 80.6C99.2521 82.6487 99.9815 85.0454 100 87.5C100.015 90.207 99.1359 92.8432 97.5 95L108.4 112L101.5 142.6L131.5 152L146 179.9L175 167.8L204 179.9L218.4 152L248.4 142.6L241.6 112ZM175 156.2C163.92 156.2 153.089 152.913 143.878 146.755C134.666 140.598 127.489 131.846 123.253 121.607C119.018 111.369 117.915 100.104 120.083 89.2381C122.252 78.3725 127.596 68.3944 135.438 60.5667C143.279 52.7389 153.267 47.4133 164.136 45.2639C175.006 43.1144 186.269 44.2377 196.5 48.4915C206.731 52.7453 215.47 59.9386 221.611 69.1609C227.752 78.3832 231.02 89.22 231 100.3C230.974 115.135 225.062 129.353 214.563 139.833C204.064 150.314 189.835 156.2 175 156.2Z" fill="url(#paint3_radial_1_176)"></path>
  <path d="M227.3 69.8L223.7 41.9L195.6 43.2L175 24.2L154.3 43.2L126.3 41.9L122.7 69.8L100.4 86.8L115.5 110.4L109.4 137.8L136.2 146.2L149.1 171.1L175 160.3L200.9 171.1L213.8 146.2L240.6 137.8L234.5 110.4L249.6 86.8L227.3 69.8ZM175 154.5C164.221 154.5 153.684 151.304 144.721 145.315C135.759 139.327 128.774 130.815 124.649 120.856C120.524 110.898 119.444 99.9395 121.547 89.3676C123.65 78.7956 128.841 69.0846 136.463 61.4627C144.085 53.8407 153.796 48.6501 164.368 46.5472C174.94 44.4443 185.898 45.5236 195.856 49.6486C205.815 53.7735 214.327 60.7589 220.315 69.7214C226.304 78.6839 229.5 89.2209 229.5 100C229.5 114.454 223.758 128.317 213.537 138.537C203.317 148.758 189.454 154.5 175 154.5Z" fill="#700516"></path>
  <path d="M193.7 100.9C193.1 100.5 191.4 98.1 190 98C188.6 97.9 185.8 98.2 183.2 97.9L178.4 97.4C177.9 97.3 177.9 97.7 178.7 97.9C179.5 98.1 183.3 99.7 184.1 99.6L187.8 99.3L190.4 99C191.104 99.4429 191.744 99.9814 192.3 100.6C192.5 100.9 193.3 103.3 193.9 103.9C194.686 104.358 195.593 104.567 196.5 104.5C196.8 104.5 197.4 104.6 197.5 106.1C198.025 103.973 198.293 101.791 198.3 99.6C198.317 98.6988 198.283 97.7975 198.2 96.9C198.207 98.3383 197.751 99.7408 196.9 100.9C196 102 194.3 101.4 193.7 100.9Z" fill="url(#paint4_linear_1_176)"></path>
  <path d="M175 75C170.055 75 165.222 76.4662 161.111 79.2133C157 81.9603 153.795 85.8648 151.903 90.4329C150.011 95.0011 149.516 100.028 150.48 104.877C151.445 109.727 153.826 114.181 157.322 117.678C160.819 121.174 165.273 123.555 170.123 124.52C174.972 125.484 179.999 124.989 184.567 123.097C189.135 121.205 193.04 118 195.787 113.889C198.534 109.778 200 104.945 200 100C200 93.3696 197.366 87.0107 192.678 82.3223C187.989 77.6339 181.63 75 175 75ZM175 122.8C170.467 122.8 166.035 121.454 162.267 118.934C158.499 116.413 155.564 112.83 153.834 108.64C152.104 104.45 151.656 99.8404 152.548 95.3955C153.439 90.9507 155.63 86.8705 158.843 83.6719C162.056 80.4733 166.145 78.3002 170.594 77.4279C175.043 76.5556 179.65 77.0234 183.833 78.772C188.016 80.5206 191.585 83.4713 194.089 87.2503C196.594 91.0293 197.92 95.4666 197.9 100C197.9 103.003 197.307 105.976 196.155 108.748C195.003 111.521 193.315 114.039 191.187 116.157C189.059 118.276 186.534 119.953 183.756 121.093C180.978 122.233 178.003 122.813 175 122.8Z" fill="url(#paint5_linear_1_176)"></path>
  <path d="M130.2 56.6C120.9 62.3 107.1 67.3 103.9 67.3C100.7 67.3 99.3 65.6 99.3 64C99.3 62.4 103 59.2 103 57.2C103 55.2 97.7 52.1 95.7 51.8C93.7 51.5 98.9 50 101 50H68.9C68.9 50 78.8 50.9 80.4 50.9C82 50.9 88.5 50.5 91 52.7C92.3 52.9 94.1 53.8 96.2 54C100.1 54.2 100.7 54.3 101.5 56.4C102.3 58.5 100.9 59.5 99.3 61.5C97.7 63.5 94.9 66.5 94.7 67.3C94.5945 68.0828 94.7067 68.8795 95.0242 69.6028C95.3418 70.326 95.8524 70.9478 96.5 71.4C97.6 72.1 102.3 74.9 103.2 76C104.1 77.1 106 75.1 106.3 74.2C106.6 73.3 108 68.6 109.1 68.6C110.2 68.6 125.3 63.3 130.2 56.6Z" fill="url(#paint6_linear_1_176)"></path>
  <path d="M144.6 163.3C141.3 161.9 120.2 160.9 109.1 159C98 157.1 90.6 149.2 89 148C87.4 146.8 86.7 142 87.5 140.5C88.3 139 90.3 134 92.7 131.5C95.1 129 95.4 127 95.8 127.6C96.2 128.2 102.1 130.8 104.4 132C106.7 133.2 114.2 132.1 123.5 131.2C123.5 131.2 120.2 130.4 119.7 130.4L105.5 131.2C105.2 131.3 102.9 129.6 103.1 128.6C103.21 127.433 103.003 126.259 102.5 125.2C102.1 124.9 98.1 124 95.7 125.5C93.3 127 91.1 129.9 91 131.1C90.9 132.3 88.6 136.2 88.1 136.7C87.6 137.2 86.4 137.2 86.1 137.6C85.2322 138.662 84.4624 139.8 83.8 141C86.3934 146.842 89.5766 152.404 93.3 157.6C94.6147 158.704 96.0586 159.644 97.6 160.4C98.4168 160.875 99.2904 161.244 100.2 161.5C104.3 162.5 124.5 162.7 127.6 162.7C130.7 162.7 147.6 167.8 148.3 169.2C149 170.6 147.3 173.5 146.6 173.5C145.9 173.5 142.9 175.3 141.9 175C140.9 174.7 138.7 178 137.9 178.6C136.434 179.482 134.852 180.155 133.2 180.6C132.7 180.7 129.8 183.2 129.2 183.5C127.322 183.856 125.405 183.957 123.5 183.8C122.5 183.6 115.3 179 114.8 178.7C114.194 178.461 113.551 178.326 112.9 178.3C123.606 186.761 135.923 192.954 149.1 196.5L145.2 194.6C145.2 194.6 143.7 192.2 136.8 190.2C129.9 188.2 128.5 186.1 128.8 185.4C129.1 184.7 132.8 182.1 133.4 182C134 181.9 137.5 182.1 139.2 181.3C142.884 179.407 146.457 177.303 149.9 175C152.8 172.9 148 164.8 144.6 163.3Z" fill="url(#paint7_linear_1_176)"></path>
  <path d="M215.4 156.6C216.1 156.7 216.5 157.8 220.6 155.2C221.85 154.182 223.188 153.278 224.6 152.5C227.4 150.9 239 144.7 241.7 142.9C244.4 141.1 248.9 138.4 249.4 133.4C249.9 128.4 245.5 125 244.8 123.8C244.1 122.6 237.2 117.4 237.2 117.4L235.3 118.8C235.3 118.8 241.6 123.6 242.5 123.9C243.4 124.2 242.9 126.9 243.8 128.2C244.7 129.5 246.8 132.2 246.6 135.3C246.4 138.4 241.2 142.2 235.2 145.6C229.2 149 226.7 149.7 223.6 150.5C220.5 151.3 213.9 153 209.1 156.2C204.3 159.4 207.4 158.9 209 160.2C210.6 161.5 215.5 160.1 215.4 162.3C215.3 164.5 220.3 175.2 215.9 179.8C211.5 184.4 202.8 191.5 193.1 194.9C183.4 198.3 178.4 195.5 176.2 195.3C174 195.1 175.3 196 176.2 196.3C177.1 196.6 181.5 198.3 182.4 198.4C183.3 198.5 183.3 199.2 183.7 199.6C187.633 199.293 191.542 198.725 195.4 197.9C197.987 197.275 200.477 196.299 202.8 195L231.3 176.1C234.45 173.859 236.993 170.869 238.7 167.4C239.8 165.1 239.2 165.3 239 165.4L236.2 167.9C235.9 168.1 233.6 171.5 233.6 172.1C233.6 172.7 225.1 179.2 217.9 182.7C210.7 186.2 216.7 181.7 218 180.7C219.3 179.7 221.4 178.5 221.9 175.9C222.081 175.171 222.085 174.409 221.911 173.678C221.737 172.948 221.39 172.269 220.9 171.7C220.5 171.4 218.7 170.9 218.7 170.3C218.7 169.7 219 161.8 218.6 160.9C218.2 160 215.4 158.3 214.5 157.9C213.6 157.5 214.8 156.6 215.4 156.6Z" fill="url(#paint8_linear_1_176)"></path>
  <path d="M258.9 45.6C259.5 47.7 263.4 58.8 263.4 59.5V63.8C263.4 63.8 262.5 66 261.1 66.5C259.7 67 254.8 65.8 254.8 65.8C254.8 65.8 246.4 60.5 245.6 60.6C244.8 60.7 240.3 60.6 238.9 61.4C237.5 62.2 234.9 65.6 234.6 66.6C234.3 67.6 227.3 67.9 226.3 67.9C225.3 67.9 228 78 228.3 78.7C228.6 79.4 232.4 81.7 232.5 81.2C232.6 80.7 234.7 75.2 236.2 74C237.7 72.8 238 70.5 238 69.5C238 68.5 237.9 65.3 238 64.6C238.1 63.9 240.2 62.5 240.9 62.1C241.6 61.7 245.8 61.8 246.3 62.4C246.8 63 252.2 67.2 252.2 68.3C252.2 69.4 257.1 67.3 257.9 67.3C259.498 67.5005 261.034 68.0465 262.4 68.9C263.1 69.6 267.1 70.6 268.1 71.3C269.1 72 273.3 81.7 273.5 82.5C271.168 69.3422 266.202 56.7911 258.9 45.6Z" fill="url(#paint9_linear_1_176)"></path>
  <path d="M214.3 12.8C221.412 14.4409 228.25 17.1018 234.6 20.7C221.3 11.7 204.9 5.2 186 2.4L190.7 4C195 5.1 206.7 10.3 208.4 11.6C210.1 12.9 210.5 14.2 209.5 13.7C208.5 13.2 197.7 11.9 196.3 12.2C195.262 12.4537 194.28 12.8943 193.4 13.5C188.3 13.2 169.9 16.7 167.1 17.7C164.3 18.7 165.7 18.4 165.7 18.4C165.7 18.4 168.8 18.2 178.8 16.3C188.8 14.4 204 15.1 205.6 15.2C207.2 15.3 215.9 17.5 219.1 19.9C222.3 22.3 223.8 26 223.6 26.5C223.4 27 220.9 28.4 220.9 28.9C220.9 29.4 222.2 30.2 223.9 30.9C225.6 31.6 229.6 34 230.3 36.4C232.4 43.9 228.7 47.1 224.8 47.7C220.9 48.3 207.6 47.7 207.6 47.7L207.4 51.2L220.1 56.6C243.2 42.6 231 33.6 230.1 33C229.2 32.4 225.2 30.4 225.2 30.4C226.5 23.5 217.6 16.6 216.2 15.6C214.8 14.6 210.8 12.2 214.3 12.8Z" fill="url(#paint10_linear_1_176)"></path>
  <path d="M125 36.7C125.1 33.5 123.9 30 124.2 29.1C124.5 28.2 128.9 26.3 130.2 25.4C131.5 24.5 131.8 27.4 131.1 28.1C130.4 28.8 128.7 36.1 128.5 37C128.3 37.9 129.3 39.7 129.9 39.7C132.133 39.3586 134.339 38.8573 136.5 38.2C137.5 37.8 143.5 36.4 145.2 36.1C146.9 35.8 149.6 37.2 148.9 37.8C148.2 38.4 147.3 39.5 146 39.7C144.7 39.9 137.8 44.2 135.4 47.3L138.5 50L154.9 39.4C154.9 39.4 161.5 35.8 160.2 35.8C158.9 35.8 153.8 36.1 153.3 36.1C152.8 36.1 152.4 34.2 147.9 34.7C143.4 35.2 137.7 35.8 136.2 36.5C135.536 36.7271 134.811 36.6871 134.176 36.3885C133.541 36.0899 133.048 35.5561 132.8 34.9C132.463 32.53 133.074 30.1228 134.5 28.2C136.4 25.6 143.1 23.1 145 22.8C146.9 22.5 151.1 23.6 152.1 23.6C153.1 23.6 158.9 20.7 160.9 19.8C162.9 18.9 158.7 20.1 158.2 20.2C157.7 20.3 153.2 22.2 152.5 22.6C151.8 23 149.7 22.4 148.9 22.2C147.066 22.1381 145.23 22.1715 143.4 22.3C141.445 22.5198 139.547 23.096 137.8 24C137.1 24.4 136.3 24.3 136.3 24C136.04 23.3409 135.54 22.8048 134.9 22.5C134.1 22.1 132.8 21.2 131.2 21.9C129.6 22.6 128 24.9 127.9 25L126.8 25.8C125.589 25.8773 124.386 26.0444 123.2 26.3C122.4 26.6 121.3 26.3 119.9 25.6C118.5 24.9 112.3 24.1 111.1 24.1C110.058 24.2372 109.045 24.5411 108.1 25H112.5C115.674 25.0171 118.725 26.2316 121.042 28.4008C123.36 30.5699 124.773 33.5339 125 36.7Z" fill="url(#paint11_linear_1_176)"></path>
  <path d="M175 34C161.942 33.9802 149.172 37.8342 138.305 45.0744C127.438 52.3145 118.963 62.6154 113.953 74.6735C108.942 86.7317 107.621 100.005 110.156 112.815C112.691 125.624 118.969 137.393 128.196 146.634C137.422 155.874 149.182 162.17 161.987 164.724C174.793 167.279 188.068 165.978 200.134 160.986C212.2 155.993 222.513 147.534 229.77 136.678C237.027 125.822 240.9 113.058 240.9 100C240.9 82.513 233.96 65.7408 221.604 53.3663C209.249 40.9917 192.487 34.0265 175 34ZM175 157.5C163.628 157.5 152.511 154.128 143.055 147.81C133.599 141.491 126.229 132.511 121.877 122.004C117.525 111.498 116.386 99.9362 118.605 88.7823C120.823 77.6284 126.3 67.3829 134.341 59.3414C142.383 51.2998 152.628 45.8235 163.782 43.6048C174.936 41.3862 186.498 42.5249 197.004 46.8769C207.511 51.229 216.491 58.5989 222.81 68.0547C229.128 77.5105 232.5 88.6276 232.5 100C232.5 107.551 231.013 115.028 228.123 122.004C225.233 128.981 220.998 135.319 215.659 140.659C210.319 145.998 203.981 150.233 197.004 153.123C190.028 156.013 182.551 157.5 175 157.5Z" fill="url(#paint12_linear_1_176)"></path>
  <path d="M175 36.1C162.362 36.1 150.007 39.8477 139.499 46.8691C128.991 53.8905 120.801 63.8703 115.964 75.5465C111.128 87.2227 109.862 100.071 112.328 112.466C114.793 124.862 120.879 136.248 129.816 145.184C138.752 154.121 150.138 160.207 162.534 162.672C174.929 165.138 187.777 163.872 199.453 159.036C211.13 154.199 221.109 146.009 228.131 135.501C235.152 124.993 238.9 112.638 238.9 100C238.9 83.0527 232.168 66.7995 220.184 54.8159C208.201 42.8323 191.947 36.1 175 36.1ZM175 150C165.111 150 155.444 147.068 147.221 141.573C138.999 136.079 132.59 128.27 128.806 119.134C125.022 109.998 124.031 99.9445 125.961 90.2455C127.89 80.5464 132.652 71.6373 139.645 64.6447C146.637 57.652 155.546 52.89 165.245 50.9607C174.945 49.0315 184.998 50.0216 194.134 53.806C203.27 57.5904 211.079 63.999 216.573 72.2215C222.068 80.4439 225 90.1109 225 100C225 113.261 219.732 125.979 210.355 135.355C200.979 144.732 188.261 150 175 150Z" fill="url(#paint13_linear_1_176)"></path>
  <path d="M66.2 5.2C69.4 3.5 73.4 1.3 74.1 1.1C74.8 0.899996 77.7 1.5 76.4 2C75.1 2.5 72.4 8.1 72.3 8.7C72.2 9.3 77.5 10.7 77.5 10.7L85.8 14.5L86.9 15.1C88 15.7 88.9 19.7 90.1 20.7C91.3 21.7 95.7 23 98.7 22.1L101.3 21.4C101.337 20.9472 101.484 20.5104 101.728 20.1271C101.972 19.7438 102.306 19.4256 102.7 19.2C105.988 16.85 109.961 15.6545 114 15.8L114.7 15.5C117.398 15.5615 120.067 16.0683 122.6 17L124.9 17.7C122.4 15.6 119.8 13.8 117.9 13.8C113.5 13.8 103.3 17.4 99.8 17.4C96.3 17.4 87.1 12.2 86 12.2C84.9 12.2 79 9.9 79.8 8.2C80.6 6.5 81.3 4.7 92.7 2.8C104.1 0.899996 117 2.1 117.5 2.1C118.221 2.2789 118.858 2.70316 119.3 3.3C119.8 3.9 125.4 5.2 126.8 5.4C128.972 5.7671 131.111 6.30203 133.2 7C133.9 7.3 135.9 7 134.1 6.6C132.3 6.2 124.4 1.7 119.7 0.999996C118.275 0.784593 116.87 0.450089 115.5 -3.65091e-06H78.5C76.2058 -0.00267667 73.9345 0.456327 71.8214 1.34968C69.7083 2.24303 67.7966 3.55246 66.2 5.2Z" fill="url(#paint14_linear_1_176)"></path>
  <path d="M234.8 122.5C234.036 124.478 233.168 126.414 232.2 128.3C230.8 130 229.4 131.7 228.8 132.3C226.659 134.72 224.389 137.024 222 139.2C220.029 141.1 218.16 143.103 216.4 145.2C216.3 145.5 212.3 148.3 212.3 147C212.965 143.532 213.902 140.122 215.1 136.8C215.8 135.4 216.8 133.9 216.4 134.2C216 134.5 209.4 139.1 208.2 140.1C207.017 141.006 205.782 141.841 204.5 142.6C212.003 137.459 218.007 130.42 221.9 122.2C221.8 124.1 220.6 126.7 220.7 128.3C220.8 129.9 217.7 135.7 217 136.4C216.3 137.1 214.6 141.3 215.9 141.2C217.2 141.1 220.7 139 222.7 137.1C224.7 135.2 231.8 128.4 232.7 126.4C233.264 125.031 233.968 123.724 234.8 122.5Z" fill="#FFFBE8"></path>
  <path d="M125.3 130.3C124.424 129.031 123.718 127.652 123.2 126.2C123.2 125.7 119.7 120.1 119.5 119.3C119.3 118.5 116.8 109.1 115.9 106.6C115 104.1 116.7 101.2 118.1 100C119.5 98.8 120.9 100.7 122.1 101.6L125.2 103.9C125.112 103.54 125.078 103.17 125.1 102.8C122.8 100.1 119.3 97 116.8 97.8C114.3 98.6 112.1 100.7 112.9 103.2C113.7 105.7 118.3 120.4 120.5 123.4C122.7 126.4 123.6 128.1 123.5 128.5L123.1 129.4C123.051 129.455 123.024 129.526 123.024 129.6C123.024 129.674 123.051 129.745 123.1 129.8C123.397 130.109 123.733 130.378 124.1 130.6C125.2 131.2 124.6 132.2 124.2 132.6C123.8 133 121.3 131.7 119 130.7C119.071 130.964 119.209 131.205 119.4 131.4L120 131.6C121 132 125.2 134.2 126.2 134.5C127.216 134.744 128.255 134.878 129.3 134.9C130.3 134.9 128.7 132.9 128.6 132.7L125.3 130.3Z" fill="url(#paint15_linear_1_176)"></path>
  <path d="M161.4 148.1H157.8C157.1 148.2 156.4 150.1 155.7 150.1C155 150.1 158.1 151.9 159.4 152C160.7 152.1 165.9 153.2 166.7 153.3C167.5 153.4 168.8 156.3 168.8 156.3C168.8 156.3 160.4 157.3 159.4 157.6C158.4 157.9 151.6 154.8 150.8 154.9L147.3 155.1C147.3 155.1 138.9 152.6 137.9 152.1C144.328 156.686 151.55 160.042 159.2 162C158.474 161.604 157.702 161.302 156.9 161.1C155.4 160.7 151.6 158.5 151.1 158.6C150.6 158.7 144.9 156.3 144.5 156.2C144.1 156.1 148.5 155.9 149.5 156L154.4 157.1C156.263 157.897 158.165 158.598 160.1 159.2C160.7 159.3 164.1 157.4 164.4 157.6C164.7 157.8 173.3 157.5 173.5 157.5C173.7 157.5 174.5 156.6 173.5 155.7C172.5 154.8 166.4 152.3 165.5 152.2C164.6 152.1 157.8 150.6 157.8 150.1C158.908 149.279 160.118 148.607 161.4 148.1Z" fill="url(#paint16_linear_1_176)"></path>
  <path d="M191.4 89.9L188.1 88.8L184 87.9H179.2C178.616 88.8701 177.687 89.5842 176.6 89.9C174.417 90.3067 172.275 90.9092 170.2 91.7C169.4 92.2 168 94.3 168.1 95.5C168.089 95.8894 168.212 96.2708 168.449 96.5802C168.686 96.8897 169.021 97.1085 169.4 97.2C169.8 97.3 175 98.4 175.9 98.8C176.369 99.0812 176.738 99.5032 176.953 100.006C177.168 100.509 177.22 101.066 177.1 101.6C176.8 102.3 175.7 105.9 174.6 106.5C173.5 107.1 170.8 107.2 170.2 107.9C168.847 109.822 167.738 111.904 166.9 114.1C166.404 115.826 165.349 117.339 163.9 118.4C162.6 119.2 163.8 117.4 164.3 116.8C164.8 116.2 164.5 112.6 164.2 111.7C163.9 110.8 165.8 107.4 166.8 107.2L173.3 105.2C174.2 104.9 174.8 103.1 174.9 102.5C175 101.9 170.1 101 169.1 101C168.1 101 163.5 99 163.3 98.4C163.1 97.8 165.2 96.4 164.8 96C164.4 95.6 162.5 93.1 162.2 92.7C162.008 92.2101 161.982 91.6707 162.127 91.1648C162.271 90.6589 162.578 90.2145 163 89.9C164 89.3 168.1 89.9 168.8 90C170.497 90.1498 172.203 90.1498 173.9 90C174.94 89.5687 175.916 88.9967 176.8 88.3C177 88 177.3 86.6 178 86.3C180.269 85.8359 182.588 85.6679 184.9 85.8C186.201 86.2922 187.442 86.9296 188.6 87.7C189.1 88 189.2 88.8 190.2 89.2C191.2 89.6 192.6 90.3 191.4 89.9Z" fill="url(#paint17_linear_1_176)"></path>
  <path d="M225 101.9C226.6 99 227.8 96.1 228 95.9C228.2 95.7 229.9 95 229.8 95.5C229.7 96 230.3 99.4 230.3 99.6C230.3 99.8 231.3 100.2 232.5 99.3C233.7 98.4 237.6 94.6 235.6 90.8C233.6 87 228.4 83.8 228.3 83.7C228.2 83.6 228 80.7 227.7 80.7C227.4 80.7 223.9 77.8 221.6 75.8C219.3 73.8 220.7 72.1 220.9 71.4C221.1 70.7 223.1 70.4 223.7 70.7C224.3 71 227.1 71.9 227.8 71.7C228.5 71.5 230.1 70.8 230.5 71.1C232.238 73.3485 233.809 75.7216 235.2 78.2C233.66 74.0041 231.682 69.9819 229.3 66.2C229.7 69.4 228 70.8 227 70.4C226 70 223.5 68.4 222.9 68.4C222.421 68.3737 221.941 68.4491 221.493 68.6215C221.045 68.7939 220.638 69.0592 220.3 69.4C220.034 69.6981 219.712 69.9401 219.351 70.1118C218.99 70.2835 218.599 70.3815 218.2 70.4C218 70.4 214.4 68.1 213.9 66.8C212.654 64.8008 211.177 62.9548 209.5 61.3C209 60.8 210.5 59.2 210.8 58.8C211.1 58.4 216.8 55.5 218.8 56.1C220.8 56.7 221.3 56.5 223.3 58.1C220.358 54.6753 217.074 51.5593 213.5 48.8C212.1 49.6 212.6 52.2 212.1 52.8C211.6 53.4 213.2 55 213.5 55.3L214.4 56C212.5 56.6 209.4 57.6 209.2 58C209 58.4 208.9 59.2 208.7 59.3L207 59.6L201.4 57.4H201.5C207.757 61.3394 213.08 66.5946 217.1 72.8H217.2C218.107 73.8648 219.149 74.8062 220.3 75.6C220.8 75.9 222.8 77.9 223.3 78.3C223.8 78.7 225.2 80.6 225 80.8C224.8 81 224.8 81.8 224.6 82.2C224.4 82.6 224 83.6 225 84C226 84.4 230.1 85.5 231.4 86.8C232.7 88.1 234.6 92.2 234.7 93.8C234.8 95.4 231.9 98.1 231.8 98.3C231.7 98.5 231 98 231.1 96.9C231.2 95.8 230.1 92.5 229.5 92.1C228.9 91.7 227 89.2 226.6 89.1C226.2 89 225.7 88.4 226.2 90.1C226.767 92.5696 226.557 95.154 225.6 97.5C225.439 97.9502 225.238 98.3852 225 98.8V101.7V101.9Z" fill="url(#paint18_linear_1_176)"></path>
  <path d="M144.2 45.4C145.84 45.0269 147.519 44.859 149.2 44.9C149.7 44.9 156.3 42.5 163.8 42.1C171.3 41.7 169.4 43.4 168.8 43.5C167.921 43.9835 167.141 44.6281 166.5 45.4C166 46 165.9 47.4 165.4 47.4C163.905 47.5956 162.453 48.0347 161.1 48.7C160.04 49.4405 158.854 49.9826 157.6 50.3C157.176 50.3175 156.761 50.4246 156.382 50.6142C156.003 50.8038 155.668 51.0716 155.4 51.4C154.05 52.7266 152.613 53.9627 151.1 55.1C150.4 55.7 147.4 57 145.9 58.4C144.4 59.8 144.3 60.4 145.6 59.4C148.204 57.5882 150.945 55.9833 153.8 54.6C159.2 51.6 163.7 48 165.2 48C166.407 48.0032 167.577 47.578 168.5 46.8C169.5 46 179.6 44.7 182.6 45.5C185.041 46.1705 187.445 46.9717 189.8 47.9C190.2 47.9 191.7 48.2 192.2 47.9C192.7 47.6 194.2 46.3 194.2 45.7C194.2 45.1 194.1 44 190.7 41.8C187.3 39.6 174 36.1 166.7 36.5L165 36.8C166.3 36.6 171.3 37.2 172.2 37.2C175.739 37.6879 179.245 38.3892 182.7 39.3C184.244 39.8243 185.748 40.4593 187.2 41.2C187.4 41.5 188.3 43.1 188.7 43.2C189.915 43.5714 191.15 43.8719 192.4 44.1C192.6 44.2 193.7 45.3 193.6 45.6C193.327 46.1451 192.865 46.5718 192.3 46.8C192.039 46.9113 191.754 46.9514 191.473 46.9163C191.192 46.8812 190.925 46.772 190.7 46.6C189.944 46.0772 189.096 45.7038 188.2 45.5C187.5 45.4 182.5 44.4 181.6 44.4L171.5 45.6C170.745 45.774 169.975 45.8745 169.2 45.9L170.4 44.6C171.124 44.0666 171.794 43.4637 172.4 42.8C172.5 42.5 172.9 41.8 170.9 41.4C168.9 41 159.2 41 157.8 41.4L149.2 44.1H145.2L143.2 44.6C140.513 46.1474 137.939 47.8852 135.5 49.8C137.7 48.4 142.9 46 144.2 45.4Z" fill="url(#paint19_linear_1_176)"></path>
  <path d="M175 48C164.711 47.9802 154.648 51.0131 146.083 56.7149C137.519 62.4167 130.838 70.5311 126.887 80.0311C122.936 89.5311 121.892 99.9897 123.887 110.083C125.882 120.177 130.827 129.452 138.095 136.734C145.363 144.016 154.629 148.979 164.718 150.993C174.808 153.008 185.269 151.984 194.776 148.051C204.284 144.118 212.411 137.454 218.129 128.9C223.848 120.347 226.9 110.289 226.9 100C226.913 93.176 225.58 86.4164 222.978 80.108C220.376 73.7997 216.555 68.0665 211.734 63.2365C206.914 58.4065 201.188 54.5747 194.884 51.9602C188.581 49.3457 181.824 48 175 48ZM175 150C165.111 150 155.444 147.068 147.221 141.573C138.999 136.079 132.59 128.27 128.806 119.134C125.022 109.998 124.031 99.9445 125.961 90.2455C127.89 80.5464 132.652 71.6373 139.645 64.6447C146.637 57.652 155.546 52.89 165.245 50.9607C174.945 49.0315 184.998 50.0216 194.134 53.806C203.27 57.5904 211.079 63.999 216.573 72.2215C222.068 80.444 225 90.1109 225 100C225 113.261 219.732 125.979 210.355 135.355C200.979 144.732 188.261 150 175 150Z" fill="url(#paint20_linear_1_176)"></path>
  <path d="M56.3 75H73.1C70.2 68.8 59.3 69.8 55.8 69.8C52.3 69.8 51.1 67.7 48.5 67C45.9 66.3 44.8 66.6 44.9 67.7C45.8986 69.883 47.5047 71.7322 49.5263 73.0268C51.5479 74.3213 53.8995 75.0063 56.3 75Z" fill="#FF5A00"></path>
  <path d="M29.3 69.2L26.4 67.5C25.1443 66.1415 23.9753 64.7053 22.9 63.2C22.5 62.8 20.7 57.5 20.2 56.6C19.7 55.7 18.8 54.8 18.4 54.9L9.90001 56.5L9.40001 55.2C9.40001 55.2 12.7 52.9 13 52.5L15.3 50H12.5C9.91997 50.0089 7.40485 50.8097 5.29455 52.294C3.18425 53.7784 1.58049 55.8748 0.700012 58.3C1.73433 57.7052 2.67738 56.9642 3.50001 56.1C4.50618 55.5542 5.58307 55.1504 6.70001 54.9C7.30001 54.8 10.6 59.7 11 59.9C11.4 60.1 18.2 59.3 18.5 59.3C18.8 59.3 24.7 67.6 25.2 67.9L28.5 70.3C28.7902 69.951 29.0574 69.5836 29.3 69.2Z" fill="#FFC338"></path>
  <path d="M107.4 142.3C109.1 141.5 112.1 142.6 115.3 146.2C118.5 149.8 122.4 152.4 121.7 154.1C121 155.8 115.5 153.9 114 153C112.5 152.1 107.3 148.2 106.7 147.1C106.1 146 104.5 143.7 107.4 142.3Z" fill="#E82A00"></path>
  <path d="M64.3 106.8C64.4 106.3 62.5 104.2 62.2 104.1C61.9 104 56.8 103.7 56.5 103.5C56.0485 103.155 55.645 102.751 55.3 102.3C53.6649 103.452 52.3302 104.98 51.408 106.755C50.4858 108.53 50.0029 110.5 50 112.5C50.0147 114.408 50.4591 116.288 51.3 118C52.7 119.1 54.1 116.4 55.2 114.5C56.3 112.6 58.9 108.4 61.5 108.4C64.1 108.4 64.2 107.2 64.3 106.8Z" fill="#FF7B0F"></path>
  <path d="M180.9 91.7L179.5 106.1L180.9 120.4L182.3 106.1L180.9 91.7Z" fill="url(#paint21_linear_1_176)"></path>
  <path d="M192.6 106.1L180.9 104.9L169.2 106.1L180.9 107.2L192.6 106.1Z" fill="url(#paint22_linear_1_176)"></path>
  <path d="M245.3 42.5L242.5 71.2L245.3 99.9L248.1 71.2L245.3 42.5Z" fill="url(#paint23_linear_1_176)"></path>
  <path d="M268.7 71.2L245.3 68.9L221.9 71.2L245.3 73.5L268.7 71.2Z" fill="url(#paint24_linear_1_176)"></path>
  <path d="M118.8 114.8L117.2 131.5L118.8 148.2L120.4 131.5L118.8 114.8Z" fill="url(#paint25_linear_1_176)"></path>
  <path d="M132.4 131.5L118.8 130.2L105.2 131.5L118.8 132.8L132.4 131.5Z" fill="url(#paint26_linear_1_176)"></path>
  <path d="M146 1L143.4 27.4L146 53.9L148.6 27.4L146 1Z" fill="url(#paint27_linear_1_176)"></path>
  <path d="M167.6 27.4L146 25.3L124.4 27.4L146 29.5L167.6 27.4Z" fill="url(#paint28_linear_1_176)"></path>
  </g>
  <defs>
  <radialGradient id="paint0_radial_1_176" cx="0" cy="0" r="1" gradientUnits="userSpaceOnUse" gradientTransform="translate(175.04 100) scale(99.01 99.01)">
  <stop stop-color="#FFE54D"></stop>
  <stop offset="0.23" stop-color="#FF5500"></stop>
  <stop offset="0.72" stop-color="#E73E00"></stop>
  <stop offset="0.8" stop-color="#EA4400"></stop>
  <stop offset="0.89" stop-color="#F25400"></stop>
  <stop offset="1" stop-color="#FF6F00"></stop>
  </radialGradient>
  <radialGradient id="paint1_radial_1_176" cx="0" cy="0" r="1" gradientUnits="userSpaceOnUse" gradientTransform="translate(176.14 99.71) scale(92.41 92.41)">
  <stop offset="0.56" stop-color="#910015"></stop>
  <stop offset="0.68" stop-color="#9B0611"></stop>
  <stop offset="0.89" stop-color="#B61607"></stop>
  <stop offset="1" stop-color="#C72100"></stop>
  </radialGradient>
  <radialGradient id="paint2_radial_1_176" cx="0" cy="0" r="1" gradientUnits="userSpaceOnUse" gradientTransform="translate(175 100.03) scale(22.88 22.88)">
  <stop stop-color="#FFF696"></stop>
  <stop offset="0.12" stop-color="#FFE27E"></stop>
  <stop offset="0.42" stop-color="#FFB448"></stop>
  <stop offset="0.67" stop-color="#FF9321"></stop>
  <stop offset="0.87" stop-color="#FF7E09"></stop>
  <stop offset="1" stop-color="#FF7700"></stop>
  </radialGradient>
  <radialGradient id="paint3_radial_1_176" cx="0" cy="0" r="1" gradientUnits="userSpaceOnUse" gradientTransform="translate(174.78 100.57) scale(84.9 84.9)">
  <stop offset="0.54" stop-color="#D90000"></stop>
  <stop offset="0.63" stop-color="#CA0004"></stop>
  <stop offset="0.81" stop-color="#A2000F"></stop>
  <stop offset="1" stop-color="#6E001C"></stop>
  </radialGradient>
  <linearGradient id="paint4_linear_1_176" x1="178.02" y1="101.49" x2="198.33" y2="101.49" gradientUnits="userSpaceOnUse">
  <stop stop-color="#FFF5C4"></stop>
  <stop offset="1" stop-color="#FFCE1F"></stop>
  </linearGradient>
  <linearGradient id="paint5_linear_1_176" x1="192.45" y1="117.45" x2="159.29" y2="84.29" gradientUnits="userSpaceOnUse">
  <stop stop-color="#FFB300"></stop>
  <stop offset="0.56" stop-color="#FF7700"></stop>
  <stop offset="1" stop-color="#C20000"></stop>
  </linearGradient>
  <linearGradient id="paint6_linear_1_176" x1="115.38" y1="66.07" x2="83.27" y2="57.52" gradientUnits="userSpaceOnUse">
  <stop stop-color="#FF0400"></stop>
  <stop offset="0.11" stop-color="#FF2B0D"></stop>
  <stop offset="0.27" stop-color="#FF5A1D"></stop>
  <stop offset="0.42" stop-color="#FF812A"></stop>
  <stop offset="0.58" stop-color="#FFA035"></stop>
  <stop offset="0.72" stop-color="#FFB63C"></stop>
  <stop offset="0.87" stop-color="#FFC341"></stop>
  <stop offset="1" stop-color="#FFC742"></stop>
  </linearGradient>
  <linearGradient id="paint7_linear_1_176" x1="135.66" y1="147.44" x2="109.25" y2="174.2" gradientUnits="userSpaceOnUse">
  <stop stop-color="#FF0400"></stop>
  <stop offset="0.06" stop-color="#FF1700"></stop>
  <stop offset="0.22" stop-color="#FF4600"></stop>
  <stop offset="0.39" stop-color="#FF6D00"></stop>
  <stop offset="0.55" stop-color="#FF8C00"></stop>
  <stop offset="0.71" stop-color="#FFA200"></stop>
  <stop offset="0.86" stop-color="#FFAF00"></stop>
  <stop offset="1" stop-color="#FFB300"></stop>
  </linearGradient>
  <linearGradient id="paint8_linear_1_176" x1="212.2" y1="137.48" x2="212.2" y2="191.33" gradientUnits="userSpaceOnUse">
  <stop stop-color="#FF0400"></stop>
  <stop offset="0.06" stop-color="#FF1700"></stop>
  <stop offset="0.22" stop-color="#FF4600"></stop>
  <stop offset="0.39" stop-color="#FF6D00"></stop>
  <stop offset="0.55" stop-color="#FF8C00"></stop>
  <stop offset="0.71" stop-color="#FFA200"></stop>
  <stop offset="0.86" stop-color="#FFAF00"></stop>
  <stop offset="1" stop-color="#FFB300"></stop>
  </linearGradient>
  <linearGradient id="paint9_linear_1_176" x1="216.68" y1="73.12" x2="264.01" y2="64.43" gradientUnits="userSpaceOnUse">
  <stop offset="0.33" stop-color="#FF0400"></stop>
  <stop offset="0.37" stop-color="#FF1700"></stop>
  <stop offset="0.48" stop-color="#FF4600"></stop>
  <stop offset="0.59" stop-color="#FF6D00"></stop>
  <stop offset="0.7" stop-color="#FF8C00"></stop>
  <stop offset="0.8" stop-color="#FFA200"></stop>
  <stop offset="0.91" stop-color="#FFAF00"></stop>
  <stop offset="1" stop-color="#FFB300"></stop>
  </linearGradient>
  <linearGradient id="paint10_linear_1_176" x1="191.18" y1="53.5" x2="207.55" y2="8.83" gradientUnits="userSpaceOnUse">
  <stop offset="0.35" stop-color="#FF0400"></stop>
  <stop offset="0.39" stop-color="#FF1700"></stop>
  <stop offset="0.5" stop-color="#FF4600"></stop>
  <stop offset="0.6" stop-color="#FF6D00"></stop>
  <stop offset="0.71" stop-color="#FF8C00"></stop>
  <stop offset="0.81" stop-color="#FFA200"></stop>
  <stop offset="0.91" stop-color="#FFAF00"></stop>
  <stop offset="1" stop-color="#FFB300"></stop>
  </linearGradient>
  <linearGradient id="paint11_linear_1_176" x1="118.54" y1="20.32" x2="151.51" y2="35.55" gradientUnits="userSpaceOnUse">
  <stop offset="0.19" stop-color="#FF3700"></stop>
  <stop offset="0.25" stop-color="#FF4700"></stop>
  <stop offset="0.4" stop-color="#FF6D00"></stop>
  <stop offset="0.56" stop-color="#FF8C00"></stop>
  <stop offset="0.72" stop-color="#FFA200"></stop>
  <stop offset="0.86" stop-color="#FFAF00"></stop>
  <stop offset="1" stop-color="#FFB300"></stop>
  </linearGradient>
  <linearGradient id="paint12_linear_1_176" x1="133.88" y1="58.83" x2="217.69" y2="142.64" gradientUnits="userSpaceOnUse">
  <stop stop-color="#FF9100"></stop>
  <stop offset="1" stop-color="#FF2F00"></stop>
  </linearGradient>
  <linearGradient id="paint13_linear_1_176" x1="215.24" y1="140.18" x2="140.57" y2="65.51" gradientUnits="userSpaceOnUse">
  <stop stop-color="#FFDE38"></stop>
  <stop offset="0.62" stop-color="#FF852E"></stop>
  <stop offset="0.78" stop-color="#EC5C17"></stop>
  <stop offset="0.92" stop-color="#DE3E06"></stop>
  <stop offset="1" stop-color="#D93300"></stop>
  </linearGradient>
  <linearGradient id="paint14_linear_1_176" x1="66.15" y1="11.19" x2="134.85" y2="11.19" gradientUnits="userSpaceOnUse">
  <stop stop-color="#FF0400"></stop>
  <stop offset="0.06" stop-color="#FF1700"></stop>
  <stop offset="0.22" stop-color="#FF4600"></stop>
  <stop offset="0.39" stop-color="#FF6D00"></stop>
  <stop offset="0.55" stop-color="#FF8C00"></stop>
  <stop offset="0.71" stop-color="#FFA200"></stop>
  <stop offset="0.86" stop-color="#FFAF00"></stop>
  <stop offset="1" stop-color="#FFB300"></stop>
  </linearGradient>
  <linearGradient id="paint15_linear_1_176" x1="135.04" y1="132.48" x2="113.87" y2="107.08" gradientUnits="userSpaceOnUse">
  <stop stop-color="#FED645"></stop>
  <stop offset="0.23" stop-color="#FED241"></stop>
  <stop offset="0.48" stop-color="#FEC834"></stop>
  <stop offset="0.74" stop-color="#FFB61E"></stop>
  <stop offset="1" stop-color="#FF9D00"></stop>
  </linearGradient>
  <linearGradient id="paint16_linear_1_176" x1="140.44" y1="157.9" x2="171.48" y2="152.82" gradientUnits="userSpaceOnUse">
  <stop stop-color="#FFCE1E"></stop>
  <stop offset="0.5" stop-color="#FFE669"></stop>
  <stop offset="1" stop-color="#FFCE1F"></stop>
  </linearGradient>
  <linearGradient id="paint17_linear_1_176" x1="158.16" y1="113.27" x2="181.88" y2="84.39" gradientUnits="userSpaceOnUse">
  <stop stop-color="#FFCE1E"></stop>
  <stop offset="0.5" stop-color="#FFEC8C"></stop>
  <stop offset="1" stop-color="#FFCE1F"></stop>
  </linearGradient>
  <linearGradient id="paint18_linear_1_176" x1="230.58" y1="98.33" x2="215.05" y2="59.66" gradientUnits="userSpaceOnUse">
  <stop offset="0.5" stop-color="#FFE669"></stop>
  <stop offset="1" stop-color="#FFC617"></stop>
  </linearGradient>
  <linearGradient id="paint19_linear_1_176" x1="172.09" y1="53.79" x2="156.57" y2="43.27" gradientUnits="userSpaceOnUse">
  <stop stop-color="#FEA500"></stop>
  <stop offset="0.34" stop-color="#FEA100"></stop>
  <stop offset="0.71" stop-color="#FF9400"></stop>
  <stop offset="1" stop-color="#FF8400"></stop>
  </linearGradient>
  <linearGradient id="paint20_linear_1_176" x1="145.62" y1="70.57" x2="210.08" y2="135.03" gradientUnits="userSpaceOnUse">
  <stop stop-color="#FFAA00"></stop>
  <stop offset="1" stop-color="#FF4A01"></stop>
  </linearGradient>
  <linearGradient id="paint21_linear_1_176" x1="180.88" y1="120.44" x2="180.88" y2="91.67" gradientUnits="userSpaceOnUse">
  <stop stop-color="white" stop-opacity="0"></stop>
  <stop offset="0.06" stop-color="white" stop-opacity="0.02"></stop>
  <stop offset="0.12" stop-color="white" stop-opacity="0.07"></stop>
  <stop offset="0.19" stop-color="white" stop-opacity="0.15"></stop>
  <stop offset="0.25" stop-color="white" stop-opacity="0.26"></stop>
  <stop offset="0.32" stop-color="white" stop-opacity="0.41"></stop>
  <stop offset="0.38" stop-color="white" stop-opacity="0.59"></stop>
  <stop offset="0.44" stop-color="white" stop-opacity="0.8"></stop>
  <stop offset="0.5" stop-color="white"></stop>
  <stop offset="0.56" stop-color="white" stop-opacity="0.8"></stop>
  <stop offset="0.62" stop-color="white" stop-opacity="0.59"></stop>
  <stop offset="0.68" stop-color="white" stop-opacity="0.41"></stop>
  <stop offset="0.75" stop-color="white" stop-opacity="0.26"></stop>
  <stop offset="0.81" stop-color="white" stop-opacity="0.15"></stop>
  <stop offset="0.88" stop-color="white" stop-opacity="0.07"></stop>
  <stop offset="0.94" stop-color="white" stop-opacity="0.02"></stop>
  <stop offset="1" stop-color="white" stop-opacity="0"></stop>
  </linearGradient>
  <linearGradient id="paint22_linear_1_176" x1="169.16" y1="106.05" x2="192.61" y2="106.05" gradientUnits="userSpaceOnUse">
  <stop stop-color="white" stop-opacity="0"></stop>
  <stop offset="0.04" stop-color="white" stop-opacity="0.04"></stop>
  <stop offset="0.11" stop-color="white" stop-opacity="0.13"></stop>
  <stop offset="0.2" stop-color="white" stop-opacity="0.29"></stop>
  <stop offset="0.3" stop-color="white" stop-opacity="0.5"></stop>
  <stop offset="0.41" stop-color="white" stop-opacity="0.78"></stop>
  <stop offset="0.5" stop-color="white"></stop>
  <stop offset="0.51" stop-color="white" stop-opacity="0.93"></stop>
  <stop offset="0.55" stop-color="white" stop-opacity="0.74"></stop>
  <stop offset="0.59" stop-color="white" stop-opacity="0.56"></stop>
  <stop offset="0.63" stop-color="white" stop-opacity="0.41"></stop>
  <stop offset="0.67" stop-color="white" stop-opacity="0.28"></stop>
  <stop offset="0.71" stop-color="white" stop-opacity="0.18"></stop>
  <stop offset="0.76" stop-color="white" stop-opacity="0.1"></stop>
  <stop offset="0.82" stop-color="white" stop-opacity="0.04"></stop>
  <stop offset="0.89" stop-color="white" stop-opacity="0.01"></stop>
  <stop offset="1" stop-color="white" stop-opacity="0"></stop>
  </linearGradient>
  <linearGradient id="paint23_linear_1_176" x1="245.31" y1="99.94" x2="245.31" y2="42.49" gradientUnits="userSpaceOnUse">
  <stop stop-color="white" stop-opacity="0"></stop>
  <stop offset="0.04" stop-color="#FFFEF9" stop-opacity="0.04"></stop>
  <stop offset="0.11" stop-color="#FFFBEA" stop-opacity="0.13"></stop>
  <stop offset="0.2" stop-color="#FFF7D1" stop-opacity="0.29"></stop>
  <stop offset="0.3" stop-color="#FFF1AE" stop-opacity="0.5"></stop>
  <stop offset="0.41" stop-color="#FFEA82" stop-opacity="0.78"></stop>
  <stop offset="0.5" stop-color="#FFE45E"></stop>
  <stop offset="0.51" stop-color="#FFE66A" stop-opacity="0.93"></stop>
  <stop offset="0.55" stop-color="#FFEB89" stop-opacity="0.74"></stop>
  <stop offset="0.59" stop-color="#FFF0A5" stop-opacity="0.56"></stop>
  <stop offset="0.63" stop-color="#FFF4BD" stop-opacity="0.41"></stop>
  <stop offset="0.67" stop-color="#FFF7D2" stop-opacity="0.28"></stop>
  <stop offset="0.71" stop-color="#FFFAE2" stop-opacity="0.18"></stop>
  <stop offset="0.76" stop-color="#FFFCEF" stop-opacity="0.1"></stop>
  <stop offset="0.82" stop-color="#FFFEF8" stop-opacity="0.04"></stop>
  <stop offset="0.89" stop-color="#FFFFFD" stop-opacity="0.01"></stop>
  <stop offset="1" stop-color="white" stop-opacity="0"></stop>
  </linearGradient>
  <linearGradient id="paint24_linear_1_176" x1="221.89" y1="71.21" x2="268.72" y2="71.21" gradientUnits="userSpaceOnUse">
  <stop stop-color="white" stop-opacity="0"></stop>
  <stop offset="0.04" stop-color="#FFFEF9" stop-opacity="0.04"></stop>
  <stop offset="0.11" stop-color="#FFFBEA" stop-opacity="0.13"></stop>
  <stop offset="0.2" stop-color="#FFF7D1" stop-opacity="0.29"></stop>
  <stop offset="0.3" stop-color="#FFF1AE" stop-opacity="0.5"></stop>
  <stop offset="0.41" stop-color="#FFEA82" stop-opacity="0.78"></stop>
  <stop offset="0.5" stop-color="#FFE45E"></stop>
  <stop offset="0.51" stop-color="#FFE66A" stop-opacity="0.93"></stop>
  <stop offset="0.55" stop-color="#FFEB89" stop-opacity="0.74"></stop>
  <stop offset="0.59" stop-color="#FFF0A5" stop-opacity="0.56"></stop>
  <stop offset="0.63" stop-color="#FFF4BD" stop-opacity="0.41"></stop>
  <stop offset="0.67" stop-color="#FFF7D2" stop-opacity="0.28"></stop>
  <stop offset="0.71" stop-color="#FFFAE2" stop-opacity="0.18"></stop>
  <stop offset="0.76" stop-color="#FFFCEF" stop-opacity="0.1"></stop>
  <stop offset="0.82" stop-color="#FFFEF8" stop-opacity="0.04"></stop>
  <stop offset="0.89" stop-color="#FFFFFD" stop-opacity="0.01"></stop>
  <stop offset="1" stop-color="white" stop-opacity="0"></stop>
  </linearGradient>
  <linearGradient id="paint25_linear_1_176" x1="118.81" y1="148.19" x2="118.81" y2="114.83" gradientUnits="userSpaceOnUse">
  <stop stop-color="white" stop-opacity="0"></stop>
  <stop offset="0.04" stop-color="#FFFEF9" stop-opacity="0.04"></stop>
  <stop offset="0.11" stop-color="#FFFBEA" stop-opacity="0.13"></stop>
  <stop offset="0.2" stop-color="#FFF7D1" stop-opacity="0.29"></stop>
  <stop offset="0.3" stop-color="#FFF1AE" stop-opacity="0.5"></stop>
  <stop offset="0.41" stop-color="#FFEA82" stop-opacity="0.78"></stop>
  <stop offset="0.5" stop-color="#FFE45E"></stop>
  <stop offset="0.51" stop-color="#FFE66A" stop-opacity="0.93"></stop>
  <stop offset="0.55" stop-color="#FFEB89" stop-opacity="0.74"></stop>
  <stop offset="0.59" stop-color="#FFF0A5" stop-opacity="0.56"></stop>
  <stop offset="0.63" stop-color="#FFF4BD" stop-opacity="0.41"></stop>
  <stop offset="0.67" stop-color="#FFF7D2" stop-opacity="0.28"></stop>
  <stop offset="0.71" stop-color="#FFFAE2" stop-opacity="0.18"></stop>
  <stop offset="0.76" stop-color="#FFFCEF" stop-opacity="0.1"></stop>
  <stop offset="0.82" stop-color="#FFFEF8" stop-opacity="0.04"></stop>
  <stop offset="0.89" stop-color="#FFFFFD" stop-opacity="0.01"></stop>
  <stop offset="1" stop-color="white" stop-opacity="0"></stop>
  </linearGradient>
  <linearGradient id="paint26_linear_1_176" x1="105.21" y1="131.51" x2="132.41" y2="131.51" gradientUnits="userSpaceOnUse">
  <stop stop-color="white" stop-opacity="0"></stop>
  <stop offset="0.04" stop-color="#FFFEF9" stop-opacity="0.04"></stop>
  <stop offset="0.11" stop-color="#FFFBEA" stop-opacity="0.13"></stop>
  <stop offset="0.2" stop-color="#FFF7D1" stop-opacity="0.29"></stop>
  <stop offset="0.3" stop-color="#FFF1AE" stop-opacity="0.5"></stop>
  <stop offset="0.41" stop-color="#FFEA82" stop-opacity="0.78"></stop>
  <stop offset="0.5" stop-color="#FFE45E"></stop>
  <stop offset="0.51" stop-color="#FFE66A" stop-opacity="0.93"></stop>
  <stop offset="0.55" stop-color="#FFEB89" stop-opacity="0.74"></stop>
  <stop offset="0.59" stop-color="#FFF0A5" stop-opacity="0.56"></stop>
  <stop offset="0.63" stop-color="#FFF4BD" stop-opacity="0.41"></stop>
  <stop offset="0.67" stop-color="#FFF7D2" stop-opacity="0.28"></stop>
  <stop offset="0.71" stop-color="#FFFAE2" stop-opacity="0.18"></stop>
  <stop offset="0.76" stop-color="#FFFCEF" stop-opacity="0.1"></stop>
  <stop offset="0.82" stop-color="#FFFEF8" stop-opacity="0.04"></stop>
  <stop offset="0.89" stop-color="#FFFFFD" stop-opacity="0.01"></stop>
  <stop offset="1" stop-color="white" stop-opacity="0"></stop>
  </linearGradient>
  <linearGradient id="paint27_linear_1_176" x1="146.01" y1="53.87" x2="146.01" y2="0.959999" gradientUnits="userSpaceOnUse">
  <stop stop-color="white" stop-opacity="0"></stop>
  <stop offset="0.04" stop-color="#FFFEFB" stop-opacity="0.04"></stop>
  <stop offset="0.11" stop-color="#FFFDF1" stop-opacity="0.13"></stop>
  <stop offset="0.2" stop-color="#FFFAE1" stop-opacity="0.29"></stop>
  <stop offset="0.3" stop-color="#FFF6CA" stop-opacity="0.5"></stop>
  <stop offset="0.41" stop-color="#FFF2AD" stop-opacity="0.78"></stop>
  <stop offset="0.5" stop-color="#FFEE96"></stop>
  <stop offset="0.51" stop-color="#FFEF9E" stop-opacity="0.93"></stop>
  <stop offset="0.55" stop-color="#FFF3B2" stop-opacity="0.74"></stop>
  <stop offset="0.59" stop-color="#FFF5C4" stop-opacity="0.56"></stop>
  <stop offset="0.63" stop-color="#FFF8D4" stop-opacity="0.41"></stop>
  <stop offset="0.67" stop-color="#FFFAE1" stop-opacity="0.28"></stop>
  <stop offset="0.71" stop-color="#FFFCEC" stop-opacity="0.18"></stop>
  <stop offset="0.76" stop-color="#FFFDF5" stop-opacity="0.1"></stop>
  <stop offset="0.82" stop-color="#FFFEFB" stop-opacity="0.04"></stop>
  <stop offset="0.89" stop-color="#FFFFFE" stop-opacity="0.01"></stop>
  <stop offset="1" stop-color="white" stop-opacity="0"></stop>
  </linearGradient>
  <linearGradient id="paint28_linear_1_176" x1="124.45" y1="27.42" x2="167.58" y2="27.42" gradientUnits="userSpaceOnUse">
  <stop stop-color="white" stop-opacity="0"></stop>
  <stop offset="0.04" stop-color="#FFFEFB" stop-opacity="0.04"></stop>
  <stop offset="0.11" stop-color="#FFFDF1" stop-opacity="0.13"></stop>
  <stop offset="0.2" stop-color="#FFFAE1" stop-opacity="0.29"></stop>
  <stop offset="0.3" stop-color="#FFF6CA" stop-opacity="0.5"></stop>
  <stop offset="0.41" stop-color="#FFF2AD" stop-opacity="0.78"></stop>
  <stop offset="0.5" stop-color="#FFEE96"></stop>
  <stop offset="0.51" stop-color="#FFEF9E" stop-opacity="0.93"></stop>
  <stop offset="0.55" stop-color="#FFF3B2" stop-opacity="0.74"></stop>
  <stop offset="0.59" stop-color="#FFF5C4" stop-opacity="0.56"></stop>
  <stop offset="0.63" stop-color="#FFF8D4" stop-opacity="0.41"></stop>
  <stop offset="0.67" stop-color="#FFFAE1" stop-opacity="0.28"></stop>
  <stop offset="0.71" stop-color="#FFFCEC" stop-opacity="0.18"></stop>
  <stop offset="0.76" stop-color="#FFFDF5" stop-opacity="0.1"></stop>
  <stop offset="0.82" stop-color="#FFFEFB" stop-opacity="0.04"></stop>
  <stop offset="0.89" stop-color="#FFFFFE" stop-opacity="0.01"></stop>
  <stop offset="1" stop-color="white" stop-opacity="0"></stop>
  </linearGradient>
  <clipPath id="clip0_1_176">
  <rect width="275" height="200" fill="white"></rect>
  </clipPath>
  </defs>
  </svg>
