<svg xmlns:xlink="http://www.w3.org/1999/xlink" width="68" height="69" viewBox="0 0 68 69" fill="none" xmlns="http://www.w3.org/2000/svg">
<path d="M33.9477 64.093C50.5162 64.093 63.9477 50.6616 63.9477 34.093C63.9477 17.5245 50.5162 4.09302 33.9477 4.09302C17.3791 4.09302 3.94763 17.5245 3.94763 34.093C3.94763 50.6616 17.3791 64.093 33.9477 64.093Z" fill="#A85600"/>
<path d="M33.9484 4.09304V34.0927L45.4317 6.37086C41.7914 4.86238 37.8889 4.08828 33.9484 4.09304Z" fill="#ED870C"/>
<path d="M30.1344 4.33298L34.5548 8.75144L38.8159 4.4881C37.2062 4.22518 35.578 4.09305 33.947 4.09302C32.6724 4.09268 31.399 4.17283 30.1344 4.33298Z" fill="black"/>
<path d="M33.9484 34.093V64.0927C17.3794 64.0927 3.94873 50.662 3.94873 34.093H33.9484Z" fill="#9C4300"/>
<path d="M12.7367 55.3062L33.948 34.093L6.23294 45.5756C7.73998 49.2149 9.94793 52.5225 12.7311 55.3099L12.7367 55.3062Z" fill="#7A2C00"/>
<path d="M33.9477 34.0924L22.4674 6.37622C14.8135 9.54663 9.16939 15.5189 6.23148 22.6121L33.9477 34.0924Z" fill="#C46400"/>
<path d="M12.7345 12.8797L33.9477 34.0925H33.9499L15.9778 10.0696C14.8313 10.928 13.7475 11.8671 12.7345 12.8797Z" fill="#ED930C"/>
<path d="M6.23296 22.6113L33.9481 34.092L12.7352 12.8792C9.9492 15.6639 7.73806 18.9694 6.22772 22.6075L6.23296 22.6113Z" fill="#C56400"/>
<path d="M33.9476 34.093V64.093C50.5162 64.093 63.9477 50.6616 63.9477 34.093H33.9476Z" fill="#9C4300"/>
<path d="M61.6691 45.5763L33.9484 34.093L55.1615 55.3058C57.9476 52.5206 60.1587 49.2147 61.6691 45.5763Z" fill="#8A3200"/>
<path d="M61.6639 22.6128L33.9484 34.0924H63.9477C63.9488 30.1528 63.1749 26.2515 61.6702 22.6106L61.6639 22.6128Z" fill="#9C4300"/>
<path d="M3.94915 34.0931H33.948L6.2322 22.6135C4.7237 26.2524 3.94555 30.1524 3.94205 34.0916L3.94915 34.0931Z" fill="#A85600"/>
<path d="M33.9476 34.093V64.093C42.2317 64.093 49.732 60.735 55.1608 55.3062L33.9476 34.093Z" fill="#8A3200"/>
<path d="M45.4284 61.8081L33.9477 34.093L55.1605 55.3058C52.3755 58.0918 49.0699 60.3029 45.4317 61.8133C45.4308 61.8115 45.4297 61.8097 45.4284 61.8081Z" fill="#541E00"/>
<path d="M33.9476 34.093V64.093C25.6635 64.093 18.1636 60.735 12.7345 55.3062L33.9476 34.093Z" fill="#8A3200"/>
<path d="M33.9477 60.0374C48.2767 60.0374 59.8926 48.4215 59.8926 34.0926C59.8926 19.7636 48.2767 8.14771 33.9477 8.14771C19.6188 8.14771 8.00284 19.7636 8.00284 34.0926C8.00284 48.4215 19.6188 60.0374 33.9477 60.0374Z" fill="#300300"/>
<path d="M8.00278 34.093C8.00278 48.4223 19.6187 60.0383 33.9476 60.0383C48.2765 60.0383 59.8925 48.4223 59.8925 34.093H8.00278Z" fill="#B35C00"/>
<path d="M33.9476 34.093V60.0383C48.2769 60.0383 59.8925 48.4223 59.8925 34.093H33.9476Z" fill="#CC7400"/>
<path d="M33.9477 58.2034C47.2634 58.2034 58.058 47.4088 58.058 34.093C58.058 20.7772 47.2634 9.98267 33.9477 9.98267C20.6319 9.98267 9.83731 20.7772 9.83731 34.093C9.83731 47.4088 20.6319 58.2034 33.9477 58.2034Z" fill="black"/>
<path d="M33.9476 57.6764C46.9725 57.6764 57.5313 47.1176 57.5313 34.0927C57.5313 21.0678 46.9725 10.509 33.9476 10.509C20.9227 10.509 10.3639 21.0678 10.3639 34.0927C10.3639 47.1176 20.9227 57.6764 33.9476 57.6764Z" fill="url(#paint0_linear_2_79)"/>
<path d="M49.1516 36.4258C49.1583 38.229 48.8017 40.0151 48.1031 41.6775C47.4045 43.3398 46.3783 44.8444 45.0856 46.1015C42.4691 48.6597 38.9716 50.07 35.2365 50.07C29.0265 50.07 23.6492 46.1217 21.8981 40.3767H19.0925L18.9224 39.5888L17.6474 33.6879L17.3858 32.4757H21.9687C22.1773 31.8619 22.4263 31.2625 22.7141 30.6816H17.0105L16.8405 29.8944L15.5666 23.9946L15.305 22.7825H34.8537C38.8158 22.7825 42.4541 24.1901 45.0953 26.7445C47.7117 29.275 49.1516 32.7131 49.1516 36.4258Z" fill="black"/>
<path d="M27.6358 0.147705L27.2246 1.34941C21.4557 2.95405 15.9249 7.54856 11.6754 11.7977C7.42584 16.0468 2.81676 21.5885 1.21174 27.3623L0.0104065 27.7735L0.832724 29.0466L5.66159 27.8643C5.70645 27.6605 5.75529 27.4633 5.80811 27.273C8.3943 16.5701 16.9438 8.16941 27.7281 5.79777L28.9108 0.970023L27.6358 0.147705Z" fill="#541E00"/>
<path d="M9.55417 9.67911C4.54962 14.6837 1.27456 20.9557 0.0227661 27.7701L4.68493 26.6256C6.044 21.556 8.71316 16.4587 12.5238 12.6462C16.3345 8.83362 21.4251 6.17043 26.4905 4.81062L27.6354 0.147705C20.8244 1.40099 14.5576 4.67531 9.55417 9.67911Z" fill="#FFCE45"/>
<path d="M40.2602 0.147705L40.6714 1.34941C46.4403 2.95405 51.9711 7.54856 56.2207 11.7977C60.4702 16.0468 65.0793 21.5885 66.6843 27.3623L67.8856 27.7735L67.0633 29.0466L62.2344 27.8643C62.1895 27.6605 62.1407 27.4633 62.0879 27.273C59.5017 16.5701 50.9522 8.16941 40.1679 5.79777L38.9871 0.970023L40.2602 0.147705Z" fill="#541E00"/>
<path d="M67.8726 27.7704C66.6212 20.9549 63.3461 14.6829 58.3412 9.67942C53.3363 4.676 47.0709 1.40317 40.2599 0.150635L41.4044 4.81355C46.4699 6.17336 51.5634 8.84141 55.3715 12.6491C59.1796 16.4568 61.851 21.5574 63.2101 26.6285" fill="#FFCE45"/>
<path d="M40.2602 68.0222L40.6714 66.8204C46.4403 65.2158 51.9711 60.6213 56.2207 56.3721C60.4702 52.123 65.0793 46.5813 66.6843 40.8075L67.8856 40.3964L67.0633 39.1233L62.2344 40.3056C62.1895 40.5091 62.1407 40.7063 62.0879 40.8969C59.5017 51.5997 50.9522 60.0004 40.1679 62.3721L38.986 67.2009L40.2602 68.0222Z" fill="#FFBC2B"/>
<path d="M63.2104 41.546C61.8513 46.6156 59.1825 51.7128 55.3718 55.5235C51.5611 59.3342 46.4702 61.9996 41.4047 63.3595L40.2602 68.0224C47.0713 66.7698 53.3395 63.4955 58.3415 58.4936C63.3434 53.4916 66.6211 47.2166 67.8729 40.4026L63.2104 41.546Z" fill="#ED8200"/>
<path d="M27.6358 68.0222L27.2246 66.8204C21.4557 65.2158 15.9249 60.6213 11.6754 56.3721C7.42584 52.123 2.81676 46.5813 1.21174 40.8075L0.0104065 40.3964L0.832724 39.1233L5.66159 40.3056C5.70645 40.5091 5.75529 40.7063 5.80811 40.8969C8.3943 51.5997 16.9438 60.0004 27.7281 62.3721L28.9104 67.2009L27.6358 68.0222Z" fill="#FFBC2B"/>
<path d="M26.4909 63.3586C21.4254 61.9988 16.3319 59.3308 12.5242 55.5227C8.7165 51.7146 6.04433 46.6147 4.68527 41.5452L0.0231018 40.4006C1.27452 47.2158 4.54959 53.4878 9.55451 58.4916C14.5594 63.4954 20.8247 66.7679 27.6362 68.0204L26.4909 63.3586Z" fill="#ED8200"/>
<path d="M37.7619 4.33411L33.9485 0.520752L30.1352 4.33411L33.9485 8.14747L37.7619 4.33411Z" fill="#FFB430"/>
<path d="M33.9487 0.520752L30.1354 4.33406H33.9487V0.520752Z" fill="#FFE496"/>
<path d="M37.762 4.33423L33.9487 8.14754V4.33423H37.762Z" fill="#9C4300"/>
<path d="M37.7616 63.8517L33.9483 60.0383L30.1349 63.8517L33.9483 67.6651L37.7616 63.8517Z" fill="#FFB430"/>
<path d="M33.9486 60.0383L30.1353 63.8516H33.9486V60.0383Z" fill="#FFE496"/>
<path d="M37.7619 63.8518L33.9486 67.6651V63.8518H37.7619Z" fill="#9C4300"/>
<path d="M48.8289 35.6047C48.8289 39.2068 47.4126 42.5798 44.8421 45.0965C42.2769 47.606 38.8452 48.9868 35.1792 48.9868C31.7 48.9868 28.4885 47.7245 26.0537 45.5921C24.1894 43.964 22.8181 41.8465 22.0949 39.4793H19.3421L17.6683 31.7297H22.1645C22.3687 31.1273 22.6131 30.5393 22.896 29.9696H17.3016L15.6252 22.22H34.8054C42.799 22.22 48.8289 27.9747 48.8289 35.6047Z" fill="#A45200"/>
<path d="M40.5137 27.2326L42.42 24.2424C40.2521 22.9554 37.6554 22.2209 34.8053 22.2209H15.6252L21.8449 27.233L40.5137 27.2326Z" fill="#FFBC29"/>
<path d="M46.4449 43.2046L43.31 41.0901L35.1792 44.878L22.8425 38.4983H20.1334L19.3413 39.4798H22.095C22.8181 41.8471 24.1895 43.9646 26.0541 45.5927C28.4889 47.7232 31.7 48.9873 35.1792 48.9873C38.8452 48.9873 42.2769 47.6066 44.8422 45.097C45.4337 44.517 45.9703 43.8835 46.4449 43.2046Z" fill="#933701"/>
<path d="M35.1788 43.4356C39.504 43.4356 43.0102 39.9294 43.0102 35.6042C43.0102 31.279 39.504 27.7727 35.1788 27.7727C30.8536 27.7727 27.3473 31.279 27.3473 35.6042C27.3473 39.9294 30.8536 43.4356 35.1788 43.4356Z" fill="#590000"/>
<path d="M37.7944 28.2212C36.9543 27.9236 36.0693 27.7719 35.178 27.7727C30.8526 27.7727 27.3465 31.2791 27.3465 35.6042C27.3465 35.6924 27.3503 35.7798 27.3529 35.8658L35.178 35.6042L37.7944 28.2212Z" fill="#330500"/>
<path d="M43.0024 35.3401L35.1777 35.6017L32.5612 42.9843C33.4014 43.2818 34.2863 43.4335 35.1777 43.4328C39.5027 43.4328 43.0091 39.9268 43.0091 35.6014C43.0106 35.515 43.0069 35.4276 43.0024 35.3401Z" fill="#863601"/>
<path d="M40.3897 39.6615L35.1792 35.6038L37.4738 41.7966L38.5813 42.6592C39.4424 42.2422 40.2201 41.6713 40.8759 40.9746L40.3897 39.6615Z" fill="#C05700"/>
<path d="M38.3047 35.603C38.3047 37.3807 36.9711 38.7054 35.1792 38.7054C33.3873 38.7054 32.0533 37.3822 32.0533 35.603C32.0533 33.8238 33.3869 32.5006 35.1792 32.5006C36.9715 32.5006 38.3047 33.8249 38.3047 35.603ZM47.8489 35.603C47.8489 39.3662 46.1777 42.7116 43.5164 44.9771C41.295 46.868 38.3836 48.0047 35.1792 48.0047C31.8552 48.0047 28.8593 46.7914 26.614 44.7849C24.7479 43.1203 23.4325 40.9273 22.8426 38.4972H20.1334L18.8831 32.7088H22.8826C23.2546 31.3869 23.8312 30.1314 24.5915 28.9878H18.0899L16.8396 23.1995H34.8024C42.3894 23.1995 47.8489 28.6985 47.8489 35.603ZM41.8474 35.603C41.8474 31.9231 38.8882 28.9871 35.1792 28.9871C31.4702 28.9871 28.5106 31.9224 28.5106 35.603C28.5106 39.2836 31.4698 42.2189 35.1792 42.2189C38.8886 42.2189 41.8474 39.2821 41.8474 35.603Z" fill="#F59800"/>
<path d="M17.6675 31.7307L18.883 32.71L20.1333 38.4984L19.3409 39.4803L17.6675 31.7307Z" fill="#6F2A00"/>
<path d="M17.6675 31.7307H22.1637L22.884 32.71H18.883L17.6675 31.7307Z" fill="#FFBC29"/>
<path d="M17.3004 29.9697L18.091 28.9885H24.5929L22.8948 29.9697H17.3004Z" fill="#590000"/>
<path d="M17.3004 29.9696L18.091 28.9884L16.8407 23.2004L15.6244 22.22L17.3004 29.9696Z" fill="#6F2A00"/>
<path d="M36.3117 23.2766L17.8802 28.0027L18.0933 28.9887H24.5948C23.8346 30.1324 23.258 31.3879 22.8859 32.7097H18.8864L19.2976 34.616L29.5904 31.9767C30.7753 30.1714 32.8266 28.9865 35.1814 28.9865C36.2663 28.9838 37.3358 29.2433 38.2987 29.743L45.2196 27.9683C43.1687 25.3978 40.0495 23.6485 36.3117 23.2766Z" fill="#E48101"/>
<path d="M47.8193 36.427L41.3701 38.081C40.39 40.5165 38.0027 42.2187 35.1792 42.2187C33.6481 42.2252 32.1611 41.7061 30.9667 40.7483L24.5436 42.3952C25.1285 43.2777 25.824 44.0816 26.6132 44.7874C27.5101 45.5868 28.5171 46.2533 29.6035 46.7665L45.6286 42.6572C46.9181 40.8216 47.6762 38.6657 47.8193 36.427Z" fill="#F5B419"/>
<defs>
<linearGradient id="paint0_linear_2_79" x1="33.9476" y1="10.7767" x2="33.9476" y2="56.9666" gradientUnits="userSpaceOnUse">
<stop stop-color="#703204"/>
<stop offset="1" stop-color="#170A00"/>
</linearGradient>
</defs>
</svg>