<svg xmlns:xlink="http://www.w3.org/1999/xlink" width="104" height="69" viewBox="0 0 104 69" fill="none" xmlns="http://www.w3.org/2000/svg">
<path d="M15.807 -0.000732422C15.807 -0.000732422 9.48035 2.31671 9.75171 9.10644L19.7997 17.7882L26.5804 10.6995C26.5804 10.6995 18.3767 7.47862 15.8167 -0.000732422H15.807Z" fill="#87C6D6"/>
<path d="M12.4392 10.5728C12.5469 10.9802 12.6291 11.3334 12.6833 11.641L9.75172 9.10644C9.48783 2.31671 15.807 -0.000732422 15.807 -0.000732422C15.807 -0.000732422 10.5475 3.28518 12.4321 10.5728H12.4392Z" fill="#77ACAB"/>
<path d="M15.5079 4.48853C15.5079 4.48853 15.0197 9.51288 21.8543 13.6136L22.7514 11.4412C22.7514 11.4412 17.69 8.9709 15.5079 4.48853Z" fill="#C7FBF4"/>
<path d="M22.569 48.8674L14.2867 49.7458L17.3353 56.1457L27.8113 55.7928L22.569 48.8674Z" fill="#18388A"/>
<path d="M15.6604 48.6487L13.3531 49.074C12.9102 54.8303 16.8214 57.7921 16.8214 57.7921L18.2945 55.2302C15.5696 52.5596 15.6604 48.6487 15.6604 48.6487Z" fill="#4949BA"/>
<path d="M27.8001 55.7924L18.2859 55.2317L16.8102 57.794L27.9115 56.8793L27.7922 55.7931L27.8001 55.7924Z" fill="#360C72"/>
<path d="M17.6617 40.0667L7.96582 41.0901L11.5421 48.5855L23.7924 48.1784L17.6617 40.0667Z" fill="#3E78CF"/>
<path d="M9.58645 39.8147L6.88999 40.3126C6.3667 47.0477 10.9459 50.5243 10.9459 50.5243L12.6746 47.5277C9.4788 44.4043 9.59504 39.8147 9.59504 39.8147H9.58645Z" fill="#4949BA"/>
<path d="M23.7894 48.179L12.6548 47.5178L10.9355 50.5148L23.9266 49.4462L23.7894 48.179Z" fill="#061778"/>
<path d="M22.9293 29.7475L6.25424 23.9446V37.9494L23.3663 39.6422H23.3749V39.6333L22.9293 29.7475Z" fill="#82BBF0"/>
<path d="M8.01099 29.7463C8.01099 29.7463 9.75952 34.0284 22.4613 36.2823L23.1113 34.3812L8.01099 29.7463Z" fill="#90F0E7"/>
<path d="M6.26583 23.9442L5.40613 23.0471C1.63095 34.1641 5.40613 40.7094 5.40613 40.7094L8.7182 37.1338C6.29161 32.6252 6.27442 23.9434 6.27442 23.9434L6.26583 23.9442Z" fill="#6666CC"/>
<path d="M8.70959 37.1252L23.8103 39.8049L23.376 41.8326L5.3949 40.7012L8.70959 37.1252Z" fill="#2A3296"/>
<path d="M2.98627 0.107666C2.98627 0.107666 -0.527277 5.54842 0.307001 13.6961C0.311213 13.778 0.319703 13.8595 0.332425 13.9405C0.629624 16.7901 1.69391 19.5058 3.41201 21.7985C5.12947 24.0893 7.42988 25.8776 10.0735 26.9769L23.8178 32.6341L24.6951 26.5325L2.98627 0.107666Z" fill="#29668E"/>
<path d="M0.308119 13.6953C0.31233 13.7772 0.320803 13.8588 0.333524 13.9397C0.631569 16.7877 1.69252 19.5024 3.40451 21.7977L5.04915 16.1305L3.57346 0.812938L2.99449 0.0979004C2.99449 0.0979004 -0.516453 5.53865 0.314835 13.6863L0.308119 13.6953Z" fill="#50A3A2"/>
<path d="M28.0356 24.2789L2.98629 0.107666C2.98629 0.107666 -1.39628 14.0041 6.83213 19.9337C14.0939 25.1584 26.1454 29.1579 26.1454 29.1579L28.0356 24.2872V24.2789Z" fill="#BBC0ED"/>
<path d="M2.98627 0.107666C2.98627 0.107666 5.00467 8.97972 12.5087 15.0451C20.0135 21.1003 26.3431 24.7768 26.3431 24.7768L26.9037 22.9845L2.98627 0.107666Z" fill="#C7FBF4"/>
<path d="M28.0269 25.6009L2.78851 10.2385C2.78851 10.2385 4.2571 15.1631 10.9261 19.0287C17.4459 22.8129 27.9279 26.5152 27.9279 26.5152L28.0355 25.6099L28.0269 25.6009Z" fill="#AEFCD0"/>
<path d="M88.1821 -0.000732422C85.622 7.47488 77.4191 10.6995 77.4191 10.6995L84.1998 17.7882L94.2478 9.10644C94.5203 2.31671 88.1925 -0.000732422 88.1925 -0.000732422H88.1821Z" fill="#87C6D6"/>
<path d="M91.5681 10.5728C93.4527 3.28406 88.1933 -0.000732422 88.1933 -0.000732422C88.1933 -0.000732422 94.5102 2.31671 94.2485 9.10644L91.3162 11.641C91.3704 11.3334 91.4527 10.9802 91.5607 10.5728H91.5681Z" fill="#77ACAB"/>
<path d="M81.248 11.4408L82.1451 13.6133C88.9797 9.51401 88.4915 4.48853 88.4915 4.48853C86.3087 8.9709 81.248 11.4408 81.248 11.4408Z" fill="#C7FBF4"/>
<path d="M76.1874 55.7932L86.6638 56.1461L89.712 49.7458L81.4297 48.8674L76.1874 55.7932Z" fill="#18388A"/>
<path d="M85.7039 55.2302L87.177 57.7921C87.177 57.7921 91.0882 54.8318 90.6453 49.074L88.3379 48.6487C88.3379 48.6487 88.4292 52.5596 85.7039 55.2302Z" fill="#4949BA"/>
<path d="M76.2072 55.7921L76.088 56.8783L87.1893 57.793L85.7136 55.2307L76.1994 55.7914L76.2072 55.7921Z" fill="#360C72"/>
<path d="M80.2064 48.1784L92.4567 48.5855L96.033 41.0901L86.3371 40.0667L80.2064 48.1784Z" fill="#3E78CF"/>
<path d="M94.4036 39.8147C94.4036 39.8147 94.5202 44.4043 91.324 47.5277L93.0528 50.5243C93.0528 50.5243 97.6338 47.0481 97.1087 40.3126L94.4129 39.8147H94.4036Z" fill="#4949BA"/>
<path d="M80.0729 49.4462L93.064 50.5148L91.3446 47.5178L80.2093 48.179L80.0729 49.4462Z" fill="#061778"/>
<path d="M81.069 29.7475L97.7445 23.9446V37.9494L80.632 39.6422H80.6235V39.6333L81.069 29.7475Z" fill="#82BBF0"/>
<path d="M80.8878 34.3812L81.5378 36.2823C94.2392 34.0284 95.9877 29.7463 95.9877 29.7463L80.8878 34.3812Z" fill="#90F0E7"/>
<path d="M97.7247 23.9434C97.7247 23.9434 97.7075 32.6252 95.2809 37.1338L98.593 40.7094C98.593 40.7094 102.368 34.1641 98.593 23.0471L97.7333 23.9442L97.7247 23.9434Z" fill="#6666CC"/>
<path d="M98.6046 40.7012L80.6235 41.8326L80.1895 39.8049L95.2903 37.1252L98.6046 40.7012Z" fill="#2A3296"/>
<path d="M79.3036 26.533L80.1809 32.6338L93.9241 26.9759C96.5678 25.8767 98.8682 24.0884 100.586 21.7976C102.304 19.5048 103.368 16.7892 103.665 13.9396C103.678 13.8586 103.687 13.777 103.691 13.6951C104.525 5.5467 101.011 0.106689 101.011 0.106689L79.3036 26.533Z" fill="#29668E"/>
<path d="M103.683 13.6863C104.514 5.53791 101.003 0.0979004 101.003 0.0979004L100.424 0.812938L98.9484 16.1305L100.593 21.7977C102.305 19.5024 103.366 16.7877 103.664 13.9397C103.677 13.8588 103.686 13.7772 103.69 13.6953L103.683 13.6863Z" fill="#50A3A2"/>
<path d="M75.9632 24.2877L77.8545 29.1577C77.8545 29.1577 89.906 25.156 97.1667 19.9328C105.395 14.0031 101.012 0.106689 101.012 0.106689L75.9632 24.2787V24.2877Z" fill="#BBC0ED"/>
<path d="M77.0927 22.9845L77.6534 24.7768C77.6534 24.7768 83.9826 21.1014 91.4874 15.0451C98.9918 8.97972 101.01 0.107666 101.01 0.107666L77.0927 22.9845Z" fill="#C7FBF4"/>
<path d="M75.9632 25.6103L76.0708 26.5156C76.0708 26.5156 86.5531 22.8133 93.0726 19.0291C99.7427 15.1635 101.21 10.2385 101.21 10.2385L75.9718 25.6009L75.9632 25.6103Z" fill="#AEFCD0"/>
<path d="M52.0063 64.177C68.5749 64.177 82.0064 50.7456 82.0064 34.177C82.0064 17.6085 68.5749 4.177 52.0063 4.177C35.4378 4.177 22.0063 17.6085 22.0063 34.177C22.0063 50.7456 35.4378 64.177 52.0063 64.177Z" fill="#AEFCF0"/>
<path d="M52.0064 34.1764L40.5261 6.46021C32.8722 9.63061 27.2281 15.6029 24.2902 22.6961L52.0064 34.1764Z" fill="#C7FBF4"/>
<path d="M30.7928 12.9636L52.0064 34.1764H52.0086L34.035 10.1536C32.8889 11.0121 31.8055 11.9511 30.7928 12.9636Z" fill="#F8B7E1"/>
<path d="M24.2917 22.6962L52.0068 34.1769L30.7955 12.9641C28.0094 15.7489 25.7983 19.0544 24.2879 22.6925L24.2917 22.6962Z" fill="#FBEFA2"/>
<path d="M52.0064 64.177C35.4378 64.177 22.0063 50.7456 22.0063 34.177H52.0064V64.177Z" fill="#FE9679"/>
<path d="M52.0064 34.177V64.177C68.575 64.177 82.006 50.7456 82.006 34.177H52.0064Z" fill="#7EE6FC"/>
<path d="M79.7233 45.658L52.0071 34.177L73.2196 55.3898C76.0057 52.605 78.2169 49.2995 79.7275 45.6614L79.7233 45.658Z" fill="#5F9BDD"/>
<path d="M79.7233 22.6977L52.0071 34.1772H82.0064C82.0073 30.238 81.2335 26.3371 79.7289 22.6965L79.7233 22.6977Z" fill="#7EE6FC"/>
<path d="M30.7955 55.3902L52.0068 34.177L24.2917 45.6592C25.7988 49.2986 28.0067 52.6062 30.7899 55.3939L30.7955 55.3902Z" fill="#7C80F4"/>
<path d="M22.0079 34.1771H52.0068L24.2917 22.6975C22.7837 26.3365 22.006 30.2365 22.0026 34.1756L22.0079 34.1771Z" fill="#FE9679"/>
<path d="M52.0064 34.177V64.177C60.2905 64.177 67.7904 60.819 73.2196 55.3902L52.0064 34.177Z" fill="#5E50CC"/>
<path d="M52.0064 34.177V64.177C48.066 64.1823 44.1633 63.4088 40.5228 61.9008C36.8823 60.3929 33.5758 58.1803 30.7932 55.3902L52.0064 34.177Z" fill="#1C66BA"/>
<path d="M52.0064 34.177V64.177C48.2301 64.1816 44.4871 63.4714 40.975 62.0838" fill="#1C3EBA"/>
<path d="M44.8956 61.0069L49.0737 63.5632L49.0565 63.5725L56.2716 63.2825L59.9275 61.7231V58.593L44.8956 61.0069Z" fill="#000002"/>
<path d="M52.0064 60.1214C66.3353 60.1214 77.9513 48.5055 77.9513 34.1766C77.9513 19.8476 66.3353 8.23169 52.0064 8.23169C37.6774 8.23169 26.0615 19.8476 26.0615 34.1766C26.0615 48.5055 37.6774 60.1214 52.0064 60.1214Z" fill="#360C72"/>
<path d="M26.0615 34.177C26.0615 48.5063 37.6775 60.1222 52.0064 60.1222C66.3352 60.1222 77.9512 48.5063 77.9512 34.177H26.0615Z" fill="white"/>
<path d="M52.0064 34.177V60.1222C66.3353 60.1222 77.9513 48.5063 77.9513 34.177H52.0064Z" fill="#FEC2B2"/>
<path d="M52.0063 58.2873C65.3221 58.2873 76.1167 47.4928 76.1167 34.177C76.1167 20.8612 65.3221 10.0667 52.0063 10.0667C38.6906 10.0667 27.896 20.8612 27.896 34.177C27.896 47.4928 38.6906 58.2873 52.0063 58.2873Z" fill="black"/>
<path d="M52.0063 57.7604C65.0312 57.7604 75.5901 47.2016 75.5901 34.1767C75.5901 21.1518 65.0312 10.593 52.0063 10.593C38.9814 10.593 28.4227 21.1518 28.4227 34.1767C28.4227 47.2016 38.9814 57.7604 52.0063 57.7604Z" fill="url(#paint0_linear_2_669)"/>
<path d="M67.2103 36.509C67.2169 38.3122 66.8603 40.0983 66.1618 41.7607C65.4632 43.4231 64.437 44.9278 63.1443 46.1851C60.5278 48.7428 57.0304 50.1531 53.2952 50.1531C47.0852 50.1531 41.708 46.2049 39.9568 40.4599H37.1497L36.9796 39.6719L35.7047 33.7711L35.443 32.5589H40.0278C40.2364 31.9451 40.4853 31.3458 40.7728 30.7647H35.0681L34.898 29.9776L33.6235 24.0767L33.3618 22.8645H52.9105C56.8726 22.8645 60.511 24.2722 63.1521 26.8266C65.7701 29.3582 67.2103 32.7962 67.2103 36.509Z" fill="black"/>
<path d="M63.8795 7.76095L61.4966 10.0234L61.8637 12.1682L55.943 10.5336L58.3057 5.79224C58.3057 5.79224 62.3399 6.32974 63.8795 7.76095Z" fill="black"/>
<path d="M66.8956 35.6891C66.8956 39.2913 65.4793 42.6642 62.9088 45.1809C60.3436 47.6905 56.9119 49.0712 53.2459 49.0712C49.7667 49.0712 46.5552 47.809 44.1208 45.6765C42.2562 44.0486 40.8849 41.931 40.162 39.5637H37.408L35.7342 31.8141H40.2308C40.4349 31.2122 40.6793 30.6247 40.9623 30.0555H35.3676L33.6912 22.3059H52.8717C60.8658 22.3044 66.8956 28.0591 66.8956 35.6891Z" fill="#4E11A6"/>
<path d="M58.5805 27.3166L60.4867 24.3263C58.3188 23.0394 55.7222 22.3049 52.8725 22.3049H33.6912L39.9109 27.317L58.5805 27.3166Z" fill="#FEC2B2"/>
<path d="M64.5105 43.2874L61.376 41.1729L53.2459 44.962L40.9093 38.5823H38.2001L37.4081 39.5638H40.1621C40.8849 41.9311 42.2563 44.0487 44.1208 45.6766C46.5556 47.8072 49.7668 49.0713 53.2459 49.0713C56.9119 49.0713 60.3436 47.6906 62.9089 45.181C63.5001 44.6006 64.0363 43.9667 64.5105 43.2874Z" fill="#3F3FCC"/>
<path d="M53.2455 43.5196C57.5707 43.5196 61.0769 40.0133 61.0769 35.6881C61.0769 31.3629 57.5707 27.8567 53.2455 27.8567C48.9203 27.8567 45.414 31.3629 45.414 35.6881C45.414 40.0133 48.9203 43.5196 53.2455 43.5196Z" fill="#180169"/>
<path d="M55.8612 28.3052C55.0211 28.0075 54.1361 27.8558 53.2448 27.8567C48.9194 27.8567 45.4133 31.3631 45.4133 35.6881C45.4133 35.7764 45.4171 35.8638 45.4197 35.9498L53.2448 35.6881L55.8612 28.3052Z" fill="#180036"/>
<path d="M61.0717 35.4241L53.247 35.6857L50.6306 43.0683C51.4708 43.3658 52.3557 43.5175 53.247 43.5168C57.572 43.5168 61.0785 40.0107 61.0785 35.6853C61.0774 35.599 61.0736 35.5119 61.0717 35.4241Z" fill="#222B97"/>
<path d="M58.4553 39.7455L53.2448 35.6877L55.5398 41.8805L56.6477 42.7432C57.5086 42.3261 58.2861 41.7552 58.9419 41.0586L58.4553 39.7455Z" fill="#5A31AD"/>
<path d="M35.7343 31.8147L36.9498 32.794L38.2001 38.5824L37.4077 39.5643L35.7343 31.8147Z" fill="#9E41A6"/>
<path d="M35.7343 31.8147H40.2305L40.9508 32.794H36.9498L35.7343 31.8147Z" fill="#FEC2B2"/>
<path d="M35.3672 30.0537L36.1577 29.0725H42.6597L40.9616 30.0537H35.3672Z" fill="#5E50CC"/>
<path d="M35.3671 30.0536L36.1577 29.0724L34.9074 23.2844L33.6911 22.304L35.3671 30.0536Z" fill="#9E41A6"/>
<path d="M58.1257 31.1622L64.3132 29.5736L64.3129 29.5732L58.1253 31.1622H58.1257Z" fill="white"/>
<path d="M46.7911 34.0723L37.7326 36.3979V36.3983L46.7908 34.0726L46.7911 34.0723Z" fill="white"/>
<path d="M56.8343 23.8232L36.3866 29.0734H42.6549L42.6497 29.0816L59.3151 24.8029C58.5234 24.3933 57.6922 24.065 56.8343 23.8232Z" fill="#B1EDFF"/>
<path d="M53.2542 29.0733C54.4094 29.0708 55.5455 29.3669 56.5525 29.933L63.3822 28.1792C62.8279 27.4659 62.1955 26.8168 61.4968 26.2441L41.4342 31.3937C41.2454 31.8514 41.0849 32.3203 40.9535 32.7976H36.954L37.3988 34.8493L47.5578 32.2407C48.7203 30.3348 50.8273 29.0733 53.2542 29.0733Z" fill="#1FD2FF"/>
<path d="M60.7298 25.6604C60.2774 25.3441 59.8047 25.0579 59.3147 24.8037L42.6496 29.0824C42.3513 29.5431 42.0793 30.0203 41.8348 30.5117C41.6909 30.8014 41.5563 31.0956 41.4341 31.3946L61.4968 26.2439C61.2497 26.0402 60.9944 25.8451 60.7298 25.6604Z" fill="#7EE6FC"/>
<path d="M63.6169 28.4951C63.5399 28.3882 63.4626 28.282 63.3822 28.1777L56.5525 29.9315C56.702 30.0149 56.8474 30.1027 56.9883 30.1969C57.4025 30.4747 57.7839 30.7984 58.1253 31.162L64.3133 29.5734C64.1008 29.2017 63.8683 28.8417 63.6169 28.4951Z" fill="#1EA5FF"/>
<path d="M37.4747 35.2072L37.733 36.398L46.7912 34.0724C46.9115 33.5905 47.0863 33.1239 47.3122 32.6815C47.387 32.532 47.4692 32.3844 47.5563 32.2412L37.3973 34.8498L37.4747 35.2072Z" fill="#1EA5FF"/>
<path d="M53.2542 32.585C51.5539 32.585 50.2617 33.7766 50.1365 35.4279L55.8811 33.953C55.3343 33.1135 54.3842 32.585 53.2542 32.585Z" fill="#5AFFF7"/>
<path d="M46.6237 36.3295C46.6039 36.1198 46.5927 35.9072 46.5927 35.6919C46.5926 35.1459 46.6592 34.602 46.7912 34.0723L37.733 36.3979L38.1875 38.4956L46.6237 36.3295Z" fill="#5AFFF7"/>
<path d="M59.3715 33.0564L65.2182 31.5553C64.9773 30.8688 64.6744 30.2057 64.3133 29.5742L58.1257 31.1632C58.6477 31.7171 59.0692 32.3578 59.3715 33.0564Z" fill="#5AFFF7"/>
<path d="M46.6237 36.3301C46.6311 36.4104 46.6412 36.4901 46.6517 36.5693Z" fill="#FBFAA2"/>
<path d="M50.1245 35.6774C50.1245 35.5929 50.1301 35.51 50.1365 35.4277Z" fill="#FBFAA2"/>
<path d="M46.6517 36.5693C46.6413 36.4901 46.6312 36.4104 46.6237 36.3301L38.1875 38.498L38.2069 38.5885H40.9105C40.9303 38.6692 40.9523 38.7488 40.9733 38.8288L46.7956 37.3337C46.7328 37.0819 46.6847 36.8267 46.6517 36.5693Z" fill="#FBFAA2"/>
<path d="M65.2955 31.7825C65.2705 31.7078 65.2455 31.6308 65.2208 31.5557L59.3741 33.0568C59.4059 33.1315 59.4358 33.2063 59.4649 33.281C59.5592 33.5221 59.6392 33.7685 59.7045 34.0189L65.518 32.5264C65.4503 32.2741 65.3752 32.027 65.2955 31.7825Z" fill="#FBFAA2"/>
<path d="M56.0086 34.1679C55.9693 34.0931 55.9264 34.0236 55.8811 33.9541L50.1365 35.429C50.1301 35.5113 50.1249 35.5942 50.1245 35.6787C50.1245 35.6836 50.1245 35.6884 50.1245 35.6933C50.1252 35.9499 50.1552 36.2056 50.2139 36.4554L56.2848 34.8968C56.224 34.6431 56.1312 34.3982 56.0086 34.1679Z" fill="#FBFAA2"/>
<path d="M56.3816 35.6926C56.3812 35.427 56.3491 35.1623 56.2859 34.9043L50.2154 36.463C50.3381 36.9983 50.6056 37.4897 50.9887 37.8833L56.2729 36.5265C56.3446 36.2543 56.3812 35.9741 56.3816 35.6926Z" fill="#FFD3D3"/>
<path d="M46.7975 37.3408L40.9755 38.8359C41.1066 39.3434 41.2637 39.8438 41.4461 40.3352L47.3687 38.8146C47.1196 38.3482 46.9278 37.8533 46.7975 37.3408Z" fill="#FFD3D3"/>
<path d="M59.9105 35.5936L65.8106 34.0786C65.7459 33.5581 65.648 33.0422 65.5176 32.5342L59.7042 34.0267C59.8347 34.539 59.9039 35.065 59.9105 35.5936Z" fill="#FFD3D3"/>
<path d="M56.2841 34.8955L50.2132 36.4542L50.2154 36.4624L56.2875 34.9037C56.2862 34.9011 56.285 34.8983 56.2841 34.8955Z" fill="#FFD3D3"/>
<path d="M59.7042 34.0261L65.5176 32.5336L65.5153 32.5254L59.7019 34.0179L59.7042 34.0261Z" fill="#FFD3D3"/>
<path d="M46.7956 37.332L40.9732 38.8272L40.9755 38.8354L46.7975 37.3403C46.7967 37.3373 46.7964 37.3346 46.7956 37.332Z" fill="#FFD3D3"/>
<path d="M65.8626 34.545C65.8484 34.3884 65.8305 34.2332 65.8106 34.0781L59.9105 35.5931C59.9105 35.6263 59.9131 35.6588 59.9131 35.6921C59.9131 35.8211 59.9087 35.9485 59.9012 36.0756C59.8243 37.499 59.2864 38.8587 58.3687 39.9495L65.6843 38.0708C65.8378 37.2872 65.9151 36.4906 65.9153 35.6921C65.9157 35.3049 65.8962 34.9229 65.8626 34.545Z" fill="#F8B7E1"/>
<path d="M50.9887 37.8842C51.1228 38.0205 51.2697 38.1436 51.4275 38.2516C51.9348 38.5988 52.5597 38.7996 53.2542 38.7996C54.54 38.7996 55.5911 38.1036 56.0815 37.0566C56.1612 36.8864 56.2253 36.7092 56.2729 36.5273L50.9887 37.8842Z" fill="#F8B7E1"/>
<path d="M47.6128 39.2306C47.5268 39.0949 47.445 38.9559 47.3687 38.8135L41.4461 40.3348C41.5007 40.4815 41.5575 40.6269 41.6166 40.771C42.0565 41.858 42.6479 42.8773 43.3734 43.7986L50.8639 41.8755C49.5219 41.3701 48.3807 40.4417 47.6128 39.2306Z" fill="#F8B7E1"/>
<path d="M58.369 39.9498C58.1082 40.2605 57.8192 40.5463 57.5056 40.8035C56.3065 41.7845 54.8034 42.3175 53.2542 42.311C52.8515 42.3106 52.4497 42.2747 52.0533 42.2037C51.6474 42.1317 51.249 42.0223 50.8632 41.877L43.3726 43.8001C43.5139 43.9777 43.6597 44.1515 43.811 44.3197C45.9169 46.6599 49.0301 48.0994 53.2542 48.0994C59.2201 48.0994 64.1634 44.1433 65.5355 38.7421C65.5916 38.5209 65.6406 38.297 65.6851 38.0693L58.369 39.9498Z" fill="#FF7AD9"/>
<path d="M52.8704 23.2852H34.9072L36.1642 29.074H36.3859L56.8335 23.8238C55.5436 23.4624 54.2099 23.2811 52.8704 23.2852Z" fill="#DBFDF7"/>
<path d="M57.3591 59.8488L55.744 60.5511L55.458 60.2715L56.1223 58.6377L57.3748 58.594L57.3591 59.8488Z" fill="white"/>
<path d="M55.3601 62.6338L55.744 60.5503L55.458 60.2708L53.3851 60.7028L55.3601 62.6338Z" fill="#231BCC"/>
<path d="M53.385 60.7032L55.458 60.2711L56.1223 58.6373L54.9224 56.9202L53.385 60.7032Z" fill="#08107F"/>
<path d="M54.9225 56.9207L56.1223 58.6379L57.3748 58.5941L59.1556 56.7727L54.9225 56.9207Z" fill="#FBFAA2"/>
<path d="M57.3748 58.5941L57.3591 59.8489L59.1032 61.008L59.1555 56.7727L57.3748 58.5941Z" fill="#00CCC6"/>
<path d="M53.3772 60.6994H50.615L49.0761 56.9197L51.9991 53.8547L54.9228 56.9197L53.3772 60.6994Z" fill="#9FFFFC"/>
<path d="M51.133 57.3099L51.7972 58.9411H52.1967L52.8644 57.3084L51.9994 56.4016L51.133 57.3099Z" fill="white"/>
<path d="M50.615 60.6995L51.7972 58.9417H52.1968L53.3772 60.6995H50.615Z" fill="#6666CC"/>
<path d="M50.615 60.6989L49.0761 56.9192L51.133 57.3098L51.7972 58.941L50.615 60.6989Z" fill="#00F3EF"/>
<path d="M53.3772 60.6989L52.1968 58.941L52.8644 57.3083L54.9228 56.9192L53.3772 60.6989Z" fill="#00F3EF"/>
<path d="M54.9228 56.9197L52.8644 57.3088L51.9994 56.4021L51.9991 53.8547L54.9228 56.9197Z" fill="#231BCC"/>
<path d="M51.9994 56.4021L51.133 57.3103L49.0761 56.9197L51.9991 53.8547L51.9994 56.4021Z" fill="#FFD580"/>
<path d="M50.6135 60.7038L48.6384 62.6347L44.8958 61.008L44.8431 56.7727L49.0761 56.9207L50.6135 60.7038Z" fill="#9FFFFC"/>
<path d="M46.6394 59.8488L48.2549 60.5511L48.5405 60.2715L47.8762 58.6377L46.6237 58.594L46.6394 59.8488Z" fill="white"/>
<path d="M48.6384 62.6338L48.2549 60.5503L48.5405 60.2708L50.6135 60.7028L48.6384 62.6338Z" fill="#07735A"/>
<path d="M48.6384 62.6347L44.8958 61.008L46.6394 59.8489L48.2549 60.5512L48.6384 62.6347Z" fill="#00F3EF"/>
<path d="M50.6135 60.7032L48.5405 60.2711L47.8763 58.6373L49.0761 56.9202L50.6135 60.7032Z" fill="#231BCC"/>
<path d="M49.0761 56.9207L47.8763 58.6379L46.6237 58.5941L44.8431 56.7727L49.0761 56.9207Z" fill="#FBFAA2"/>
<path d="M46.6237 58.5941L46.6394 59.8489L44.8958 61.008L44.8431 56.7727L46.6237 58.5941Z" fill="#FFD580"/>
<path d="M48.6384 62.6342L50.6134 60.7032L53.3772 60.6995L55.3601 62.6342H48.6384Z" fill="#A6FF4D"/>
<path d="M55.3602 62.6347L59.1032 61.008L57.3592 59.8489L55.744 60.5512L55.3602 62.6347Z" fill="#08107F"/>
<path d="M45.6873 0.232666L45.2761 1.43438C39.5072 3.03902 33.9764 7.63353 29.7268 11.8827C25.4773 16.1318 20.8682 21.6735 19.2632 27.4473L18.0619 27.8584L18.8842 29.1315L23.7131 27.9493C23.7579 27.7454 23.8068 27.5483 23.8596 27.3579C26.4458 16.6551 34.9953 8.25438 45.7796 5.88274L46.9615 1.05387L45.6873 0.232666Z" fill="#2A3296"/>
<path d="M27.6056 9.76114C22.6011 14.7657 19.326 21.0377 18.0742 27.8521L22.7364 26.7076C24.0955 21.638 26.7646 16.5408 30.5753 12.7282C34.386 8.91565 39.4765 6.25247 44.542 4.89265L45.6869 0.229736C38.8759 1.48489 32.6079 4.75921 27.6056 9.76114Z" fill="#6E82E5"/>
<path d="M58.3113 0.232666L58.7224 1.43438C64.4914 3.03902 70.0222 7.63353 74.2717 11.8827C78.5212 16.1318 83.1303 21.6735 84.7353 27.4473L85.9367 27.8584L85.1144 29.1315L80.2855 27.9493C80.2406 27.7454 80.1918 27.5483 80.139 27.3579C77.5528 16.6551 69.0033 8.25438 58.219 5.88274L57.0386 1.0535L58.3113 0.232666Z" fill="#2A3296"/>
<path d="M76.393 9.76146C71.391 4.75953 65.1227 1.48521 58.3117 0.232666L59.4562 4.89558C64.5217 6.25539 69.6152 8.92345 73.4229 12.7312C77.2306 16.5389 79.9028 21.6395 81.2618 26.7105L85.924 27.8551C84.6726 21.0384 81.3975 14.7675 76.393 9.76146Z" fill="#6E82E5"/>
<path d="M58.3113 68.1061L58.7225 66.9044C64.4914 65.2998 70.0222 60.7053 74.2718 56.4561C78.5213 52.207 83.1304 46.6653 84.7354 40.8915L85.9367 40.4804L85.1144 39.2073L80.2855 40.3895C80.2407 40.5931 80.1918 40.7902 80.139 40.9809C77.5528 51.6837 69.0033 60.0844 58.219 62.4561L57.0371 67.2849L58.3113 68.1061Z" fill="#D3FFB3"/>
<path d="M76.393 58.5776C81.3975 53.5726 84.6726 47.3006 85.9244 40.4866L81.2622 41.6311C79.9032 46.7003 77.2344 51.7979 73.4233 55.6086C69.6122 59.4193 64.5221 62.0847 59.4566 63.4446L58.3113 68.106C65.1227 66.8538 71.391 63.5795 76.393 58.5776Z" fill="#7CB3E5"/>
<path d="M45.6873 68.1061L45.2761 66.9044C39.5072 65.2998 33.9764 60.7053 29.7268 56.4561C25.4773 52.207 20.8682 46.6653 19.2632 40.8915L18.0619 40.4804L18.8842 39.2073L23.7131 40.3895C23.7579 40.5931 23.8068 40.7902 23.8596 40.9809C26.4458 51.6837 34.9953 60.0844 45.7796 62.4561L46.9615 67.2849L45.6873 68.1061Z" fill="#D3FFB3"/>
<path d="M44.5424 63.4426C39.4769 62.0828 34.3834 59.4147 30.5757 55.6067C26.768 51.7986 24.0958 46.6983 22.7371 41.6291L18.0746 40.4846C19.326 47.2998 22.6011 53.5718 27.606 58.5756C32.6109 63.5794 38.8759 66.853 45.6873 68.1051L44.5424 63.4426Z" fill="#7CB3E5"/>
<path d="M36.3204 61.6339L35.7044 61.2975L35.5313 61.1797C30.5921 57.9623 26.5173 53.5826 23.6641 48.4244L23.5363 48.1979C23.4115 47.9621 23.2298 47.6175 23.2298 47.6175L18.5893 47.0374L17.2837 47.7808H17.2923L21.9866 49.1589C25.1303 54.8824 29.6917 59.7022 35.2334 63.1563L35.6845 63.437L36.8283 68.1694L37.6062 67.0996L36.3204 61.6339Z" fill="#AEFCF0"/>
<path d="M35.5028 62.7036C29.915 59.2193 25.3387 54.3304 22.2306 48.5249L17.2836 47.7815C21.1992 56.6588 28.1157 63.8738 36.8197 68.1608L35.5028 62.7036Z" fill="#9C9CF0"/>
<path d="M35.0259 65.8425C28.3081 61.9607 22.8579 56.217 19.3335 49.3049L21.464 49.6249C24.585 55.2377 29.0466 59.9907 34.451 63.46L35.0259 65.8425Z" fill="#F8B7E1"/>
<path d="M85.4007 47.0374L80.7602 47.6175C80.7602 47.6175 80.5785 47.9621 80.4507 48.1979L80.3229 48.4244C77.47 53.5819 73.3964 57.9614 68.4587 61.1797L68.2856 61.2975L67.6697 61.6339L66.3812 67.1004L67.1617 68.1702L68.3028 63.4471L68.757 63.166C74.2978 59.7119 78.8581 54.892 82.0004 49.1687L86.6981 47.7815H86.7063L85.4007 47.0374Z" fill="#AEFCF0"/>
<path d="M81.7563 48.5249C78.6533 54.3313 74.0795 59.2207 68.4927 62.7036L67.1785 68.1608C75.8813 63.8721 82.7974 56.6576 86.7149 47.7815L81.7563 48.5249Z" fill="#9C9CF0"/>
<path d="M69.5453 63.4575C74.95 59.9904 79.4103 55.2368 82.5267 49.6227L84.6666 49.302C81.1415 56.2146 75.691 61.9593 68.9731 65.8426L69.5453 63.4575Z" fill="#F8B7E1"/>
<path d="M36.3203 6.76823L35.7043 7.10463L35.5312 7.22237C30.5921 10.4397 26.5174 14.8193 23.6641 19.9773L23.5362 20.2038C23.4114 20.4396 23.2297 20.7843 23.2297 20.7843L18.5893 21.3644L17.2836 20.6213H17.2922L21.9866 19.2432C25.1302 13.5197 29.6916 8.69985 35.2333 5.24582L35.6845 4.96473L36.8283 0.232666L37.6061 1.30243L36.3203 6.76823Z" fill="#FAFF59"/>
<path d="M35.5028 5.69963C29.9149 9.18383 25.3386 14.0727 22.2306 19.8783L17.2836 20.6217C21.1991 11.7444 28.1156 4.52933 36.8197 0.242432L35.5028 5.69963Z" fill="#F8B7E1"/>
<path d="M35.0259 2.55981C28.3077 6.44197 22.8574 12.1864 19.3335 19.0992L21.464 18.7793C24.585 13.1665 29.0466 8.41346 34.451 4.94416L35.0259 2.55981Z" fill="#FBFAA2"/>
<path d="M85.4007 21.3647L80.7602 20.7857C80.7602 20.7857 80.5785 20.4411 80.4507 20.2053L80.3229 19.9788C77.4699 14.8215 73.3963 10.4421 68.4587 7.22386L68.2856 7.10538L67.6697 6.76897L66.3812 1.30243L67.1617 0.232666L68.3028 4.95576L68.757 5.23685C74.2979 8.69081 78.8582 13.5107 82.0004 19.2342L86.6981 20.6213H86.7063L85.4007 21.3647Z" fill="#5E50CC"/>
<path d="M81.7563 19.8783C78.6534 14.0718 74.0796 9.18237 68.4927 5.69963L67.1785 0.242432C75.8814 4.53096 82.7975 11.7455 86.7149 20.6217L81.7563 19.8783Z" fill="#F8B7E1"/>
<path d="M69.5453 4.94393C74.95 8.41104 79.4103 13.1645 82.5267 18.7787L84.6666 19.0994C81.1415 12.1868 75.691 6.44214 68.9731 2.55884L69.5453 4.94393Z" fill="#FBFAA2"/>
<path d="M53.6253 8.26699L55.9431 10.5332L60.3347 8.62433L60.3964 3.65454L55.4295 3.82798L53.6253 8.26699Z" fill="#9FFFFC"/>
<path d="M58.2886 7.26493L56.3932 8.08912L56.0579 7.76131L56.8372 5.84382L58.3069 5.79224L58.2886 7.26493Z" fill="white"/>
<path d="M55.9431 10.5337L56.3932 8.08879L56.0579 7.76099L53.6253 8.26746L55.9431 10.5337Z" fill="#360C72"/>
<path d="M55.9431 10.533L60.3347 8.6241L58.2886 7.26392L56.3932 8.0881L55.9431 10.533Z" fill="#3C28F9"/>
<path d="M53.6253 8.26739L56.0579 7.76092L56.8372 5.84342L55.4295 3.82837L53.6253 8.26739Z" fill="#3C28F9"/>
<path d="M55.4295 3.82798L56.8372 5.84303L58.3069 5.79145L60.3963 3.65454L55.4295 3.82798Z" fill="#FFCC66"/>
<path d="M58.3069 5.79145L58.2886 7.26414L60.3347 8.62433L60.3964 3.65454L58.3069 5.79145Z" fill="#FF9933"/>
<path d="M53.616 8.26349H50.3745L48.5692 3.82821L51.999 0.231689L55.4295 3.82821L53.616 8.26349Z" fill="#9FFFFC"/>
<path d="M50.9827 4.28562L51.762 6.20012H52.2307L53.0141 4.28412L51.9993 3.21997L50.9827 4.28562Z" fill="#FBFAA2"/>
<path d="M50.3745 8.26334L51.762 6.20044H52.2307L53.616 8.26334H50.3745Z" fill="#360C72"/>
<path d="M50.3745 8.26365L48.5692 3.82837L50.9827 4.28625L51.762 6.20076L50.3745 8.26365Z" fill="#3399FF"/>
<path d="M53.6159 8.26365L52.2307 6.20076L53.0142 4.28476L55.4295 3.82837L53.6159 8.26365Z" fill="#3399FF"/>
<path d="M55.4295 3.82821L53.0142 4.28459L51.9994 3.22044L51.999 0.231689L55.4295 3.82821Z" fill="#00CCC6"/>
<path d="M51.9994 3.22044L50.9827 4.28609L48.5692 3.82821L51.999 0.231689L51.9994 3.22044Z" fill="#FFCC66"/>
<path d="M50.373 8.26699L48.0552 10.5332L43.6637 8.62433L43.602 3.65454L48.5692 3.82798L50.373 8.26699Z" fill="#9FFFFC"/>
<path d="M45.7097 7.26493L47.6051 8.08912L47.9404 7.76131L47.1611 5.84382L45.6914 5.79224L45.7097 7.26493Z" fill="#FBFAA2"/>
<path d="M48.0552 10.5337L47.6052 8.08879L47.9405 7.76099L50.373 8.26746L48.0552 10.5337Z" fill="#360C72"/>
<path d="M48.0553 10.533L43.6637 8.6241L45.7098 7.26392L47.6052 8.0881L48.0553 10.533Z" fill="#A9ABF4"/>
<path d="M50.373 8.26739L47.9405 7.76092L47.1612 5.84342L48.5692 3.82837L50.373 8.26739Z" fill="#A9ABF4"/>
<path d="M48.5692 3.82798L47.1612 5.84303L45.6914 5.79145L43.602 3.65454L48.5692 3.82798Z" fill="#FFCC66"/>
<path d="M45.6914 5.79145L45.7098 7.26414L43.6637 8.62433L43.602 3.65454L45.6914 5.79145Z" fill="white"/>
<path d="M50.373 12.7993L48.0552 10.5334L43.6637 12.4423L43.602 17.4118L48.5692 17.2383L50.373 12.7993Z" fill="#9FFFFC"/>
<path d="M45.7097 13.8016L47.6051 12.9778L47.9404 13.3052L47.1611 15.2227L45.6914 15.2743L45.7097 13.8016Z" fill="#00F3EF"/>
<path d="M48.0552 10.5334L47.6052 12.9783L47.9405 13.3058L50.373 12.7993L48.0552 10.5334Z" fill="#360C72"/>
<path d="M48.0552 10.5334L43.6637 12.4423L45.7098 13.8022L47.6052 12.9783L48.0552 10.5334Z" fill="#FE9679"/>
<path d="M50.373 12.8L47.9405 13.3065L47.1611 15.224L48.5692 17.2391L50.373 12.8Z" fill="#FE9679"/>
<path d="M48.5692 17.2389L47.1612 15.2239L45.6914 15.2755L43.602 17.4124L48.5692 17.2389Z" fill="#3C28F9"/>
<path d="M45.6914 15.2751L45.7098 13.8024L43.6637 12.4426L43.602 17.412L45.6914 15.2751Z" fill="#FFCC66"/>
<path d="M50.3824 12.804H53.6239L55.4295 17.2389L51.9994 20.8354L48.5692 17.2389L50.3824 12.804Z" fill="#9FFFFC"/>
<path d="M53.0156 16.781L52.2363 14.8665H51.7676L50.9841 16.7825L51.9993 17.8466L53.0156 16.781Z" fill="#00F3EF"/>
<path d="M53.6238 12.804L52.2363 14.8665H51.7676L50.3824 12.804H53.6238Z" fill="#360C72"/>
<path d="M53.6238 12.804L55.4295 17.2389L53.0156 16.781L52.2363 14.8665L53.6238 12.804Z" fill="#6666CC"/>
<path d="M50.3824 12.804L51.7677 14.8665L50.9842 16.7825L48.5692 17.2389L50.3824 12.804Z" fill="#6666CC"/>
<path d="M48.5692 17.2389L50.9842 16.7825L51.9994 17.8466V20.8354L48.5692 17.2389Z" fill="#A6FF4D"/>
<path d="M51.9994 17.8462L53.0156 16.7805L55.4295 17.2384L51.9994 20.8349V17.8462Z" fill="#3C28F9"/>
<path d="M53.6253 12.7993L55.9431 10.5334L60.3347 12.4423L60.3964 17.4118L55.4295 17.2383L53.6253 12.7993Z" fill="#9FFFFC"/>
<path d="M58.2886 13.8016L56.3932 12.9778L56.0579 13.3052L56.8372 15.2227L58.3069 15.2743L58.2886 13.8016Z" fill="#00F3EF"/>
<path d="M55.9431 10.5334L56.3932 12.9783L56.0579 13.3058L53.6253 12.7993L55.9431 10.5334Z" fill="#360C72"/>
<path d="M55.9431 10.5334L60.3347 12.4423L58.2886 13.8022L56.3932 12.9783L55.9431 10.5334Z" fill="#3C28F9"/>
<path d="M53.6253 12.8L56.0579 13.3065L56.8372 15.224L55.4295 17.2391L53.6253 12.8Z" fill="#3C28F9"/>
<path d="M55.4295 17.2389L56.8372 15.2239L58.3069 15.2755L60.3963 17.4124L55.4295 17.2389Z" fill="#A6FF4D"/>
<path d="M58.3069 15.2751L58.2886 13.8024L60.3347 12.4426L60.3963 17.412L58.3069 15.2751Z" fill="#6666CC"/>
<path d="M48.0552 10.5339L50.373 8.26765L53.616 8.26392L55.9431 10.5339L53.6253 12.7997L50.3824 12.8039L48.0552 10.5339Z" fill="#FFCC66"/>
<path d="M48.0552 10.5339H55.9431L53.616 8.26392L50.373 8.26765L48.0552 10.5339Z" fill="#FFCC66"/>
<path d="M50.373 8.26765V10.5339H53.616V8.26392L50.373 8.26765Z" fill="#00F3EF"/>
<path d="M53.616 10.5334H50.373V12.8034H53.616V10.5334Z" fill="#FE9679"/>
<path d="M50.373 10.5331H48.0552L50.373 8.26685V10.5331Z" fill="white"/>
<path d="M53.616 8.26392V10.5339H55.9431L53.616 8.26392Z" fill="#A9ABF4"/>
<path d="M55.9431 10.5334H53.616V12.8034L55.9431 10.5334Z" fill="#3399FF"/>
<defs>
<linearGradient id="paint0_linear_2_669" x1="52.0064" y1="10.5934" x2="52.0064" y2="57.7604" gradientUnits="userSpaceOnUse">
<stop stop-color="#0D0023"/>
<stop offset="0.3" stop-color="#078292"/>
<stop offset="0.6" stop-color="#025A9D"/>
<stop offset="0.8" stop-color="#290E52"/>
<stop offset="1" stop-color="#000826"/>
</linearGradient>
</defs>
</svg>