<svg xmlns:xlink="http://www.w3.org/1999/xlink" width="99" height="69" viewBox="0 0 99 69" fill="none" xmlns="http://www.w3.org/2000/svg">
<path d="M81.3141 53.0266L77.0081 58.313L77.6241 61.0872C77.6241 61.0872 82.0661 59.4915 83.3093 54.0795L81.3141 53.0266Z" fill="#820037"/>
<path d="M67.707 57.0523L77.6241 61.0861L77.0081 58.313L68.1241 56.092L67.707 57.0523Z" fill="#3F0012"/>
<path d="M88.3757 43.3004L86.4373 53.0183L74.2558 50.644L77.6411 42.8926L88.3757 43.3004Z" fill="#820037"/>
<path d="M74.252 50.6436L74.2558 50.6443L74.252 50.6525V50.6436Z" fill="#820037"/>
<path d="M87.1694 42.8918H90.8507C91.0776 52.5354 86.4259 55.3929 86.4259 55.3929L84.7144 51.7759C87.7315 48.8387 87.1694 42.8918 87.1694 42.8918Z" fill="#B81E49"/>
<path d="M84.7312 51.7847L86.4457 55.4021L74.9415 52.5737L74.2604 50.6506L84.7226 51.7836L84.7312 51.7847Z" fill="#3F0012"/>
<path d="M91.966 19.2483L93.1808 27.4251L73.037 37.1528L72.5829 31.6133L91.966 19.2483Z" fill="#820037"/>
<path d="M91.3879 16.0667L72.1867 30.4628L72.5841 31.6051L90.8601 20.4634L91.3965 16.0667H91.3879Z" fill="#A30064"/>
<path d="M98.3028 24.1624L76.0273 42.8918L76.9158 44.3058L92.8161 42.9007C92.8161 42.9007 94.4114 41.6587 97.0596 35.4759C99.7175 29.2843 98.3028 24.1624 98.3028 24.1624Z" fill="#B81E49"/>
<path d="M72.2935 42.8926L72.3104 42.8978L72.2935 42.9015V42.8926Z" fill="#3F0012"/>
<path d="M92.8175 42.8921L76.9172 44.3065L72.3104 42.8973L89.2838 39.0938L92.8175 42.8921Z" fill="#3F0012"/>
<path d="M72.2936 43.5085C72.2936 43.5085 80.6327 41.8403 87.8762 40.5982C95.1197 39.3562 98.3047 24.1624 98.3047 24.1624L72.7197 36.9539L72.2936 43.5085Z" fill="#820037"/>
<path d="M73.9341 36.428V37.7605C73.9341 37.7605 79.8025 36.4373 87.1694 33.527C94.5407 30.6258 98.3043 24.1624 98.3043 24.1624L73.9341 36.428Z" fill="#FF8282"/>
<path d="M73.9899 38.989L73.6976 40.5663C73.6976 40.5663 82.6922 38.989 88.4855 36.8042C94.4147 34.5743 96.2709 30.7864 96.2709 30.7864L73.9899 38.9995V38.989Z" fill="#FF5959"/>
<path d="M91.7758 27.4169L94.1232 26.2473C93.8963 17.6261 91.3871 16.0667 91.3871 16.0667L90.8593 20.4634C92.446 23.2645 91.7758 27.4169 91.7758 27.4169Z" fill="#B81E49"/>
<path d="M18.2461 53.0266L22.5517 58.313L21.9361 61.0872C21.9361 61.0872 17.494 59.4915 16.2509 54.0795L18.2461 53.0266Z" fill="#820037"/>
<path d="M31.8532 57.0524L21.9361 61.0863L22.5517 58.3121L31.4357 56.0911L31.8532 57.0524Z" fill="#3F0012"/>
<path d="M11.1842 43.3004L13.1226 53.0183L25.3042 50.644L21.9188 42.8926L11.1842 43.3004Z" fill="#820037"/>
<path d="M25.3075 50.6436L25.3042 50.6443L25.3075 50.6525V50.6436Z" fill="#820037"/>
<path d="M12.3904 42.8918H8.70945C8.48219 52.5354 13.1343 55.3929 13.1343 55.3929L14.8458 51.7759C11.8286 48.8387 12.3904 42.8918 12.3904 42.8918Z" fill="#B81E49"/>
<path d="M14.8286 51.7855L13.1144 55.403L24.6183 52.5746L25.2993 50.6526L14.8376 51.7855H14.8286Z" fill="#3F0012"/>
<path d="M7.59375 19.2483L6.37897 27.4251L26.5224 37.1528L26.9769 31.6133L7.59375 19.2483Z" fill="#820037"/>
<path d="M8.17273 16.0667L27.3742 30.4628L26.9769 31.6051L8.70088 20.4634L8.16451 16.0667H8.17273Z" fill="#A30064"/>
<path d="M1.25591 24.1624C1.25591 24.1624 -0.157732 29.2831 2.4991 35.4759C5.14734 41.6587 6.74226 42.9007 6.74226 42.9007L22.6425 44.3058L23.531 42.8918L1.25591 24.1624Z" fill="#B81E49"/>
<path d="M27.2662 42.8926L27.2491 42.8978L27.2662 42.9015V42.8926Z" fill="#3F0012"/>
<path d="M6.74234 42.8921L22.6426 44.3065L27.2491 42.8973L10.2761 39.0938L6.74234 42.8921Z" fill="#3F0012"/>
<path d="M27.2662 43.5085C27.2662 43.5085 18.9271 41.8403 11.684 40.5982C4.44088 39.3562 1.25552 24.1624 1.25552 24.1624L26.8401 36.9539L27.2662 43.5085Z" fill="#820037"/>
<path d="M25.6256 36.428V37.7605C25.6256 37.7605 19.7573 36.4373 12.3904 33.527C5.01949 30.6258 1.25589 24.1624 1.25589 24.1624L25.6256 36.428Z" fill="#FF8282"/>
<path d="M25.5699 38.989L25.8622 40.5663C25.8622 40.5663 16.8676 38.989 11.0747 36.8042C5.14545 34.5743 3.28888 30.7864 3.28888 30.7864L25.5699 38.9995V38.989Z" fill="#FF5959"/>
<path d="M7.78397 27.4169L5.43663 26.2473C5.66389 17.6261 8.1727 16.0667 8.1727 16.0667L8.70086 20.4634C7.11416 23.2645 7.78397 27.4169 7.78397 27.4169Z" fill="#B81E49"/>
<path d="M49.7868 64.0628C66.3553 64.0628 79.7868 50.6313 79.7868 34.0628C79.7868 17.4942 66.3553 4.06274 49.7868 4.06274C33.2183 4.06274 19.7868 17.4942 19.7868 34.0628C19.7868 50.6313 33.2183 64.0628 49.7868 64.0628Z" fill="#700041"/>
<path d="M49.7861 34.0631L38.3054 6.34692C30.6519 9.51733 25.0078 15.4896 22.0699 22.5828L49.7861 34.0631Z" fill="#8E1037"/>
<path d="M28.5736 12.8499L49.786 34.0627H49.7883L31.8143 10.0383C30.6687 10.8974 29.5858 11.837 28.5736 12.8499Z" fill="#9E1927"/>
<path d="M22.0725 22.5809L49.7861 34.0627L28.5733 12.8499C25.7872 15.6347 23.576 18.9402 22.0654 22.5782L22.0725 22.5809Z" fill="#8E1037"/>
<path d="M49.7861 34.0627V64.0628C66.3543 64.0628 79.7857 50.6313 79.7857 34.0627H49.7861Z" fill="#570033"/>
<path d="M77.5026 45.5438L49.7879 34.0627L71.0007 55.2755C73.7869 52.4908 75.9981 49.1853 77.5086 45.5472L77.5026 45.5438Z" fill="#3F0012"/>
<path d="M77.5034 22.5835L49.7861 34.0631H79.7857C79.7869 30.1237 79.0136 26.2224 77.5098 22.5813L77.5034 22.5835Z" fill="#570033"/>
<path d="M28.5759 55.2769L49.7861 34.0637L22.071 45.5463C23.578 49.1858 25.7859 52.4934 28.5692 55.281L28.5759 55.2769Z" fill="#570033"/>
<path d="M19.7883 34.0628H49.7861L22.0699 22.5833C20.5616 26.2222 19.7838 30.1222 19.7808 34.0613L19.7883 34.0628Z" fill="#700041"/>
<path d="M49.7861 34.0627V64.0628C58.0702 64.0628 65.5701 60.7047 70.9989 55.2759L49.7861 34.0627Z" fill="#3F0012"/>
<path d="M49.7861 34.0627V64.0628C41.5016 64.0628 34.0017 60.7047 28.5729 55.2759L49.7861 34.0627Z" fill="#570033"/>
<path d="M46.8373 63.4573L48.3784 61.9797H53.2293L54.0516 63.1672L57.7076 61.6082V58.4778L42.6763 60.8928L46.8545 63.4494L46.8373 63.4573Z" fill="#000002"/>
<path d="M49.7868 60.0081C64.1158 60.0081 75.7317 48.3922 75.7317 34.0633C75.7317 19.7343 64.1158 8.11841 49.7868 8.11841C35.4579 8.11841 23.842 19.7343 23.842 34.0633C23.842 48.3922 35.4579 60.0081 49.7868 60.0081Z" fill="#3F0012"/>
<path d="M23.8419 34.0627C23.8419 48.392 35.4579 60.008 49.7872 60.008C64.1164 60.008 75.7321 48.392 75.7321 34.0627H23.8419Z" fill="#8E1037"/>
<path d="M49.7861 34.0627V60.008C64.115 60.008 75.731 48.392 75.731 34.0627H49.7861Z" fill="#9E1927"/>
<path d="M49.7868 58.1731C63.1026 58.1731 73.8972 47.3785 73.8972 34.0627C73.8972 20.747 63.1026 9.95239 49.7868 9.95239C36.471 9.95239 25.6765 20.747 25.6765 34.0627C25.6765 47.3785 36.471 58.1731 49.7868 58.1731Z" fill="black"/>
<path d="M49.7869 57.6471C62.8118 57.6471 73.3706 47.0883 73.3706 34.0634C73.3706 21.0385 62.8118 10.4797 49.7869 10.4797C36.762 10.4797 26.2032 21.0385 26.2032 34.0634C26.2032 47.0883 36.762 57.6471 49.7869 57.6471Z" fill="#FF5959"/>
<path d="M49.7869 57.6469C62.8118 57.6469 73.3706 47.0881 73.3706 34.0632C73.3706 21.0383 62.8118 10.4795 49.7869 10.4795C36.7619 10.4795 26.2032 21.0383 26.2032 34.0632C26.2032 47.0881 36.7619 57.6469 49.7869 57.6469Z" fill="#0F0F0F"/>
<path d="M49.7869 57.6469C62.8118 57.6469 73.3706 47.0881 73.3706 34.0632C73.3706 21.0383 62.8118 10.4795 49.7869 10.4795C36.7619 10.4795 26.2032 21.0383 26.2032 34.0632C26.2032 47.0881 36.7619 57.6469 49.7869 57.6469Z" fill="#F02454"/>
<path d="M61.1356 20.1748H38.4385V47.9534H61.1356V20.1748Z" fill="#75151A"/>
<path d="M61.1356 39.9873H38.4385V47.9529H61.1356V39.9873Z" fill="#450608"/>
<path d="M61.1352 42.0471L54.627 39.9876H44.9468L38.4385 42.0471V26.0811L44.9468 28.1406H54.627L61.1352 26.0811V42.0471Z" fill="#5C0D11"/>
<path d="M61.1352 42.0466L54.627 39.987H44.9468L38.4385 42.0466V34.0693H61.1352V42.0466Z" fill="#520C0F"/>
<path d="M54.6269 28.1396H44.9467V39.987H54.6269V28.1396Z" fill="#631828"/>
<path d="M61.1352 20.1748L67.6995 34.0637L61.1352 47.9531V20.1748Z" fill="#822134"/>
<path d="M54.627 28.1396L61.1913 34.063L54.627 39.9866V28.1396Z" fill="#611014"/>
<path d="M44.9468 28.1396L38.3828 34.063L44.9468 39.9866V28.1396Z" fill="#611014"/>
<path d="M61.1352 20.1741L49.7868 14.2373L38.4385 20.1741H61.1352Z" fill="#5F161C"/>
<path d="M49.779 14.2375L56.5777 11.4738C52.1446 10.1472 47.42 10.1481 42.9874 11.4764L49.779 14.2375Z" fill="#64151A"/>
<path d="M71.255 24.2881L67.6999 34.0688L71.2527 43.8436C72.6483 40.7728 73.3706 37.439 73.3709 34.0661C73.3713 30.6931 72.6498 27.3591 71.255 24.2881Z" fill="#591010"/>
<path d="M62.5631 14.2373L61.1356 20.1737L67.6999 18.7238C66.2128 16.9885 64.4826 15.4774 62.5631 14.2373Z" fill="#69181D"/>
<path d="M67.7 49.402L61.1357 47.9521L62.5631 53.8885C64.4828 52.6486 66.213 51.1374 67.7 49.402Z" fill="#360406"/>
<path d="M42.0776 20.1748L44.9468 28.1404L38.4385 26.0809V20.1748H42.0776Z" fill="#661016"/>
<path d="M57.4965 20.1748L54.627 28.1404L61.1353 26.0809V20.1748H57.4965Z" fill="#661016"/>
<path d="M42.0776 47.9529L44.9468 39.9873L38.4385 42.0468V47.9529H42.0776Z" fill="#360406"/>
<path d="M57.4965 47.9529L54.627 39.9873L61.1353 42.0468V47.9529H57.4965Z" fill="#360406"/>
<path d="M67.6995 18.7236V34.0685L61.1352 20.1735L67.6995 18.7236Z" fill="#7A181F"/>
<path d="M67.6999 18.7236V34.0685L71.255 24.2877C70.3365 22.2756 69.1398 20.4026 67.6999 18.7236Z" fill="#6E1418"/>
<path d="M67.6996 49.4024V34.0576L61.1352 47.9525L67.6996 49.4024Z" fill="#4D0E11"/>
<path d="M67.6999 49.4026V34.0566L71.255 43.8374C70.3366 45.8499 69.1399 47.7233 67.6999 49.4026Z" fill="#571523"/>
<path d="M38.4385 20.1748L31.8742 34.0637L38.4385 47.9531V20.1748Z" fill="#781F27"/>
<path d="M61.1352 34.0695L67.6995 34.0635L61.1352 47.9528V34.0695Z" fill="#691B23"/>
<path d="M38.4385 34.0695L31.8742 34.0635L38.4385 47.9528V34.0695Z" fill="#661B22"/>
<path d="M28.3191 24.2881L31.8742 34.0688L28.3232 43.8436C26.9277 40.7728 26.2055 37.439 26.205 34.0661C26.2046 30.6932 26.9259 27.3592 28.3206 24.2881H28.3191Z" fill="#440F12"/>
<path d="M31.8742 49.402L38.4385 47.9521L37.0114 53.8885C35.0916 52.6486 33.3613 51.1374 31.8742 49.402Z" fill="#26080A"/>
<path d="M31.8742 18.7236V34.0685L38.4385 20.1735L31.8742 18.7236Z" fill="#4B1316"/>
<path d="M31.8742 18.7236V34.0685L28.3191 24.2877C29.2377 22.2757 30.4344 20.4027 31.8742 18.7236Z" fill="#6C1217"/>
<path d="M31.8741 49.4024V34.0576L38.4385 47.9525L31.8741 49.4024Z" fill="#4D0E11"/>
<path d="M31.8742 49.4026V34.0566L28.3191 43.8374C29.2376 45.8498 30.4343 47.7232 31.8742 49.4026Z" fill="#570B0E"/>
<path d="M62.5627 14.2373H49.7869L61.1352 20.1741L62.5627 14.2373Z" fill="#912220"/>
<path d="M49.7862 14.238H62.562C60.7074 13.04 58.693 12.1097 56.5785 11.4746L49.7862 14.238Z" fill="#851821"/>
<path d="M37.0114 14.2373L38.4385 20.1737L31.8742 18.7238C33.3614 16.9885 35.0917 15.4774 37.0114 14.2373Z" fill="#69181D"/>
<path d="M37.011 14.2373H49.7869L38.4385 20.1741L37.011 14.2373Z" fill="#912220"/>
<path d="M37.0114 14.238H49.7861L42.9937 11.4746C40.8796 12.1097 38.8656 13.04 37.0114 14.238Z" fill="#871B22"/>
<path d="M61.1352 47.9521L49.7869 53.8889L38.4385 47.9521H61.1352Z" fill="#26080A"/>
<path d="M49.7791 53.8896L56.5778 56.6538C52.1446 57.9799 47.4201 57.9789 42.9875 56.6508L49.7791 53.8896Z" fill="#26080A"/>
<path d="M62.5627 53.8889H49.7869L61.1353 47.9521L62.5627 53.8889Z" fill="#3B0704"/>
<path d="M49.7862 53.8896H62.562C60.7074 55.0877 58.6931 56.018 56.5785 56.653L49.7862 53.8896Z" fill="#4B1316"/>
<path d="M37.011 53.8889H49.7868L38.4385 47.9521L37.011 53.8889Z" fill="#42190E"/>
<path d="M37.0114 53.8896H49.7861L42.9937 56.653C40.8795 56.0181 38.8655 55.0878 37.0114 53.8896Z" fill="#3B0606"/>
<path d="M64.9911 36.3946C64.9977 38.1978 64.6411 39.9839 63.9424 41.6464C63.2438 43.3088 62.2175 44.8135 60.9247 46.0706C58.3083 48.6284 54.8108 50.0387 51.0756 50.0387C44.8653 50.0387 39.4884 46.0905 37.7373 40.3455H34.9313L34.7601 39.5575L33.4855 33.6566L33.2239 32.4445H37.8068C38.0154 31.8307 38.2642 31.2313 38.5517 30.6503H32.849L32.6789 29.8631L31.4039 23.9634L31.1423 22.7512H50.691C54.6549 22.7512 58.2915 24.1589 60.9345 26.7133C63.5509 29.2438 64.9911 32.6818 64.9911 36.3946Z" fill="black"/>
<path d="M56.0921 11.1641L59.0947 12.0712L61.124 10.7204L59.2461 5.58613C57.0079 4.84364 54.6896 4.36899 52.3397 4.17212L56.0921 11.1641Z" fill="black"/>
<path d="M64.6763 35.5725C64.6763 39.1746 63.2597 42.5476 60.6896 45.0642C58.1239 47.5738 54.6926 48.9546 51.0266 48.9546C47.5471 48.9546 44.3359 47.6923 41.9011 45.5599C40.0367 43.9318 38.6654 41.8143 37.9424 39.4471H35.1888L33.515 31.6975H38.0119C38.216 31.0951 38.4603 30.5071 38.743 29.9373H33.1479L31.4708 22.1877H50.6509C58.6446 22.1877 64.6763 27.9425 64.6763 35.5725Z" fill="#82003B"/>
<path d="M56.3612 27.2004L58.2675 24.2101C56.0996 22.9232 53.5033 22.1887 50.6532 22.1887H31.4708L37.6901 27.2007L56.3612 27.2004Z" fill="#AD0C81"/>
<path d="M62.292 43.1714L59.1574 41.0569L51.0262 44.8448L38.6914 38.4651H35.9823L35.1902 39.4466H37.9439C38.667 41.8138 40.0383 43.9313 41.9026 45.5594C44.3378 47.69 47.5467 48.9541 51.0281 48.9541C54.6941 48.9541 58.1254 47.5734 60.6911 45.0638C61.2821 44.4839 61.818 43.8503 62.292 43.1714Z" fill="#AE0A81"/>
<path d="M51.0262 43.4034C55.3514 43.4034 58.8577 39.8971 58.8577 35.5719C58.8577 31.2467 55.3514 27.7405 51.0262 27.7405C46.7011 27.7405 43.1948 31.2467 43.1948 35.5719C43.1948 39.8971 46.7011 43.4034 51.0262 43.4034Z" fill="#42001C"/>
<path d="M53.642 28.189C52.8018 27.8913 51.9169 27.7396 51.0255 27.7405C46.7005 27.7405 43.194 31.2469 43.194 35.5719C43.194 35.6601 43.1978 35.7476 43.2008 35.8336L51.0255 35.5719L53.642 28.189Z" fill="black"/>
<path d="M58.8513 35.3079L51.0262 35.5695L48.4098 42.9521C49.25 43.2496 50.1349 43.4013 51.0262 43.4006C55.3516 43.4006 58.8577 39.8945 58.8577 35.5691C58.8577 35.4828 58.8539 35.3953 58.8513 35.3079Z" fill="#63003A"/>
<path d="M56.2367 39.6293L51.0262 35.5715L53.3209 41.7643L54.4288 42.627C55.2899 42.21 56.0675 41.639 56.7234 40.9424L56.2367 39.6293Z" fill="#7A003E"/>
<path d="M54.1522 35.5718C54.1522 37.3495 52.8185 38.6741 51.0262 38.6741C49.234 38.6741 47.9007 37.351 47.9007 35.5718C47.9007 33.7926 49.2343 32.4694 51.0262 32.4694C52.8181 32.4694 54.1522 33.7937 54.1522 35.5718ZM63.6963 35.5718C63.6963 39.335 62.0251 42.6803 59.3638 44.9458C57.142 46.8368 54.231 47.9734 51.0262 47.9734C47.7026 47.9734 44.7067 46.7601 42.4614 44.7537C40.5951 43.0893 39.2796 40.8961 38.69 38.4659H35.9808L34.7305 32.6776H38.73C39.1021 31.3557 39.6787 30.1002 40.4389 28.9566H33.9377L32.6874 23.1682H50.6506C58.2365 23.1682 63.6963 28.6673 63.6963 35.5718ZM57.6949 35.5718C57.6949 31.8919 54.7356 28.9558 51.0262 28.9558C47.3168 28.9558 44.358 31.8911 44.358 35.5718C44.358 39.2524 47.3172 42.1877 51.0262 42.1877C54.7353 42.1877 57.6949 39.2509 57.6949 35.5718Z" fill="#FF3D6A"/>
<path d="M33.5146 31.6985L34.7305 32.6778L35.9808 38.4662L35.1884 39.4481L33.5146 31.6985Z" fill="#A8003F"/>
<path d="M33.5146 31.6985H38.0112L38.7315 32.6778H34.7305L33.5146 31.6985Z" fill="#AD0C81"/>
<path d="M33.1479 29.9375L33.9385 28.9563H40.4401L38.7423 29.9375H33.1479Z" fill="#4D0038"/>
<path d="M33.1479 29.9373L33.9384 28.9562L32.6881 23.1682L31.4715 22.1877L33.1479 29.9373Z" fill="#A8003F"/>
<path d="M52.1569 23.2444L33.7258 27.9705L33.9389 28.9565H40.4415C39.6814 30.1001 39.1048 31.3556 38.7326 32.6775H34.7332L35.1443 34.5838L45.4375 31.9445C46.6224 30.1391 48.6737 28.9543 51.0281 28.9543C52.1131 28.9515 53.1827 29.211 54.1458 29.7108L61.0667 27.9361C59.0162 25.3656 55.8977 23.6163 52.1569 23.2444Z" fill="#FF82C1"/>
<path d="M63.6667 36.3948L57.2172 38.0484C56.2375 40.4839 53.8501 42.1861 51.0262 42.1861C49.4955 42.1924 48.009 41.6734 46.8148 40.7157L40.3918 42.3626C40.9765 43.2452 41.6721 44.0491 42.4614 44.7548C43.3582 45.5543 44.3653 46.2208 45.4517 46.7339L61.4768 42.6246C62.7658 40.7889 63.5236 38.6333 63.6667 36.3948Z" fill="#FE7192"/>
<path d="M51.1656 60.5881L53.1407 62.5195L56.8833 60.8928L56.936 56.6575L52.7029 56.8055L51.1656 60.5881Z" fill="#9FFFFC"/>
<path d="M55.1396 59.7339L53.5241 60.4362L53.2386 60.1567L53.9028 58.5225L55.1553 58.4788L55.1396 59.7339Z" fill="#FFC2DE"/>
<path d="M53.1407 62.5205L53.5242 60.4371L53.2386 60.1575L51.1656 60.5892L53.1407 62.5205Z" fill="#DB144C"/>
<path d="M53.1407 62.5194L56.8833 60.8927L55.1396 59.7336L53.5242 60.436L53.1407 62.5194Z" fill="#540015"/>
<path d="M51.1656 60.5886L53.2386 60.1569L53.9028 58.5227L52.703 56.8059L51.1656 60.5886Z" fill="#540015"/>
<path d="M52.7029 56.8055L53.9028 58.5223L55.1553 58.4785L56.936 56.6575L52.7029 56.8055Z" fill="white"/>
<path d="M55.1554 58.4785L55.1397 59.7337L56.8834 60.8928L56.9361 56.6575L55.1554 58.4785Z" fill="#DB144C"/>
<path d="M51.1574 60.5852H48.3951L46.8563 56.8055L49.7796 53.7405L52.7029 56.8055L51.1574 60.5852Z" fill="#9FFFFC"/>
<path d="M48.9135 57.1966L49.5777 58.8278H49.9769L50.6445 57.1951L49.7796 56.2883L48.9135 57.1966Z" fill="white"/>
<path d="M48.3951 60.5853L49.5778 58.8274H49.977L51.1574 60.5853H48.3951Z" fill="#FF54A0"/>
<path d="M48.3951 60.5856L46.8563 56.8059L48.9136 57.1965L49.5778 58.8277L48.3951 60.5856Z" fill="#DB144C"/>
<path d="M51.1574 60.5856L49.977 58.8277L50.6446 57.195L52.703 56.8059L51.1574 60.5856Z" fill="#DB144C"/>
<path d="M52.703 56.8055L50.6446 57.1946L49.7796 56.2878V53.7405L52.703 56.8055Z" fill="#FF54A0"/>
<path d="M49.7796 56.2878L48.9136 57.1961L46.8563 56.8055L49.7796 53.7405V56.2878Z" fill="#FFD580"/>
<path d="M48.394 60.5881L46.419 62.5195L42.6763 60.8928L42.6236 56.6575L46.8567 56.8055L48.394 60.5881Z" fill="#9FFFFC"/>
<path d="M44.42 59.7339L46.0351 60.4362L46.321 60.1567L45.6568 58.5225L44.4043 58.4788L44.42 59.7339Z" fill="#DB144C"/>
<path d="M46.419 62.5205L46.0351 60.4371L46.3211 60.1575L48.394 60.5892L46.419 62.5205Z" fill="#DB144C"/>
<path d="M46.419 62.5194L42.6763 60.8927L44.42 59.7336L46.0351 60.436L46.419 62.5194Z" fill="#FF54A0"/>
<path d="M48.394 60.5886L46.3211 60.1569L45.6568 58.5227L46.8567 56.8059L48.394 60.5886Z" fill="#FF8282"/>
<path d="M46.8567 56.8055L45.6568 58.5223L44.4043 58.4785L42.6236 56.6575L46.8567 56.8055Z" fill="white"/>
<path d="M44.4043 58.4785L44.42 59.7337L42.6763 60.8928L42.6236 56.6575L44.4043 58.4785Z" fill="#FFD580"/>
<path d="M43.4693 0.115479L43.0581 1.31718C37.2892 2.92182 31.7583 7.51633 27.5088 11.7655C23.2593 16.0146 18.6502 21.557 17.043 27.3308L15.8416 27.742L16.6639 29.0151L21.4932 27.8328C21.538 27.629 21.5869 27.4319 21.6397 27.2415C24.2259 16.5387 32.7754 8.13793 43.5597 5.76629L44.7401 0.937796L43.4693 0.115479Z" fill="#FF7752"/>
<path d="M25.3865 9.64689C20.3819 14.6514 17.1065 20.9235 15.8551 27.7379L20.5191 26.5926C21.8782 21.523 24.547 16.4258 28.3577 12.6132C32.1684 8.80065 37.2593 6.13746 42.3247 4.77764L43.4693 0.115479C36.6567 1.36877 30.3869 4.64308 25.3865 9.64689Z" fill="#FFB97D"/>
<path d="M56.0922 0.115479L56.5034 1.31718C62.2704 2.92257 67.8024 7.51634 72.0523 11.7662C76.3022 16.0161 80.9109 21.557 82.5163 27.3308L83.7176 27.742L82.8953 29.0151L78.0664 27.8328C78.0216 27.629 77.9726 27.4319 77.9195 27.2415C75.3333 16.5387 66.7838 8.13793 55.9999 5.76629L54.8191 0.937796L56.0922 0.115479Z" fill="#FF7752"/>
<path d="M74.1739 9.64622C69.1716 4.64429 62.9036 1.36997 56.0922 0.117432L57.2371 4.78035C62.3022 6.14016 67.3961 8.8082 71.2038 12.6159C75.0115 16.4236 77.6837 21.5242 79.0424 26.5953L83.7045 27.7372C82.4546 20.9209 79.1784 14.6489 74.1739 9.64622Z" fill="#FFB97D"/>
<path d="M56.0922 67.9899L56.5034 66.7882C62.2719 65.1836 67.8031 60.5891 72.0526 56.3399C76.3022 52.0908 80.9113 46.5491 82.5166 40.7753L83.718 40.3642L82.8956 39.0911L78.0668 40.2733C78.0219 40.4769 77.973 40.674 77.9199 40.8647C75.3337 51.5675 66.7842 59.9682 56.0003 62.3398L54.818 67.1687L56.0922 67.9899Z" fill="#FFB97D"/>
<path d="M74.1738 58.4623C79.1784 53.4574 82.4535 47.1854 83.7053 40.3713L79.0431 41.5159C77.6844 46.5851 75.0152 51.6827 71.2045 55.4934C67.3938 59.3041 62.3029 61.9695 57.2378 63.3293L56.093 67.9922C62.9036 66.7371 69.1715 63.4628 74.1738 58.4623Z" fill="#FF7752"/>
<path d="M43.4692 67.9899L43.0581 66.7882C37.2891 65.1836 31.7583 60.5891 27.5088 56.3399C23.2593 52.0908 18.6502 46.5491 17.0429 40.7753L15.8416 40.3642L16.6639 39.0911L21.4932 40.2733C21.538 40.4769 21.5869 40.674 21.6397 40.8647C24.2259 51.5675 32.7754 59.9682 43.5597 62.3398L44.7401 67.1691L43.4692 67.9899Z" fill="#FFB97D"/>
<path d="M42.3233 63.3274C37.2578 61.9676 32.1643 59.2995 28.3562 55.4914C24.5481 51.6834 21.8767 46.5835 20.5192 41.5139L15.857 40.3694C17.108 47.1845 20.3835 53.4566 25.3884 58.4604C30.3933 63.4642 36.6586 66.7366 43.4697 67.9892L42.3233 63.3274Z" fill="#FF7752"/>
<path d="M34.1012 61.5169L33.4852 61.1805L33.3121 61.0628C28.3728 57.8454 24.298 53.4657 21.4449 48.3075L21.3171 48.081C21.1923 47.8451 21.0106 47.5005 21.0106 47.5005L16.3701 46.9211L15.0645 47.6646H15.0727L19.7674 49.0427C22.911 54.7662 27.4722 59.586 33.0138 63.0401L33.4654 63.3208L34.6091 68.0532L35.387 66.9835L34.1012 61.5169Z" fill="#FAFF59"/>
<path d="M33.2837 62.5867C27.6958 59.1024 23.1194 54.2135 20.0115 48.4078L15.0645 47.6643C18.9801 56.5416 25.8966 63.7566 34.6005 68.0436L33.2837 62.5867Z" fill="#FF66CC"/>
<path d="M32.8068 65.7262C26.0887 61.8439 20.6384 56.0995 17.1143 49.1868L19.2449 49.5067C22.3658 55.1195 26.8275 59.8725 32.2319 63.3418L32.8068 65.7262Z" fill="#DB144C"/>
<path d="M83.1816 46.9211L78.5407 47.5013C78.5407 47.5013 78.3594 47.8459 78.2316 48.0817L78.1038 48.3082C75.2509 53.4657 71.1773 57.8452 66.2396 61.0635L66.0665 61.1813L65.4505 61.5177L64.1617 66.9846L64.9426 68.0543L66.083 63.3301L66.5371 63.049C72.078 59.5949 76.6384 54.775 79.7809 49.0517L84.4782 47.6646H84.4868L83.1816 46.9211Z" fill="#FAFF59"/>
<path d="M79.5391 48.4078C76.4361 54.2141 71.8622 59.1034 66.2755 62.5864L64.9613 68.0436C73.6642 63.7549 80.5803 56.5405 84.4977 47.6643L79.5391 48.4078Z" fill="#FF66CC"/>
<path d="M67.3262 63.3412C72.7301 59.8739 77.1898 55.1204 80.3057 49.5065L82.4456 49.1858C78.9203 56.0984 73.4697 61.8431 66.7517 65.7263L67.3262 63.3412Z" fill="#DB144C"/>
<path d="M17.632 25.9108C19.0808 20.1341 22.0651 14.8753 26.3411 10.5997C30.6172 6.32398 35.8692 3.34308 41.6415 1.89356C41.6415 1.89356 42.4948 1.70181 43.1093 1.57622L43.4693 0.115479C36.6567 1.36877 30.3869 4.64308 25.3865 9.64689C20.7423 14.2911 17.5887 20.0268 16.1586 26.2749L17.632 25.9108Z" fill="#FFF280"/>
<path d="M81.928 25.9111C80.4796 20.1343 77.4949 14.8756 73.2189 10.5999C68.9428 6.3242 63.6908 3.34331 57.9189 1.89378C57.9189 1.89378 57.0652 1.70203 56.4507 1.57644L56.0922 0.116455C62.9036 1.36899 69.1716 4.64331 74.1739 9.64524C78.8177 14.2895 81.9713 20.0251 83.4018 26.2733L81.928 25.9111Z" fill="#FFF280"/>
<path d="M44.3702 13.6801L49.7796 18.8655L55.189 13.6801L49.7796 11.468L44.3702 13.6801Z" fill="#FF54A0"/>
<path d="M49.7796 18.8655V11.468L55.189 13.6801L49.7796 18.8655Z" fill="#540015"/>
<path d="M49.7796 15.466L55.189 13.6801L49.7796 11.468V15.466Z" fill="#FF8282"/>
<path d="M49.7796 15.466L44.3702 13.6801L49.7796 11.468V15.466Z" fill="#820037"/>
<path d="M49.7796 7.51501V11.4681L44.3702 13.6704L39.9839 9.48671L44.3702 5.30298L49.7796 7.51501Z" fill="#9FFFFC"/>
<path d="M44.929 10.7271L47.2636 9.77654V9.20465L44.9271 8.24927L43.629 9.48723L44.929 10.7271Z" fill="#FFD580"/>
<path d="M49.7796 11.468L47.2637 9.77589V9.20401L49.7796 7.51489V11.468Z" fill="#FF54A0"/>
<path d="M49.7795 11.4687L44.3702 13.671L44.929 10.7271L47.2636 9.77661L49.7795 11.4687Z" fill="#DB144C"/>
<path d="M49.7796 7.51501L47.2637 9.20413L44.9272 8.24874L44.3702 5.30298L49.7796 7.51501Z" fill="#DB144C"/>
<path d="M44.3702 5.30298L44.9272 8.24874L43.629 9.48671H39.9839L44.3702 5.30298Z" fill="white"/>
<path d="M43.629 9.48657L44.9291 10.7264L44.3702 13.6703L39.9839 9.48657H43.629Z" fill="#FF54A0"/>
<path d="M49.7796 7.51501V11.4681L55.1893 13.6704L59.5756 9.48671L55.1893 5.30298L49.7796 7.51501Z" fill="#9FFFFC"/>
<path d="M54.6305 10.7271L52.2955 9.77654V9.20465L54.6323 8.24927L55.9305 9.48723L54.6305 10.7271Z" fill="#FF54A0"/>
<path d="M49.7796 11.468L52.2955 9.77589V9.20401L49.7796 7.51489V11.468Z" fill="white"/>
<path d="M49.7796 11.4687L55.1893 13.671L54.6305 10.7271L52.2955 9.77661L49.7796 11.4687Z" fill="#540015"/>
<path d="M49.7796 7.51501L52.2955 9.20413L54.6324 8.24874L55.1893 5.30298L49.7796 7.51501Z" fill="#FF8282"/>
<path d="M55.1893 5.30298L54.6324 8.24874L55.9305 9.48671H59.5756L55.1893 5.30298Z" fill="#820037"/>
<path d="M55.9305 9.48657L54.6305 10.7264L55.1893 13.6703L59.5756 9.48657H55.9305Z" fill="#DB144C"/>
<path d="M44.3702 5.30289L49.7796 0.117432L55.1893 5.30289L49.7796 7.51493L44.3702 5.30289Z" fill="#FDFF7D"/>
<path d="M49.7796 0.117432V7.51493L55.1893 5.30289L49.7796 0.117432Z" fill="#FF54A0"/>
<path d="M49.7796 3.51685L55.1893 5.30277L49.7796 7.5148V3.51685Z" fill="#DB144C"/>
<path d="M49.7796 3.51685L44.3702 5.30277L49.7796 7.5148V3.51685Z" fill="#FF8282"/>
</svg>