<svg xmlns:xlink="http://www.w3.org/1999/xlink" width="61" height="61" viewBox="0 0 61 61" fill="none" xmlns="http://www.w3.org/2000/svg">
<path d="M30.51 60.0845C47.0784 60.0845 60.5096 46.6532 60.5096 30.0848C60.5096 13.5165 47.0784 0.0852051 30.51 0.0852051C13.9417 0.0852051 0.510376 13.5165 0.510376 30.0848C0.510376 46.6532 13.9417 60.0845 30.51 60.0845Z" fill="#7E8993"/>
<path d="M30.5104 30.0846L19.0297 2.36841C11.3762 5.53882 5.73208 11.5111 2.79416 18.6043L30.5104 30.0846Z" fill="#949BA5"/>
<path d="M9.29678 8.87283L30.5104 30.0856H30.5126L12.5386 6.06274C11.3927 6.92134 10.3093 7.8604 9.29678 8.87283Z" fill="#DDE6EA"/>
<path d="M2.79569 18.6035L30.5104 30.0841L9.29761 8.87134C6.51157 11.6562 4.30031 14.9617 2.7897 18.5997L2.79569 18.6035Z" fill="#949BA5"/>
<path d="M30.5104 30.0842V60.0842C47.0786 60.0842 60.51 46.6528 60.51 30.0842H30.5104Z" fill="#5E6975"/>
<path d="M58.2258 41.5649L30.5111 30.0842L51.7239 51.297C54.51 48.5122 56.7212 45.2067 58.2318 41.5686L58.2258 41.5649Z" fill="#5E6975"/>
<path d="M58.2265 18.606L30.5107 30.0856H60.5103C60.5111 26.146 59.7372 22.2448 58.2329 18.6038L58.2265 18.606Z" fill="#545E69"/>
<path d="M9.29907 51.2984L30.5107 30.0852L2.79565 41.5677C4.30256 45.2072 6.51054 48.5147 9.29385 51.3021L9.29907 51.2984Z" fill="#69767A"/>
<path d="M0.511875 30.0853H30.5108L2.79453 18.6057C1.28623 22.2446 0.508479 26.1447 0.505524 30.0838L0.511875 30.0853Z" fill="#7E8993"/>
<path d="M30.5104 30.0842V60.0842C38.7945 60.0842 46.2944 56.7262 51.7232 51.2974L30.5104 30.0842Z" fill="#343841"/>
<path d="M30.5104 30.0842V60.0842C22.226 60.0842 14.7261 56.7262 9.29727 51.2974L30.5104 30.0842Z" fill="#525B66"/>
<path d="M30.51 56.0296C44.8389 56.0296 56.4548 44.4137 56.4548 30.0848C56.4548 15.7558 44.8389 4.13989 30.51 4.13989C16.181 4.13989 4.56512 15.7558 4.56512 30.0848C4.56512 44.4137 16.181 56.0296 30.51 56.0296Z" fill="#232935"/>
<path d="M4.56509 30.0842C4.56509 44.4135 16.1811 56.0295 30.5103 56.0295C44.8396 56.0295 56.4552 44.4135 56.4552 30.0842H4.56509Z" fill="#7E868F"/>
<path d="M30.5104 30.0842V56.0295C44.8393 56.0295 56.4553 44.4135 56.4553 30.0842H30.5104Z" fill="#808891"/>
<path d="M30.51 54.1956C43.8258 54.1956 54.6204 43.401 54.6204 30.0852C54.6204 16.7694 43.8258 5.97485 30.51 5.97485C17.1943 5.97485 6.39969 16.7694 6.39969 30.0852C6.39969 43.401 17.1943 54.1956 30.51 54.1956Z" fill="black"/>
<path d="M30.51 53.6686C43.5349 53.6686 54.0937 43.1098 54.0937 30.0849C54.0937 17.06 43.5349 6.50122 30.51 6.50122C17.4851 6.50122 6.9263 17.06 6.9263 30.0849C6.9263 43.1098 17.4851 53.6686 30.51 53.6686Z" fill="url(#paint0_linear_2_36)"/>
<path d="M45.7143 32.4171C45.7215 34.2201 45.3655 36.0061 44.6677 37.6687C43.9692 39.331 42.9429 40.8356 41.6502 42.0927C39.0337 44.6509 35.5363 46.0612 31.8011 46.0612C25.5907 46.0612 20.2139 42.1129 18.4627 36.3679H15.6568L15.4867 35.58L14.2121 29.6791L13.9505 28.4669H18.5334C18.742 27.8532 18.9908 27.2538 19.2783 26.6728H13.5748L13.4047 25.8856L12.1275 19.9858L11.8659 18.7737H31.4146C35.3785 18.7737 39.0151 20.1813 41.6581 22.7358C44.2727 25.2663 45.7143 28.7043 45.7143 32.4171Z" fill="black"/>
<path d="M30.5091 2.89774C24.9341 2.88817 19.4924 4.60148 14.9284 7.80324L15.0779 9.15072L18.3736 10.7374C22.0074 8.45157 26.2146 7.24226 30.5076 7.24967C34.8068 7.24287 39.0197 8.45549 42.6574 10.7468L45.9373 9.16866L46.1025 7.81221C41.536 4.6049 36.0894 2.88832 30.5091 2.89774Z" fill="black"/>
<path d="M14.9281 7.80324L18.3927 9.47105C22.0643 7.30894 26.2489 6.17185 30.5099 6.17842C34.7759 6.17119 38.9653 7.31114 42.6394 9.4789L46.104 7.81221C41.5373 4.60478 36.0904 2.88819 30.5099 2.89774C24.9346 2.88879 19.4927 4.60204 14.9281 7.80324Z" fill="#C3D0D6"/>
<path d="M30.509 57.2727C24.9341 57.2823 19.4923 55.569 14.9284 52.3672L15.0779 51.0197L18.3735 49.4334C22.0075 51.719 26.2146 52.9281 30.5076 52.9208C34.8067 52.9277 39.0196 51.7152 42.6573 49.4241L45.9372 51.0018L46.1024 52.3582C41.536 55.5656 36.0893 57.2821 30.509 57.2727Z" fill="#DEEEF5"/>
<path d="M30.5099 53.993C26.2432 53.9998 22.0533 52.8592 18.3788 50.6907L14.9157 52.3574C19.4825 55.5647 24.9293 57.2813 30.5099 57.2718C36.0851 57.2813 41.5272 55.5681 46.0917 52.3667L42.6271 50.6985C38.9559 52.8619 34.7711 53.9997 30.5099 53.993Z" fill="#98AEB5"/>
<path d="M57.6972 30.0842C57.7066 24.5091 55.9932 19.0672 52.7913 14.5032L51.4457 14.6527L49.859 17.9483C52.1449 21.5823 53.3542 25.7896 53.3467 30.0827C53.3535 34.3819 52.1409 38.5948 49.8496 42.2325L51.4277 45.512L52.7842 45.6776C55.9909 41.1109 57.707 35.6643 57.6972 30.0842Z" fill="#E3FFFE"/>
<path d="M52.7917 14.5032L51.1238 17.9677C53.2861 21.6394 54.4232 25.824 54.4165 30.085C54.4235 34.3509 53.2835 38.5403 51.116 42.2145L52.7823 45.6787C55.99 41.1123 57.7068 35.6654 57.6972 30.085C57.7063 24.5097 55.993 19.0677 52.7917 14.5032Z" fill="#BFCBD1"/>
<path d="M3.32295 30.0842C3.31337 24.5091 5.02669 19.0672 8.22846 14.5032L9.57407 14.6527L11.1604 17.9483C8.87467 21.5824 7.66541 25.7896 7.67264 30.0827C7.6659 34.3819 8.87849 38.5948 11.1697 42.2325L9.59199 45.512L8.23554 45.6776C5.02894 41.1109 3.31303 35.6643 3.32295 30.0842Z" fill="#9CB6BA"/>
<path d="M6.60174 30.0846C6.595 25.8179 7.73546 21.6279 9.90371 17.9532L8.2374 14.4905C5.02974 19.0571 3.31315 24.504 3.32295 30.0846C3.31378 35.6592 5.0269 41.1006 8.22805 45.6645L9.89623 42.2C7.73308 38.5293 6.59531 34.3452 6.60174 30.0846Z" fill="#CAD8DE"/>
<path d="M45.3995 31.5949C45.3995 35.197 43.9829 38.57 41.4128 41.0867C38.8472 43.5963 35.4158 44.977 31.7498 44.977C28.2703 44.977 25.0591 43.7148 22.6243 41.5823C20.7599 39.9543 19.3886 37.8368 18.6656 35.4695H15.912L14.2382 27.7199H18.7344C18.9385 27.1175 19.1827 26.5295 19.4655 25.9598H13.8711L12.1951 18.2102H31.3771C39.3697 18.2102 45.3995 23.9649 45.3995 31.5949Z" fill="#727E94"/>
<path d="M37.0844 23.2219L38.9907 20.2316C36.8227 18.9447 34.2261 18.2102 31.376 18.2102H12.1958L18.4152 23.2222L37.0844 23.2219Z" fill="#9FA4B6"/>
<path d="M43.0152 39.1938L39.8806 37.0793L31.7509 40.8672L19.4161 34.4875H16.707L15.9149 35.4691H18.6686C19.3917 37.8363 20.763 39.9538 22.6273 41.5819C25.0625 43.7125 28.2732 44.9766 31.7528 44.9766C35.4188 44.9766 38.8501 43.5958 41.4158 41.0863C42.0062 40.5063 42.5417 39.8727 43.0152 39.1938Z" fill="#4E5769"/>
<path d="M31.7494 39.4258C36.0746 39.4258 39.5808 35.9196 39.5808 31.5944C39.5808 27.2692 36.0746 23.7629 31.7494 23.7629C27.4242 23.7629 23.9179 27.2692 23.9179 31.5944C23.9179 35.9196 27.4242 39.4258 31.7494 39.4258Z" fill="#2E384B"/>
<path d="M34.3651 24.2115C33.5249 23.9138 32.64 23.7621 31.7487 23.7629C27.4236 23.7629 23.9172 27.2694 23.9172 31.5944C23.9172 31.6826 23.921 31.7701 23.9239 31.856L31.7487 31.5944L34.3651 24.2115Z" fill="#181A1F"/>
<path d="M39.5745 31.3303L31.7494 31.592L29.1329 38.9745C29.9731 39.272 30.858 39.4237 31.7494 39.423C36.0748 39.423 39.5808 35.917 39.5808 31.5916C39.5808 31.5053 39.5771 31.4178 39.5745 31.3303Z" fill="#444B59"/>
<path d="M36.9599 35.6518L31.7509 31.594L34.0456 37.7868L35.1535 38.6495C36.0146 38.2324 36.7923 37.6615 37.4481 36.9648L36.9599 35.6518Z" fill="#586273"/>
<path d="M34.8753 31.5942C34.8753 33.3719 33.5416 34.6966 31.7493 34.6966C29.9571 34.6966 28.6238 33.3734 28.6238 31.5942C28.6238 29.815 29.9574 28.4918 31.7493 28.4918C33.5412 28.4918 34.8753 29.8161 34.8753 31.5942ZM44.4194 31.5942C44.4194 35.3574 42.7482 38.7028 40.0869 40.9683C37.8651 42.8592 34.9541 43.9959 31.7493 43.9959C28.4257 43.9959 25.4298 42.7826 23.1845 40.7761C21.3182 39.1117 20.0027 36.9186 19.4131 34.4884H16.7039L15.454 28.7H19.4534C19.8255 27.3782 20.4022 26.1227 21.1624 24.979H14.6616L13.4113 19.1907H31.3744C38.9599 19.1907 44.4194 24.6897 44.4194 31.5942ZM38.418 31.5942C38.418 27.9143 35.4587 24.9783 31.7493 24.9783C28.0399 24.9783 25.0811 27.9136 25.0811 31.5942C25.0811 35.2748 28.0403 38.2101 31.7493 38.2101C35.4584 38.2101 38.418 35.2733 38.418 31.5942Z" fill="#A9BAC0"/>
<path d="M14.2382 27.72L15.4537 28.6993L16.704 34.4876L15.9116 35.4696L14.2382 27.72Z" fill="#727E94"/>
<path d="M14.2382 27.72H18.7344L19.4547 28.6993H15.4537L14.2382 27.72Z" fill="#9FA4B6"/>
<path d="M13.8711 25.9599L14.6617 24.9788H21.1632L19.4655 25.9599H13.8711Z" fill="#4E5769"/>
<path d="M13.8711 25.9598L14.6617 24.9786L13.4114 19.1906L12.1947 18.2102L13.8711 25.9598Z" fill="#727E94"/>
<path d="M32.8801 19.2668L14.4489 23.9929L14.662 24.979H21.1635C20.4034 26.1226 19.8268 27.3781 19.4546 28.6999H15.4552L15.8663 30.6062L26.1595 27.967C27.3444 26.1616 29.3957 24.9767 31.7501 24.9767C32.8352 24.974 33.9048 25.2335 34.8678 25.7333L41.7888 23.9585C39.7393 21.3881 36.6209 19.6388 32.8801 19.2668Z" fill="#BFCED7"/>
<path d="M44.39 32.4172L37.9404 34.0712C36.9608 36.5068 34.5734 38.209 31.7495 38.209C30.2188 38.2153 28.7323 37.6962 27.5381 36.7385L21.1151 38.3854C21.6998 39.268 22.3954 40.072 23.1847 40.7776C24.0815 41.5771 25.0885 42.2436 26.1749 42.7568L42.2 38.6474C43.4891 36.8116 44.2469 34.6559 44.39 32.4172Z" fill="#96A5AB"/>
<defs>
<linearGradient id="paint0_linear_2_36" x1="30.51" y1="6.76885" x2="30.51" y2="52.9588" gradientUnits="userSpaceOnUse">
<stop stop-color="#3C414D"/>
<stop offset="1" stop-color="#10141A"/>
</linearGradient>
</defs>
</svg>