<svg width="27" height="15" viewBox="0 0 27 15" fill="none" xmlns="http://www.w3.org/2000/svg">
<rect width="26.16" height="15" rx="3" fill="#5865F2"/>
<path d="M9.91 11H8.33L7.88 9.68H5.12L4.67 11H3.09L5.7 4.1H7.3L9.91 11ZM6.5 5.67L5.58 8.36H7.42L6.5 5.67ZM11.102 11V4.1H14.192C14.8786 4.1 15.422 4.29667 15.822 4.69C16.2286 5.08333 16.432 5.63667 16.432 6.35C16.432 7.07 16.2286 7.64 15.822 8.06C15.4153 8.47333 14.872 8.68 14.192 8.68H12.562V11H11.102ZM13.922 7.36C14.2553 7.36 14.512 7.28 14.692 7.12C14.8786 6.96 14.972 6.71667 14.972 6.39C14.972 6.06333 14.8786 5.82 14.692 5.66C14.512 5.5 14.2553 5.42 13.922 5.42H12.562V7.36H13.922ZM17.8789 11V4.1H20.9689C21.6556 4.1 22.1989 4.29667 22.5989 4.69C23.0056 5.08333 23.2089 5.63667 23.2089 6.35C23.2089 7.07 23.0056 7.64 22.5989 8.06C22.1922 8.47333 21.6489 8.68 20.9689 8.68H19.3389V11H17.8789ZM20.6989 7.36C21.0322 7.36 21.2889 7.28 21.4689 7.12C21.6556 6.96 21.7489 6.71667 21.7489 6.39C21.7489 6.06333 21.6556 5.82 21.4689 5.66C21.2889 5.5 21.0322 5.42 20.6989 5.42H19.3389V7.36H20.6989Z" fill="white"/>
</svg>
