<svg width="42" height="16" viewBox="0 0 42 16" fill="none" xmlns="http://www.w3.org/2000/svg">
<rect width="41.97" height="15.99" rx="7.995" fill="#5865F2"/>
<path d="M5.84 12V3.72H9.5C10.172 3.72 10.712 3.912 11.12 4.296C11.536 4.68 11.744 5.188 11.744 5.82C11.744 6.316 11.624 6.716 11.384 7.02C11.152 7.316 10.844 7.532 10.46 7.668C10.948 7.772 11.332 7.992 11.612 8.328C11.9 8.656 12.044 9.116 12.044 9.708C12.044 10.476 11.812 11.052 11.348 11.436C10.884 11.812 10.228 12 9.38 12H5.84ZM8.876 7.032C9.636 7.032 10.016 6.728 10.016 6.12C10.016 5.512 9.636 5.208 8.876 5.208H7.592V7.032H8.876ZM8.96 10.512C9.848 10.512 10.292 10.18 10.292 9.516C10.292 8.852 9.848 8.52 8.96 8.52H7.592V10.512H8.96ZM19.4846 12H13.7966V3.72H19.4006V5.304H15.5486V6.936H18.8126V8.52H15.5486V10.416H19.4846V12ZM25.015 12H23.263V5.304H20.863V3.72H27.415V5.304H25.015V12ZM35.357 12H33.461L32.921 10.416H29.609L29.069 12H27.173L30.305 3.72H32.225L35.357 12ZM31.265 5.604L30.161 8.832H32.369L31.265 5.604Z" fill="white"/>
</svg>
