<svg width="27" height="15" viewBox="0 0 27 15" fill="none" xmlns="http://www.w3.org/2000/svg">
<rect width="26.16" height="15" rx="3" fill="#5865F2"/>
<path d="M3.7 11V4.1H6.75C7.31 4.1 7.76 4.26 8.1 4.58C8.44667 4.9 8.62 5.32333 8.62 5.85C8.62 6.26333 8.52 6.59667 8.32 6.85C8.12667 7.09667 7.87 7.27667 7.55 7.39C7.95667 7.47667 8.27667 7.66 8.51 7.94C8.75 8.21333 8.87 8.59667 8.87 9.09C8.87 9.73 8.67667 10.21 8.29 10.53C7.90333 10.8433 7.35667 11 6.65 11H3.7ZM6.23 6.86C6.86333 6.86 7.18 6.60667 7.18 6.1C7.18 5.59333 6.86333 5.34 6.23 5.34H5.16V6.86H6.23ZM6.3 9.76C7.04 9.76 7.41 9.48333 7.41 8.93C7.41 8.37667 7.04 8.1 6.3 8.1H5.16V9.76H6.3ZM13.0733 11.14C12.4466 11.14 11.8933 10.9967 11.4133 10.71C10.9333 10.4233 10.5599 10.01 10.2933 9.47C10.0266 8.92333 9.89328 8.28333 9.89328 7.55C9.89328 6.81667 10.0266 6.18 10.2933 5.64C10.5599 5.09333 10.9333 4.67667 11.4133 4.39C11.8933 4.10333 12.4466 3.96 13.0733 3.96C13.6999 3.96 14.2533 4.10333 14.7333 4.39C15.2133 4.67667 15.5866 5.09333 15.8533 5.64C16.1199 6.18 16.2533 6.81667 16.2533 7.55C16.2533 8.28333 16.1199 8.92333 15.8533 9.47C15.5866 10.01 15.2133 10.4233 14.7333 10.71C14.2533 10.9967 13.6999 11.14 13.0733 11.14ZM13.0733 9.82C13.6333 9.82 14.0599 9.62667 14.3533 9.24C14.6466 8.84667 14.7933 8.28333 14.7933 7.55C14.7933 6.81667 14.6466 6.25667 14.3533 5.87C14.0599 5.47667 13.6333 5.28 13.0733 5.28C12.5133 5.28 12.0866 5.47667 11.7933 5.87C11.4999 6.25667 11.3533 6.81667 11.3533 7.55C11.3533 8.28333 11.4999 8.84667 11.7933 9.24C12.0866 9.62667 12.5133 9.82 13.0733 9.82ZM20.5483 11H19.0883V5.42H17.0883V4.1H22.5483V5.42H20.5483V11Z" fill="white"/>
</svg>
