<svg width="30" height="15" viewBox="0 0 30 15" fill="none" xmlns="http://www.w3.org/2000/svg">
<path fill-rule="evenodd" clip-rule="evenodd" d="M12.2 4.19724C12.3222 4.32186 12.3906 4.4894 12.3906 4.6639C12.3906 4.83841 12.3222 5.00595 12.2 5.13057L6.86667 10.4639C6.74205 10.5861 6.5745 10.6545 6.4 10.6545C6.2255 10.6545 6.05795 10.5861 5.93333 10.4639L3.26667 7.79724C3.19026 7.73993 3.12705 7.66687 3.08133 7.58301C3.03561 7.49915 3.00845 7.40644 3.00168 7.31116C2.99491 7.21589 3.00869 7.12027 3.04209 7.03079C3.07549 6.9413 3.12772 6.86004 3.19526 6.7925C3.2628 6.72496 3.34406 6.67272 3.43355 6.63932C3.52303 6.60593 3.61865 6.59214 3.71393 6.59892C3.8092 6.60569 3.90191 6.63285 3.98577 6.67857C4.06963 6.72429 4.14269 6.78749 4.2 6.8639L6.4 9.05724L11.2667 4.19057C11.3913 4.06842 11.5588 4 11.7333 4C11.9078 4 12.0754 4.06842 12.2 4.19057V4.19724Z" fill="white"/>
<rect width="29.15" height="15" rx="3" fill="#248046"/>
<path fill-rule="evenodd" clip-rule="evenodd" d="M12.2 4.19724C12.3222 4.32186 12.3906 4.4894 12.3906 4.6639C12.3906 4.83841 12.3222 5.00595 12.2 5.13057L6.86667 10.4639C6.74205 10.5861 6.5745 10.6545 6.4 10.6545C6.2255 10.6545 6.05795 10.5861 5.93333 10.4639L3.26667 7.79724C3.19026 7.73993 3.12705 7.66687 3.08133 7.58301C3.03561 7.49915 3.00845 7.40644 3.00168 7.31116C2.99491 7.21589 3.00869 7.12027 3.04209 7.03079C3.07549 6.9413 3.12772 6.86004 3.19526 6.7925C3.2628 6.72496 3.34406 6.67272 3.43355 6.63932C3.52303 6.60593 3.61865 6.59214 3.71393 6.59892C3.8092 6.60569 3.90191 6.63285 3.98577 6.67857C4.06963 6.72429 4.14269 6.78749 4.2 6.8639L6.4 9.05724L11.2667 4.19057C11.3913 4.06842 11.5588 4 11.7333 4C11.9078 4 12.0754 4.06842 12.2 4.19057V4.19724Z" fill="white"/>
<path d="M21.91 11H20.33L19.88 9.68H17.12L16.67 11H15.09L17.7 4.1H19.3L21.91 11ZM18.5 5.67L17.58 8.36H19.42L18.5 5.67ZM24.562 11H23.102V4.1H24.562V11Z" fill="white"/>
</svg>
