<svg xmlns:xlink="http://www.w3.org/1999/xlink" width="140" height="140" viewBox="0 0 24 24" fill="none" xmlns="http://www.w3.org/2000/svg">
<path d="M4 6C4 4.89543 4.89543 4 6 4H18C19.1046 4 20 4.89543 20 6V10.4H4V6Z" fill="#E4D9EA"/>
<path d="M4 18C4 19.1046 4.89543 20 6 20H18C19.1046 20 20 19.1046 20 18V13.6H4V18Z" fill="#0E60EF"/>
<path d="M4 10.4H20V13.6H4V10.4Z" fill="#F0B14B"/>
<path d="M15.7333 12C15.7333 14.0619 14.0619 15.7333 12 15.7333C9.93813 15.7333 8.26666 14.0619 8.26666 12C8.26666 9.93813 9.93813 8.26666 12 8.26666C14.0619 8.26666 15.7333 9.93813 15.7333 12Z" fill="#0F182D"/>
<path d="M13.6 12C13.6 12.8837 12.8837 13.6 12 13.6C11.1164 13.6 10.4 12.8837 10.4 12C10.4 11.1164 11.1164 10.4 12 10.4C12.8837 10.4 13.6 11.1164 13.6 12Z" fill="#E4D9EA"/>
</svg>