<svg width="63" height="15" viewBox="0 0 63 15" fill="none" xmlns="http://www.w3.org/2000/svg">
<rect width="63" height="15" rx="3" fill="#5865F2"/>
<path fill-rule="evenodd" clip-rule="evenodd" d="M12.2 4.19724C12.3222 4.32186 12.3906 4.4894 12.3906 4.6639C12.3906 4.83841 12.3222 5.00595 12.2 5.13057L6.86667 10.4639C6.74205 10.5861 6.5745 10.6545 6.4 10.6545C6.2255 10.6545 6.05795 10.5861 5.93333 10.4639L3.26667 7.79724C3.19026 7.73993 3.12705 7.66687 3.08133 7.58301C3.03561 7.49915 3.00845 7.40644 3.00168 7.31116C2.99491 7.21589 3.00869 7.12027 3.04209 7.03079C3.07549 6.9413 3.12772 6.86004 3.19526 6.7925C3.2628 6.72496 3.34406 6.67272 3.43355 6.63932C3.52303 6.60593 3.61865 6.59214 3.71393 6.59892C3.8092 6.60569 3.90191 6.63285 3.98577 6.67857C4.06963 6.72429 4.14269 6.78749 4.2 6.8639L6.4 9.05724L11.2667 4.19057C11.3913 4.06842 11.5588 4 11.7333 4C11.9078 4 12.0754 4.06842 12.2 4.19057V4.19724Z" fill="white"/>
<path d="M17.56 11.14C16.9333 11.14 16.38 10.9967 15.9 10.71C15.42 10.4233 15.0467 10.01 14.78 9.47C14.5133 8.92333 14.38 8.28333 14.38 7.55C14.38 6.81667 14.5133 6.18 14.78 5.64C15.0467 5.09333 15.42 4.67667 15.9 4.39C16.38 4.10333 16.9333 3.96 17.56 3.96C18.1867 3.96 18.74 4.10333 19.22 4.39C19.7 4.67667 20.0733 5.09333 20.34 5.64C20.6067 6.18 20.74 6.81667 20.74 7.55C20.74 8.28333 20.6067 8.92333 20.34 9.47C20.0733 10.01 19.7 10.4233 19.22 10.71C18.74 10.9967 18.1867 11.14 17.56 11.14ZM17.56 9.82C18.12 9.82 18.5467 9.62667 18.84 9.24C19.1333 8.84667 19.28 8.28333 19.28 7.55C19.28 6.81667 19.1333 6.25667 18.84 5.87C18.5467 5.47667 18.12 5.28 17.56 5.28C17 5.28 16.5733 5.47667 16.28 5.87C15.9867 6.25667 15.84 6.81667 15.84 7.55C15.84 8.28333 15.9867 8.84667 16.28 9.24C16.5733 9.62667 17 9.82 17.56 9.82ZM23.6791 11H22.2191V4.1H26.8291V5.42H23.6791V7.06H26.2391V8.38H23.6791V11ZM29.753 11H28.293V4.1H32.903V5.42H29.753V7.06H32.313V8.38H29.753V11ZM35.8268 11H34.3668V4.1H35.8268V11ZM40.5281 11.14C39.9015 11.14 39.3448 10.9967 38.8581 10.71C38.3715 10.4167 37.9915 10 37.7181 9.46C37.4448 8.92 37.3081 8.28333 37.3081 7.55C37.3081 6.81667 37.4448 6.18 37.7181 5.64C37.9915 5.1 38.3715 4.68667 38.8581 4.4C39.3448 4.10667 39.9015 3.96 40.5281 3.96C41.7748 3.96 42.6548 4.44333 43.1681 5.41L42.0781 6.26C41.9248 5.95333 41.7115 5.71333 41.4381 5.54C41.1648 5.36667 40.8615 5.28 40.5281 5.28C40.1948 5.28 39.8948 5.36667 39.6281 5.54C39.3615 5.71333 39.1515 5.97333 38.9981 6.32C38.8448 6.66 38.7681 7.07 38.7681 7.55C38.7681 8.03 38.8448 8.44333 38.9981 8.79C39.1515 9.13 39.3615 9.38667 39.6281 9.56C39.8948 9.73333 40.1948 9.82 40.5281 9.82C40.8548 9.82 41.1548 9.73333 41.4281 9.56C41.7081 9.38667 41.9248 9.14667 42.0781 8.84L43.1681 9.69C42.9148 10.1633 42.5615 10.5233 42.1081 10.77C41.6615 11.0167 41.1348 11.14 40.5281 11.14ZM46.0213 11H44.5613V4.1H46.0213V11ZM54.0327 11H52.4527L52.0027 9.68H49.2427L48.7927 11H47.2127L49.8227 4.1H51.4227L54.0327 11ZM50.6227 5.67L49.7027 8.36H51.5427L50.6227 5.67ZM59.8246 11H55.2246V4.1H56.6846V9.68H59.8246V11Z" fill="white"/>
</svg>
