<svg width="14" height="9" viewBox="0 0 14 9" fill="none" xmlns="http://www.w3.org/2000/svg">
<path d="M3.56 8.14C2.93333 8.14 2.38 7.99667 1.9 7.71C1.42 7.42333 1.04667 7.01 0.78 6.47C0.513333 5.92333 0.38 5.28333 0.38 4.55C0.38 3.81667 0.513333 3.18 0.78 2.64C1.04667 2.09333 1.42 1.67667 1.9 1.39C2.38 1.10333 2.93333 0.959999 3.56 0.959999C4.18667 0.959999 4.74 1.10333 5.22 1.39C5.7 1.67667 6.07333 2.09333 6.34 2.64C6.60667 3.18 6.74 3.81667 6.74 4.55C6.74 5.28333 6.60667 5.92333 6.34 6.47C6.07333 7.01 5.7 7.42333 5.22 7.71C4.74 7.99667 4.18667 8.14 3.56 8.14ZM3.56 6.82C4.12 6.82 4.54667 6.62667 4.84 6.24C5.13333 5.84667 5.28 5.28333 5.28 4.55C5.28 3.81667 5.13333 3.25667 4.84 2.87C4.54667 2.47667 4.12 2.28 3.56 2.28C3 2.28 2.57333 2.47667 2.28 2.87C1.98667 3.25667 1.84 3.81667 1.84 4.55C1.84 5.28333 1.98667 5.84667 2.28 6.24C2.57333 6.62667 3 6.82 3.56 6.82ZM8.21914 8V1.1H11.3091C11.9958 1.1 12.5391 1.29667 12.9391 1.69C13.3458 2.08333 13.5491 2.63667 13.5491 3.35C13.5491 4.07 13.3458 4.64 12.9391 5.06C12.5325 5.47333 11.9891 5.68 11.3091 5.68H9.67914V8H8.21914ZM11.0391 4.36C11.3725 4.36 11.6291 4.28 11.8091 4.12C11.9958 3.96 12.0891 3.71667 12.0891 3.39C12.0891 3.06333 11.9958 2.82 11.8091 2.66C11.6291 2.5 11.3725 2.42 11.0391 2.42H9.67914V4.36H11.0391Z" fill="#4752C4"/>
</svg>
