<svg width="22" height="15" viewBox="0 0 22 15" fill="none" xmlns="http://www.w3.org/2000/svg">
<g clip-path="url(#clip0_49_2)">
<rect width="21.88" height="15" rx="3" fill="#C9CDFB"/>
<path d="M7.56 11.14C6.93333 11.14 6.38 10.9967 5.9 10.71C5.42 10.4233 5.04667 10.01 4.78 9.47C4.51333 8.92333 4.38 8.28333 4.38 7.55C4.38 6.81667 4.51333 6.18 4.78 5.64C5.04667 5.09333 5.42 4.67667 5.9 4.39C6.38 4.10333 6.93333 3.96 7.56 3.96C8.18667 3.96 8.74 4.10333 9.22 4.39C9.7 4.67667 10.0733 5.09333 10.34 5.64C10.6067 6.18 10.74 6.81667 10.74 7.55C10.74 8.28333 10.6067 8.92333 10.34 9.47C10.0733 10.01 9.7 10.4233 9.22 10.71C8.74 10.9967 8.18667 11.14 7.56 11.14ZM7.56 9.82C8.12 9.82 8.54667 9.62667 8.84 9.24C9.13333 8.84667 9.28 8.28333 9.28 7.55C9.28 6.81667 9.13333 6.25667 8.84 5.87C8.54667 5.47667 8.12 5.28 7.56 5.28C7 5.28 6.57333 5.47667 6.28 5.87C5.98667 6.25667 5.84 6.81667 5.84 7.55C5.84 8.28333 5.98667 8.84667 6.28 9.24C6.57333 9.62667 7 9.82 7.56 9.82ZM12.2191 11V4.1H15.3091C15.9958 4.1 16.5391 4.29667 16.9391 4.69C17.3458 5.08333 17.5491 5.63667 17.5491 6.35C17.5491 7.07 17.3458 7.64 16.9391 8.06C16.5325 8.47333 15.9891 8.68 15.3091 8.68H13.6791V11H12.2191ZM15.0391 7.36C15.3725 7.36 15.6291 7.28 15.8091 7.12C15.9958 6.96 16.0891 6.71667 16.0891 6.39C16.0891 6.06333 15.9958 5.82 15.8091 5.66C15.6291 5.5 15.3725 5.42 15.0391 5.42H13.6791V7.36H15.0391Z" fill="#4752C4"/>
</g>
<defs>
<clipPath id="clip0_49_2">
<rect width="22" height="15" fill="white"/>
</clipPath>
</defs>
</svg>
