<svg width="45" height="15" viewBox="0 0 45 15" fill="none" xmlns="http://www.w3.org/2000/svg">
<rect width="44.59" height="15" rx="3" fill="#5865F2"/>
<path d="M4.94 11.14C3.68 11.14 2.77333 10.6867 2.22 9.78L3.28 8.87C3.5 9.21667 3.74 9.47333 4 9.64C4.26 9.8 4.57 9.88 4.93 9.88C5.29 9.88 5.57 9.81 5.77 9.67C5.97 9.53 6.07 9.32333 6.07 9.05C6.07 8.77 5.95333 8.56 5.72 8.42C5.49333 8.28 5.12667 8.16 4.62 8.06C4.02 7.94 3.51667 7.71667 3.11 7.39C2.71 7.06333 2.51 6.60667 2.51 6.02C2.51 5.60667 2.61667 5.24333 2.83 4.93C3.04333 4.61667 3.33667 4.37667 3.71 4.21C4.09 4.04333 4.52 3.96 5 3.96C5.59333 3.96 6.08667 4.08 6.48 4.32C6.87333 4.55333 7.2 4.87 7.46 5.27L6.45 6.09C6.24333 5.76333 6.02667 5.53 5.8 5.39C5.57333 5.25 5.30667 5.18 5 5.18C4.65333 5.18 4.38667 5.24667 4.2 5.38C4.02 5.51333 3.93 5.69333 3.93 5.92C3.93 6.1 3.98333 6.24667 4.09 6.36C4.19667 6.46667 4.34333 6.55667 4.53 6.63C4.71667 6.69667 4.97667 6.77 5.31 6.85C5.78333 6.96333 6.17333 7.09 6.48 7.23C6.78667 7.37 7.03333 7.57333 7.22 7.84C7.41333 8.10667 7.51 8.46333 7.51 8.91C7.51 9.63 7.27667 10.1833 6.81 10.57C6.34333 10.95 5.72 11.14 4.94 11.14ZM13.7091 11H8.96914V4.1H13.6391V5.42H10.4291V6.78H13.1491V8.1H10.4291V9.68H13.7091V11ZM15.2578 11V4.1H18.3778C19.0978 4.1 19.6511 4.29333 20.0378 4.68C20.4311 5.06 20.6278 5.57667 20.6278 6.23C20.6278 6.72333 20.5111 7.14667 20.2778 7.5C20.0511 7.85333 19.7378 8.11333 19.3378 8.28C19.9645 9.12 20.4578 10.0267 20.8178 11H19.2078C18.8878 10.1 18.4578 9.26 17.9178 8.48H16.7178V11H15.2578ZM18.1178 7.16C18.4511 7.16 18.7078 7.09 18.8878 6.95C19.0745 6.80333 19.1678 6.58333 19.1678 6.29C19.1678 5.99667 19.0745 5.78 18.8878 5.64C18.7078 5.49333 18.4511 5.42 18.1178 5.42H16.7178V7.16H18.1178ZM25.6703 11H24.1103L21.6803 4.1H23.2903L24.8903 8.99L26.4903 4.1H28.1003L25.6703 11ZM34.0986 11H29.3586V4.1H34.0286V5.42H30.8186V6.78H33.5386V8.1H30.8186V9.68H34.0986V11ZM35.6473 11V4.1H38.7673C39.4873 4.1 40.0406 4.29333 40.4273 4.68C40.8206 5.06 41.0173 5.57667 41.0173 6.23C41.0173 6.72333 40.9006 7.14667 40.6673 7.5C40.4406 7.85333 40.1273 8.11333 39.7273 8.28C40.3539 9.12 40.8473 10.0267 41.2073 11H39.5973C39.2773 10.1 38.8473 9.26 38.3073 8.48H37.1073V11H35.6473ZM38.5073 7.16C38.8406 7.16 39.0973 7.09 39.2773 6.95C39.4639 6.80333 39.5573 6.58333 39.5573 6.29C39.5573 5.99667 39.4639 5.78 39.2773 5.64C39.0973 5.49333 38.8406 5.42 38.5073 5.42H37.1073V7.16H38.5073Z" fill="white"/>
</svg>
