<svg width="57" height="15" viewBox="0 0 57 15" fill="none" xmlns="http://www.w3.org/2000/svg">
<rect width="56.68" height="15" rx="3" fill="#5865F2"/>
<path fill-rule="evenodd" clip-rule="evenodd" d="M12.2 4.19724C12.3222 4.32186 12.3906 4.4894 12.3906 4.6639C12.3906 4.83841 12.3222 5.00595 12.2 5.13057L6.86667 10.4639C6.74205 10.5861 6.5745 10.6545 6.4 10.6545C6.2255 10.6545 6.05795 10.5861 5.93333 10.4639L3.26667 7.79724C3.19026 7.73993 3.12705 7.66687 3.08133 7.58301C3.03561 7.49915 3.00845 7.40644 3.00168 7.31116C2.99491 7.21589 3.00869 7.12027 3.04209 7.03079C3.07549 6.9413 3.12772 6.86004 3.19526 6.7925C3.2628 6.72496 3.34406 6.67272 3.43355 6.63932C3.52303 6.60593 3.61865 6.59214 3.71393 6.59892C3.8092 6.60569 3.90191 6.63285 3.98577 6.67857C4.06963 6.72429 4.14269 6.78749 4.2 6.8639L6.4 9.05724L11.2667 4.19057C11.3913 4.06842 11.5588 4 11.7333 4C11.9078 4 12.0754 4.06842 12.2 4.19057V4.19724Z" fill="white"/>
<path d="M16.94 11.14C15.68 11.14 14.7733 10.6867 14.22 9.78L15.28 8.87C15.5 9.21667 15.74 9.47333 16 9.64C16.26 9.8 16.57 9.88 16.93 9.88C17.29 9.88 17.57 9.81 17.77 9.67C17.97 9.53 18.07 9.32333 18.07 9.05C18.07 8.77 17.9533 8.56 17.72 8.42C17.4933 8.28 17.1267 8.16 16.62 8.06C16.02 7.94 15.5167 7.71667 15.11 7.39C14.71 7.06333 14.51 6.60667 14.51 6.02C14.51 5.60667 14.6167 5.24333 14.83 4.93C15.0433 4.61667 15.3367 4.37667 15.71 4.21C16.09 4.04333 16.52 3.96 17 3.96C17.5933 3.96 18.0867 4.08 18.48 4.32C18.8733 4.55333 19.2 4.87 19.46 5.27L18.45 6.09C18.2433 5.76333 18.0267 5.53 17.8 5.39C17.5733 5.25 17.3067 5.18 17 5.18C16.6533 5.18 16.3867 5.24667 16.2 5.38C16.02 5.51333 15.93 5.69333 15.93 5.92C15.93 6.1 15.9833 6.24667 16.09 6.36C16.1967 6.46667 16.3433 6.55667 16.53 6.63C16.7167 6.69667 16.9767 6.77 17.31 6.85C17.7833 6.96333 18.1733 7.09 18.48 7.23C18.7867 7.37 19.0333 7.57333 19.22 7.84C19.4133 8.10667 19.51 8.46333 19.51 8.91C19.51 9.63 19.2767 10.1833 18.81 10.57C18.3433 10.95 17.72 11.14 16.94 11.14ZM23.9345 11H22.4745V8.15L20.1845 4.1H21.7945L23.2045 6.75L24.6145 4.1H26.2245L23.9345 8.15V11ZM29.7029 11.14C28.4429 11.14 27.5362 10.6867 26.9829 9.78L28.0429 8.87C28.2629 9.21667 28.5029 9.47333 28.7629 9.64C29.0229 9.8 29.3329 9.88 29.6929 9.88C30.0529 9.88 30.3329 9.81 30.5329 9.67C30.7329 9.53 30.8329 9.32333 30.8329 9.05C30.8329 8.77 30.7162 8.56 30.4829 8.42C30.2562 8.28 29.8896 8.16 29.3829 8.06C28.7829 7.94 28.2796 7.71667 27.8729 7.39C27.4729 7.06333 27.2729 6.60667 27.2729 6.02C27.2729 5.60667 27.3796 5.24333 27.5929 4.93C27.8062 4.61667 28.0996 4.37667 28.4729 4.21C28.8529 4.04333 29.2829 3.96 29.7629 3.96C30.3562 3.96 30.8496 4.08 31.2429 4.32C31.6362 4.55333 31.9629 4.87 32.2229 5.27L31.2129 6.09C31.0062 5.76333 30.7896 5.53 30.5629 5.39C30.3362 5.25 30.0696 5.18 29.7629 5.18C29.4162 5.18 29.1496 5.24667 28.9629 5.38C28.7829 5.51333 28.6929 5.69333 28.6929 5.92C28.6929 6.1 28.7462 6.24667 28.8529 6.36C28.9596 6.46667 29.1062 6.55667 29.2929 6.63C29.4796 6.69667 29.7396 6.77 30.0729 6.85C30.5462 6.96333 30.9362 7.09 31.2429 7.23C31.5496 7.37 31.7962 7.57333 31.9829 7.84C32.1762 8.10667 32.2729 8.46333 32.2729 8.91C32.2729 9.63 32.0396 10.1833 31.5729 10.57C31.1062 10.95 30.4829 11.14 29.7029 11.14ZM36.792 11H35.332V5.42H33.332V4.1H38.792V5.42H36.792V11ZM44.9365 11H40.1965V4.1H44.8665V5.42H41.6565V6.78H44.3765V8.1H41.6565V9.68H44.9365V11ZM47.7352 11H46.2452L47.0052 4.1H49.1152L50.2052 8.21L51.2952 4.1H53.3452L54.1052 11H52.6152L52.1152 5.9L50.9352 10H49.4152L48.2252 5.9L47.7352 11Z" fill="white"/>
</svg>
