<svg width="39" height="15" viewBox="0 0 39 15" fill="none" xmlns="http://www.w3.org/2000/svg">
<rect width="38.17" height="15" rx="3" fill="#5865F2"/>
<path fill-rule="evenodd" clip-rule="evenodd" d="M12.2 4.19724C12.3222 4.32186 12.3906 4.4894 12.3906 4.6639C12.3906 4.83841 12.3222 5.00595 12.2 5.13057L6.86667 10.4639C6.74205 10.5861 6.5745 10.6545 6.4 10.6545C6.2255 10.6545 6.05795 10.5861 5.93333 10.4639L3.26667 7.79724C3.19026 7.73993 3.12705 7.66687 3.08133 7.58301C3.03561 7.49915 3.00845 7.40644 3.00168 7.31116C2.99491 7.21589 3.00869 7.12027 3.04209 7.03079C3.07549 6.9413 3.12772 6.86004 3.19526 6.7925C3.2628 6.72496 3.34406 6.67272 3.43355 6.63932C3.52303 6.60593 3.61865 6.59214 3.71393 6.59892C3.8092 6.60569 3.90191 6.63285 3.98577 6.67857C4.06963 6.72429 4.14269 6.78749 4.2 6.8639L6.4 9.05724L11.2667 4.19057C11.3913 4.06842 11.5588 4 11.7333 4C11.9078 4 12.0754 4.06842 12.2 4.19057V4.19724Z" fill="white"/>
<path d="M15.7 11V4.1H18.75C19.31 4.1 19.76 4.26 20.1 4.58C20.4467 4.9 20.62 5.32333 20.62 5.85C20.62 6.26333 20.52 6.59667 20.32 6.85C20.1267 7.09667 19.87 7.27667 19.55 7.39C19.9567 7.47667 20.2767 7.66 20.51 7.94C20.75 8.21333 20.87 8.59667 20.87 9.09C20.87 9.73 20.6767 10.21 20.29 10.53C19.9033 10.8433 19.3567 11 18.65 11H15.7ZM18.23 6.86C18.8633 6.86 19.18 6.60667 19.18 6.1C19.18 5.59333 18.8633 5.34 18.23 5.34H17.16V6.86H18.23ZM18.3 9.76C19.04 9.76 19.41 9.48333 19.41 8.93C19.41 8.37667 19.04 8.1 18.3 8.1H17.16V9.76H18.3ZM25.0733 11.14C24.4466 11.14 23.8933 10.9967 23.4133 10.71C22.9333 10.4233 22.5599 10.01 22.2933 9.47C22.0266 8.92333 21.8933 8.28333 21.8933 7.55C21.8933 6.81667 22.0266 6.18 22.2933 5.64C22.5599 5.09333 22.9333 4.67667 23.4133 4.39C23.8933 4.10333 24.4466 3.96 25.0733 3.96C25.6999 3.96 26.2533 4.10333 26.7333 4.39C27.2133 4.67667 27.5866 5.09333 27.8533 5.64C28.1199 6.18 28.2533 6.81667 28.2533 7.55C28.2533 8.28333 28.1199 8.92333 27.8533 9.47C27.5866 10.01 27.2133 10.4233 26.7333 10.71C26.2533 10.9967 25.6999 11.14 25.0733 11.14ZM25.0733 9.82C25.6333 9.82 26.0599 9.62667 26.3533 9.24C26.6466 8.84667 26.7933 8.28333 26.7933 7.55C26.7933 6.81667 26.6466 6.25667 26.3533 5.87C26.0599 5.47667 25.6333 5.28 25.0733 5.28C24.5133 5.28 24.0866 5.47667 23.7933 5.87C23.4999 6.25667 23.3533 6.81667 23.3533 7.55C23.3533 8.28333 23.4999 8.84667 23.7933 9.24C24.0866 9.62667 24.5133 9.82 25.0733 9.82ZM32.5483 11H31.0883V5.42H29.0883V4.1H34.5483V5.42H32.5483V11Z" fill="white"/>
<rect width="38.17" height="15" rx="3" fill="#5865F2"/>
<path fill-rule="evenodd" clip-rule="evenodd" d="M12.2 4.19724C12.3222 4.32186 12.3906 4.4894 12.3906 4.6639C12.3906 4.83841 12.3222 5.00595 12.2 5.13057L6.86667 10.4639C6.74205 10.5861 6.5745 10.6545 6.4 10.6545C6.2255 10.6545 6.05795 10.5861 5.93333 10.4639L3.26667 7.79724C3.19026 7.73993 3.12705 7.66687 3.08133 7.58301C3.03561 7.49915 3.00845 7.40644 3.00168 7.31116C2.99491 7.21589 3.00869 7.12027 3.04209 7.03079C3.07549 6.9413 3.12772 6.86004 3.19526 6.7925C3.2628 6.72496 3.34406 6.67272 3.43355 6.63932C3.52303 6.60593 3.61865 6.59214 3.71393 6.59892C3.8092 6.60569 3.90191 6.63285 3.98577 6.67857C4.06963 6.72429 4.14269 6.78749 4.2 6.8639L6.4 9.05724L11.2667 4.19057C11.3913 4.06842 11.5588 4 11.7333 4C11.9078 4 12.0754 4.06842 12.2 4.19057V4.19724Z" fill="white"/>
<path d="M21.91 11H20.33L19.88 9.68H17.12L16.67 11H15.09L17.7 4.1H19.3L21.91 11ZM18.5 5.67L17.58 8.36H19.42L18.5 5.67ZM23.102 11V4.1H26.192C26.8786 4.1 27.422 4.29667 27.822 4.69C28.2286 5.08333 28.432 5.63667 28.432 6.35C28.432 7.07 28.2286 7.64 27.822 8.06C27.4153 8.47333 26.872 8.68 26.192 8.68H24.562V11H23.102ZM25.922 7.36C26.2553 7.36 26.512 7.28 26.692 7.12C26.8786 6.96 26.972 6.71667 26.972 6.39C26.972 6.06333 26.8786 5.82 26.692 5.66C26.512 5.5 26.2553 5.42 25.922 5.42H24.562V7.36H25.922ZM29.8789 11V4.1H32.9689C33.6556 4.1 34.1989 4.29667 34.5989 4.69C35.0056 5.08333 35.2089 5.63667 35.2089 6.35C35.2089 7.07 35.0056 7.64 34.5989 8.06C34.1922 8.47333 33.6489 8.68 32.9689 8.68H31.3389V11H29.8789ZM32.6989 7.36C33.0322 7.36 33.2889 7.28 33.4689 7.12C33.6556 6.96 33.7489 6.71667 33.7489 6.39C33.7489 6.06333 33.6556 5.82 33.4689 5.66C33.2889 5.5 33.0322 5.42 32.6989 5.42H31.3389V7.36H32.6989Z" fill="white"/>
</svg>
