<?xml version="1.0" encoding="UTF-8"?>
<!DOCTYPE svg PUBLIC "-//W3C//DTD SVG 1.1//EN" "http://www.w3.org/Graphics/SVG/1.1/DTD/svg11.dtd">
<svg xmlns="http://www.w3.org/2000/svg" version="1.1" width="120px" height="120px" style="shape-rendering:geometricPrecision; text-rendering:geometricPrecision; image-rendering:optimizeQuality; fill-rule:evenodd; clip-rule:evenodd" xmlns:xlink="http://www.w3.org/1999/xlink">
<g><path style="opacity:0.944" fill="#fed56b" d="M 58.5,-0.5 C 59.1667,-0.5 59.8333,-0.5 60.5,-0.5C 79.8333,19.5 99.5,39.1667 119.5,58.5C 119.5,59.5 119.5,60.5 119.5,61.5C 99.2172,80.1154 79.5505,99.4487 60.5,119.5C 59.8333,119.5 59.1667,119.5 58.5,119.5C 39.1667,99.5 19.5,79.8333 -0.5,60.5C -0.5,59.8333 -0.5,59.1667 -0.5,58.5C 19.5,39.1667 39.1667,19.5 58.5,-0.5 Z M 26.5,46.5 C 26.8966,45.475 27.5632,45.3083 28.5,46C 36.8333,51.5 45.1667,57 53.5,62.5C 55.5,65.8333 57.5,69.1667 59.5,72.5C 61.9442,69.1229 64.2775,65.6229 66.5,62C 74.9149,56.3754 83.4149,50.8754 92,45.5C 88.8483,52.8106 85.3483,60.1439 81.5,67.5C 81.7093,68.086 82.0426,68.586 82.5,69C 85.0968,69.281 87.4301,69.4477 89.5,69.5C 80.307,76.5265 70.9737,83.3599 61.5,90C 60.5,90.6667 59.5,90.6667 58.5,90C 49.1667,83.3333 39.8333,76.6667 30.5,70C 33.4512,69.904 36.1178,69.0707 38.5,67.5C 34.7258,60.2745 30.7258,53.2745 26.5,46.5 Z"/></g>
</svg>
