<?xml version="1.0" encoding="UTF-8"?>
<svg version="1.1" xmlns="http://www.w3.org/2000/svg" width="256" height="256">
<path d="M0 0 C3.30100893 0.45440013 4.95826505 1.58332187 7.28361511 3.90939331 C7.91031601 4.5290799 8.53701691 5.14876648 9.18270874 5.78723145 C9.85871124 6.47087769 10.53471375 7.15452393 11.23120117 7.85888672 C11.95194321 8.57597809 12.67268524 9.29306946 13.41526794 10.03189087 C15.79863447 12.40714316 18.17096098 14.79309592 20.54296875 17.1796875 C22.19344346 18.83068068 23.84443616 20.48115619 25.4959259 22.13113403 C28.95637655 25.59167444 32.41159473 29.05733093 35.86303711 32.52685547 C40.29341922 36.97993348 44.73479723 41.42184558 49.17991161 45.86021233 C52.59027491 49.2672387 55.99563942 52.67922491 59.39940834 56.09283829 C61.03558959 57.73287593 62.67313019 59.37155854 64.3120327 61.0088768 C66.59865929 63.29513369 68.87869444 65.58776172 71.15698242 67.88232422 C71.83905762 68.561922 72.52113281 69.24151978 73.22387695 69.94171143 C73.84211838 70.56703766 74.4603598 71.19236389 75.09733582 71.8366394 C75.63692019 72.37827665 76.17650457 72.9199139 76.73243999 73.4779644 C78 75 78 75 79 78 C77.85128689 79.75353909 77.85128689 79.75353909 76.06895447 81.67295837 C75.41679899 82.38038115 74.76464352 83.08780392 74.09272575 83.81666374 C70.72932676 87.32569065 67.33861705 90.80045849 63.89672852 94.23266602 C63.11851746 95.01262939 62.3403064 95.79259277 61.53851318 96.59619141 C58.98780527 99.15126904 56.43349411 101.70270826 53.87890625 104.25390625 C52.09188992 106.04159702 50.30502199 107.82943614 48.51829529 109.61741638 C44.78196813 113.35521391 41.04389533 117.0912568 37.30444336 120.82592773 C32.99968169 125.12524863 28.69853392 129.42815973 24.39924484 133.73295265 C20.23951031 137.89779627 16.07693987 142.05979506 11.91319084 146.22062492 C10.15229958 147.98085186 8.39214323 149.74181432 6.63275337 151.50354195 C4.16847765 153.97037354 1.70099078 156.43394926 -0.76733398 158.89672852 C-1.48498428 159.61640305 -2.20263458 160.33607758 -2.94203186 161.07756042 C-6.92090746 165.03999512 -10.99564293 168.82323156 -15.26667881 172.46981716 C-18.63743467 175.44553384 -21.5813676 178.83413565 -24.60546875 182.15625 C-27 184 -27 184 -29.36489296 183.86741257 C-32.60625946 182.80043426 -34.13945677 181.36894179 -36.5562439 178.96514893 C-37.4396344 178.09592804 -38.3230249 177.22670715 -39.23318481 176.33114624 C-40.19912285 175.36062084 -41.1648444 174.38987993 -42.13037109 173.41894531 C-43.15653801 172.40147468 -44.18353701 171.38484267 -45.21130371 170.36898804 C-47.9973234 167.60974322 -50.77040112 164.83782908 -53.54052687 162.06263828 C-55.85327121 159.74775504 -58.17193958 157.43885105 -60.49054015 155.12983584 C-65.95822005 149.68434261 -71.4151774 144.22826452 -76.86572266 138.765625 C-82.49302116 133.12623286 -88.13845324 127.50547296 -93.79303682 121.89345098 C-98.64551878 117.07615797 -103.48635322 112.24737652 -108.31801283 107.40919948 C-111.20475038 104.51883038 -114.095794 101.63312341 -116.99818039 98.758461 C-119.72520402 96.05651699 -122.43742949 93.34055529 -125.13882446 90.61299515 C-126.13378773 89.61328491 -127.13392165 88.61869102 -128.13945389 87.62961197 C-129.50865928 86.2812115 -130.85777052 84.91249608 -132.20565796 83.54278564 C-132.96701742 82.78176167 -133.72837688 82.02073769 -134.51280785 81.23665237 C-136 79 -136 79 -135.86272812 76.37508583 C-134.66324663 73.0729198 -132.7754002 71.23683021 -130.31591797 68.73486328 C-129.82958389 68.23509476 -129.34324982 67.73532623 -128.84217834 67.22041321 C-127.23601331 65.57634122 -125.61525685 63.94768726 -123.9921875 62.3203125 C-122.86665616 61.18192439 -121.7414265 60.04323794 -120.6164856 58.90426636 C-118.25792801 56.52177874 -115.89126757 54.14768531 -113.51953125 51.77832031 C-110.48252798 48.74172402 -107.47399485 45.67852306 -104.47183037 42.60753059 C-102.15716549 40.24838691 -99.8245418 37.90765377 -97.48648453 35.57171249 C-96.36927361 34.44978311 -95.25853955 33.32136503 -94.1545372 32.1864357 C-92.60819033 30.60086704 -91.03849874 29.04270154 -89.46044922 27.48876953 C-88.57300018 26.59562042 -87.68555115 25.70247131 -86.77120972 24.78225708 C-84 23 -84 23 -80.3379364 23.2093811 C-79.23641739 23.47028534 -78.13489838 23.73118958 -77 24 C-48.38097639 25.60822099 -23.29301221 19.74519317 -1 1 C-0.67 0.67 -0.34 0.34 0 0 Z M-89 50 C-88.4587609 54.22474674 -87.51118271 57.41915466 -85.48828125 61.16015625 C-84.98006836 62.11317627 -84.47185547 63.06619629 -83.94824219 64.0480957 C-83.1385498 65.54022583 -83.1385498 65.54022583 -82.3125 67.0625 C-81.21784911 69.11862034 -80.12538516 71.17590655 -79.03515625 73.234375 C-78.51066895 74.22373047 -77.98618164 75.21308594 -77.44580078 76.23242188 C-70 90.48530902 -70 90.48530902 -70 94 C-74.62 94 -79.24 94 -84 94 C-84 94.66 -84 95.32 -84 96 C-82.45472535 97.3200074 -82.45472535 97.3200074 -80.40625 98.6171875 C-79.63152344 99.13539063 -78.85679688 99.65359375 -78.05859375 100.1875 C-77.21425781 100.744375 -76.36992188 101.30125 -75.5 101.875 C-69.2050041 106.0966813 -63.02186766 110.39690506 -57 115 C-50.99654173 119.54108723 -44.95040648 124.01694551 -38.8125 128.375 C-37.60883789 129.26058594 -37.60883789 129.26058594 -36.38085938 130.1640625 C-32.29619318 133.22771821 -32.29619318 133.22771821 -27.46484375 133.71875 C-26.65144531 133.1515625 -25.83804688 132.584375 -25 132 C-24.40872314 131.59990723 -23.81744629 131.19981445 -23.20825195 130.78759766 C-21.02002008 129.27805609 -18.88518071 127.70862673 -16.75 126.125 C-15.13346353 124.94051724 -13.51626027 123.75694402 -11.8984375 122.57421875 C-11.08084961 121.97528809 -10.26326172 121.37635742 -9.42089844 120.75927734 C-5.77058575 118.10657936 -2.07268285 115.52351182 1.625 112.9375 C7.4993245 108.8110679 13.30815191 104.60478312 19.0625 100.3125 C20.10881592 99.53604126 20.10881592 99.53604126 21.17626953 98.74389648 C22.80373359 97.52154069 24.40499214 96.26441404 26 95 C26 94.67 26 94.34 26 94 C21.71 93.67 17.42 93.34 13 93 C14.125 86.25 14.125 86.25 15.76586914 83.01416016 C16.30631615 81.93371933 16.30631615 81.93371933 16.85768127 80.83145142 C17.24624802 80.07496307 17.63481476 79.31847473 18.03515625 78.5390625 C18.43327011 77.74849457 18.83138397 76.95792664 19.24156189 76.1434021 C20.5077103 73.6333933 21.78490235 71.12919724 23.0625 68.625 C23.9258667 66.91834113 24.78850502 65.21131357 25.65039062 63.50390625 C27.75851676 59.33162122 29.87656166 55.16451148 32 51 C31.01 50.505 31.01 50.505 30 50 C28.290824 50.78538944 28.290824 50.78538944 26.45922852 52.0703125 C25.73409561 52.54831299 25.00896271 53.02631348 24.26185608 53.51879883 C23.47548264 54.04884521 22.68910919 54.5788916 21.87890625 55.125 C20.65710915 55.93457153 20.65710915 55.93457153 19.41062927 56.76049805 C16.78950845 58.49949721 14.17589064 60.2494103 11.5625 62 C8.98578703 63.71555663 6.40760047 65.42887026 3.82870483 67.1411438 C2.15923217 68.25179343 0.49207499 69.36593177 -1.17269897 70.48361206 C-4.57125882 72.76012575 -7.95698093 75.01728574 -11.50048828 77.06298828 C-17.89580839 80.78813614 -21.0586193 84.07818405 -24 90.875 C-24.69996489 92.39710547 -25.40792546 93.91556729 -26.125 95.4296875 C-26.41632813 96.09210449 -26.70765625 96.75452148 -27.0078125 97.43701172 C-28 99 -28 99 -31 100 C-31.20625 99.236875 -31.4125 98.47375 -31.625 97.6875 C-34.31571949 90.47147956 -37.01480304 83.98307086 -43.49609375 79.4609375 C-44.46909424 78.7807959 -45.44209473 78.1006543 -46.44458008 77.39990234 C-47.62796627 76.59734281 -48.81328146 75.79762383 -50 75 C-50.704664 74.52588684 -51.409328 74.05177368 -52.13534546 73.56329346 C-57.07477632 70.25176559 -62.03739277 66.976394 -67.01025391 63.71533203 C-69.65646984 61.97935508 -72.29908384 60.23798986 -74.94140625 58.49609375 C-76.6195827 57.39291122 -78.29796052 56.29003494 -79.9765625 55.1875 C-81.16386459 54.40487793 -81.16386459 54.40487793 -82.37515259 53.60644531 C-83.10036102 53.13174805 -83.82556946 52.65705078 -84.57275391 52.16796875 C-85.21242096 51.74797607 -85.85208801 51.3279834 -86.51113892 50.89526367 C-87.85328335 49.9141134 -87.85328335 49.9141134 -89 50 Z " fill="#45DCC0" transform="translate(157,71)"/>
<path d="M0 0 C3.01735794 0.33299671 3.98855941 0.98816274 6.140625 3.21484375 C6.83671875 4.11332031 7.5328125 5.01179687 8.25 5.9375 C8.95640625 6.83339844 9.6628125 7.72929687 10.390625 8.65234375 C12 11 12 11 12 13 C12.78375 13.309375 13.5675 13.61875 14.375 13.9375 C17 15 17 15 19 16 C27.04068124 16.97716612 33.37421738 15.72788896 40 11 C42.57887727 8.49969067 44.84718469 5.87279659 47 3 C48.65 3.33 50.3 3.66 52 4 C53.72667331 9.6507221 55.43492591 15.30658033 57.12695312 20.96777344 C57.70405452 22.88950818 58.28600479 24.80979417 58.87304688 26.72851562 C59.72009726 29.50015667 60.54908468 32.27668535 61.375 35.0546875 C61.63748535 35.8998996 61.8999707 36.74511169 62.17041016 37.61593628 C64.16519912 44.4251939 65.51227245 51.4942775 62.625 58.1875 C50.33828424 71.35183831 30.32984849 79.68081855 12.4921875 80.30078125 C10.61984268 80.31514373 8.74738865 80.31899233 6.875 80.3125 C5.93785156 80.32861328 5.00070313 80.34472656 4.03515625 80.36132812 C-1.58190014 80.36525614 -7.1898661 80.19093729 -12 77 C-16.5094939 72.44264385 -18.33917083 68.14257867 -20.1484375 62.05859375 C-20.41008698 61.21329605 -20.67173645 60.36799835 -20.9413147 59.49708557 C-21.48756288 57.71999931 -22.02671191 55.94071682 -22.55908203 54.15942383 C-23.37530798 51.43647257 -24.2190919 48.72318312 -25.06640625 46.00976562 C-25.59540995 44.27654744 -26.12280969 42.54283871 -26.6484375 40.80859375 C-26.90039886 40.00014511 -27.15236023 39.19169647 -27.41195679 38.35874939 C-28.62904218 34.2269957 -29.40672784 31.23876294 -28 27 C-26.97519531 27.03480469 -25.95039062 27.06960937 -24.89453125 27.10546875 C-23.53387064 27.13362035 -22.1731922 27.16091904 -20.8125 27.1875 C-20.13896484 27.21263672 -19.46542969 27.23777344 -18.77148438 27.26367188 C-14.29213861 27.32922328 -11.53338378 26.78544123 -8 24 C-3.32658014 16.77744203 -1.89072173 8.28699313 0 0 Z " fill="#FBB748" transform="translate(87,1)"/>
</svg>
