<svg width="187" height="187" viewBox="0 0 187 187" fill="none" xmlns="http://www.w3.org/2000/svg">
<g clip-path="url(#clip0_140_2)">
<g clip-path="url(#clip1_140_2)">
<path d="M89.8535 0.718781C92.1618 -0.239594 94.7564 -0.239594 97.0647 0.718781L156.484 25.3327C158.792 26.291 160.627 28.126 161.586 30.4343L186.199 89.8535C187.158 92.1618 187.158 94.7564 186.199 97.0647L161.586 156.484C160.627 158.792 158.792 160.627 156.484 161.586L97.0647 186.199C94.7564 187.158 92.1618 187.158 89.8535 186.199L30.4343 161.586C28.126 160.627 26.291 158.792 25.3327 156.484L0.718781 97.0647C-0.239594 94.7564 -0.239594 92.1618 0.718781 89.8535L25.3327 30.4343C26.291 28.126 28.126 26.291 30.4343 25.3327L89.8535 0.718781Z" fill="white"/>
<mask id="mask0_140_2" style="mask-type:luminance" maskUnits="userSpaceOnUse" x="0" y="0" width="187" height="187">
<path d="M89.8535 0.718781C92.1618 -0.239594 94.7564 -0.239594 97.0647 0.718781L156.484 25.3327C158.792 26.291 160.627 28.126 161.586 30.4343L186.199 89.8535C187.158 92.1618 187.158 94.7564 186.199 97.0647L161.586 156.484C160.627 158.792 158.792 160.627 156.484 161.586L97.0647 186.199C94.7564 187.158 92.1618 187.158 89.8535 186.199L30.4343 161.586C28.126 160.627 26.291 158.792 25.3327 156.484L0.718781 97.0647C-0.239594 94.7564 -0.239594 92.1618 0.718781 89.8535L25.3327 30.4343C26.291 28.126 28.126 26.291 30.4343 25.3327L89.8535 0.718781Z" fill="white"/>
</mask>
<g mask="url(#mask0_140_2)">
<path d="M93.4593 -25.946H-26.5654V213.256H93.4593V-25.946Z" fill="#EF51E8"/>
<path d="M24.667 162.252L162.252 24.6665L195.754 38.9837L210.82 158.453L123.555 216.114L27.1973 205.723L24.667 162.252Z" fill="#3C40F3"/>
<path d="M24.667 24.6665L162.252 162.252L203.55 62.6159L139.134 -23.6087L36.8045 -31.6614L24.667 24.6665Z" fill="#CF92FF"/>
<path d="M213.484 -25.946H93.459V213.256H213.484V-25.946Z" fill="white"/>
<path d="M162.252 24.6666L95.376 91.5426L96.0363 170.433L175.593 179.555L206.764 110.733L177.153 22.6855L162.252 24.6666Z" fill="#7AE9D6"/>
<path d="M93.459 195.076V129.229L125.629 123.654L162.252 161.574L164.589 173.519L93.459 195.076Z" fill="#7B49FF"/>
</g>
<path d="M96.5738 25.958C94.8499 24.2341 92.0566 24.2341 90.3327 25.958L25.958 90.3386C24.2341 92.0625 24.2341 94.8558 25.958 96.5797L90.3327 160.96C92.0566 162.684 94.8499 162.684 96.5738 160.96L160.954 96.5797C162.678 94.8558 162.678 92.0625 160.954 90.3386L96.5738 25.958Z" fill="#141414"/>
<path d="M96.5738 25.958C94.8499 24.2341 92.0566 24.2341 90.3327 25.958L25.958 90.3386C24.2341 92.0625 24.2341 94.8558 25.958 96.5797L90.3327 160.96C92.0566 162.684 94.8499 162.684 96.5738 160.96L160.954 96.5797C162.678 94.8558 162.678 92.0625 160.954 90.3386L96.5738 25.958Z" fill="#000777"/>
<mask id="mask1_140_2" style="mask-type:luminance" maskUnits="userSpaceOnUse" x="24" y="24" width="139" height="139">
<path d="M96.5738 25.958C94.8499 24.2341 92.0566 24.2341 90.3327 25.958L25.958 90.3386C24.2341 92.0625 24.2341 94.8558 25.958 96.5797L90.3327 160.96C92.0566 162.684 94.8499 162.684 96.5738 160.96L160.954 96.5797C162.678 94.8558 162.678 92.0625 160.954 90.3386L96.5738 25.958Z" fill="white"/>
</mask>
<g mask="url(#mask1_140_2)">
<path d="M93.4591 93.459H19.4014V185.983H93.4591V93.459Z" fill="#00043B"/>
<path d="M166.962 0.935059H92.9043V93.4591H166.962V0.935059Z" fill="#2F379E"/>
</g>
<path d="M96.7434 59.501C98.4206 66.9985 102.184 73.8708 107.601 79.3171C113.018 84.7635 119.867 88.5678 127.359 90.2858C128.089 90.4553 128.744 90.8702 129.211 91.4546C129.679 92.0448 129.936 92.7753 129.936 93.5233C129.936 94.2713 129.679 95.0076 129.211 95.592C128.744 96.1822 128.089 96.5913 127.359 96.7607C119.879 98.4379 113.03 102.201 107.607 107.624C102.184 113.047 98.4206 119.896 96.7434 127.376C96.574 128.107 96.1591 128.761 95.5747 129.229C94.9845 129.696 94.254 129.953 93.506 129.953C92.758 129.953 92.0217 129.696 91.4373 129.229C90.8471 128.761 90.438 128.107 90.2686 127.376C88.5564 119.896 84.7696 113.053 79.3408 107.642C73.9119 102.225 67.0572 98.4554 59.5714 96.7666C58.8409 96.5971 58.1863 96.1822 57.7188 95.5978C57.2513 95.0076 56.9941 94.2771 56.9941 93.5291C56.9941 92.7811 57.2513 92.0448 57.7188 91.4604C58.1863 90.8702 58.8409 90.4612 59.5714 90.2917C67.0572 88.5795 73.9061 84.7869 79.3349 79.358C84.7638 73.9292 88.5564 67.0803 90.2686 59.5945C90.4264 58.8582 90.8296 58.1978 91.4139 57.7244C91.9983 57.2511 92.723 56.9823 93.4768 56.9765C94.2306 56.9648 94.9611 57.2102 95.5572 57.6718C96.1532 58.1335 96.574 58.7822 96.7493 59.5127L96.7434 59.501Z" fill="white"/>
</g>
</g>
<defs>
<clipPath id="clip0_140_2">
<rect width="187" height="187" fill="white"/>
</clipPath>
<clipPath id="clip1_140_2">
<rect width="187" height="187" fill="white"/>
</clipPath>
</defs>
</svg>
